SplineFontDB: 3.0
FontName: InconsolataLGC-Italic
FullName: Inconsolata LGC Italic
FamilyName: Inconsolata LGC
Weight: Regular
Copyright: Original Roman version created by Raph Levien using his own tools and FontForge. Copyright 2006 Raph Levien. Hellenisation of the Roman font, by Dimosthenis Kaponis, using FontForge. Hellenic glyphs Copyright 2010-2012 Dimosthenis Kaponis. Released under the SIL Open Font License, http://scripts.sil.org/OFL.\n\nCyrillic glyphs added by MihailJP, using FontForge. Cyrillic glyphs Copyright 2012 MihailJP. Released under the SIL Open Font License, http://scripts.sil.org/OFL.\n\nItalic changes by MihailJP.\n\nSome glyphs modified by Greg Omelaenko, using FontForge.
UComments: "2005-8-26: Created." 
Version: 1.2
ItalicAngle: -10
UnderlinePosition: -102
UnderlineWidth: 51
Ascent: 840
Descent: 184
LayerCount: 2
Layer: 0 0 "Back"  1
Layer: 1 0 "Fore"  0
XUID: [1021 77 1780377399 11264577]
FSType: 8
OS2Version: 0
OS2_WeightWidthSlopeOnly: 0
OS2_UseTypoMetrics: 0
CreationTime: 1161020814
ModificationTime: 1459694339
PfmFamily: 17
TTFWeight: 500
TTFWidth: 5
LineGap: 205
VLineGap: 0
Panose: 2 11 6 9 3 0 3 0 0 0
OS2TypoAscent: 0
OS2TypoAOffset: 1
OS2TypoDescent: 0
OS2TypoDOffset: 1
OS2TypoLinegap: 0
OS2WinAscent: 0
OS2WinAOffset: 1
OS2WinDescent: 0
OS2WinDOffset: 1
HheadAscent: 0
HheadAOffset: 1
HheadDescent: 0
HheadDOffset: 1
OS2Vendor: 'PfEd'
Lookup: 1 0 0 "Polish kreska forms"  {"Polish kreska forms-1" ("pl" ) } ['loca' ('latn' <'PLK ' > ) ]
Lookup: 1 0 0 "Romanian comma accent"  {"Romanian comma accent-1"  } ['locl' ('latn' <'MOL ' 'ROM ' > ) ]
Lookup: 1 0 0 "Macedonian-Serbian Italic"  {"Macedonian-Serbian Italic subtable" ("mkd" ) } ['locl' ('cyrl' <'MKD ' 'SRB ' > ) ]
MarkAttachClasses: 1
DEI: 91125
LangName: 1033 
Encoding: UnicodeBmp
Compacted: 1
UnicodeInterp: none
NameList: Adobe Glyph List
DisplaySize: -72
AntiAlias: 1
FitToEm: 1
WinInfo: 32 16 4
BeginPrivate: 6
BlueValues 31 [-14 0 542 555 739 748 767 796]

StartChar: a
Encoding: 97 97 0
Width: 613
Flags: MW
TeX: 99 0
LayerCount: 2
Fore
SplineSet
90 149 m 0
 135 403 360 543 463 543 c 0
 616 543 565 516 630 499 c 1
 625 492 612 464 607 434 c 0
 585 307 582 288 560 161 c 0
 560 161 l 1
 542 61 580 0 580 0 c 1
 473 -5 l 1
 473 -5 459 70 480 196 c 1
 401 0 289 -12 208 -12 c 0
 122 -12 69 30 90 149 c 0
175 161 m 0
 164 98 199 63 226 63 c 0
 326 63 426 151 477 255 c 0
 490 282 510 339 524 415 c 2
 532 458 l 1
 532 458 522 479 467 479 c 0
 387 479 208 345 175 161 c 0
EndSplineSet
EndChar

StartChar: c
Encoding: 99 99 1
Width: 613
Flags: MW
TeX: 101 0
LayerCount: 2
Fore
SplineSet
125 271 m 0
 154 434 288 553 447 553 c 0
 534 553 600 516 632 453 c 0
 559 382 l 0
 551 389 559 400 556 409 c 0
 554 415 522 480 429 480 c 0
 329 480 236 404 214 280 c 0
 192 153 256 64 362 64 c 0
 416 64 504 88 548 130 c 4
 587 73 l 4
 525 17 417 -13 341 -13 c 0
 188 -13 96 108 125 271 c 0
EndSplineSet
EndChar

StartChar: m
Encoding: 109 109 2
Width: 613
Flags: MW
TeX: 112 0
LayerCount: 2
Fore
SplineSet
55 0 m 1
 122 381 l 2
 136 458 129 516 116 542 c 1
 208 554 l 1
 210 549 213 522 211 478 c 1
 243 517 286 555 342 555 c 0
 391 555 424 521 424 476 c 1
 454 524 508 555 560 555 c 0
 590 555 621 544 636 512 c 1
 652 481 647 443 640 404 c 0
 639 398 637 391 636 385 c 2
 597 161 l 2
 579 61 608 0 608 0 c 1
 504 -5 l 1
 504 -5 499 64 514 150 c 2
 555 384 l 2
 557 393 559 404 561 414 c 0
 564 431 566 448 562 463 c 0
 556 482 541 493 524 493 c 0
 491 493 464 458 452 443 c 0
 427 410 419 387 414 358 c 2
 351 0 l 1
 271 0 l 5
 338 377 l 6
 339 385 341 393 343 402 c 0
 346 417 347 434 345 449 c 0
 341 479 321 489 302 489 c 0
 280 489 254 475 228 439 c 0
 208 410 202 387 197 361 c 2
 133 0 l 1
 55 0 l 1
EndSplineSet
EndChar

StartChar: s
Encoding: 115 115 3
Width: 613
Flags: MW
TeX: 118 0
LayerCount: 2
Fore
SplineSet
91 74 m 0
 155 159 l 0
 160 156 158 150 158 148 c 0
 157 143 156 140 159 135 c 0
 173 116 223 59 322 59 c 0
 421 59 492 94 501 145 c 0
 504 165 500 193 459 214 c 0
 422 233 334 247 291 264 c 0
 263 275 167 309 184 404 c 0
 198 485 293 555 419 555 c 0
 499 555 566 525 606 470 c 0
 543 395 l 0
 541 395 537 398 538 405 c 0
 539 409 541 412 538 416 c 0
 522 443 477 491 400 491 c 0
 339 491 281 461 273 417 c 0
 270 399 274 372 315 351 c 0
 361 327 478 314 533 280 c 0
 591 244 599 194 591 157 c 0
 567 48 484 -12 353 -12 c 0
 222 -12 144 15 91 74 c 0
EndSplineSet
EndChar

StartChar: I
Encoding: 73 73 4
Width: 613
Flags: MW
TeX: 75 0
LayerCount: 2
Fore
SplineSet
245 739 m 0
 612 739 l 0
 599 670 l 0
 453 670 l 0
 347 68 l 0
 500 68 l 0
 488 -1 l 0
 106 -1 l 0
 119 69 l 0
 264 69 l 0
 370 670 l 0
 233 670 l 0
 245 739 l 0
EndSplineSet
EndChar

StartChar: o
Encoding: 111 111 5
Width: 613
Flags: MW
TeX: 114 0
LayerCount: 2
Fore
SplineSet
604 269 m 4
 572 89 438 -14 310 -14 c 4
 173 -14 76 102 105 267 c 4
 135 434 275 554 413 554 c 4
 536 554 637 456 604 269 c 4
394 481 m 4
 311 481 220 407 197 274 c 4
 173 140 237 59 323 59 c 4
 402 59 493 129 517 265 c 4
 543 414 472 481 394 481 c 4
EndSplineSet
EndChar

StartChar: n
Encoding: 110 110 6
Width: 613
Flags: MW
TeX: 113 0
LayerCount: 2
Fore
SplineSet
91 0 m 1
 158 381 l 2
 172 458 165 516 152 542 c 1
 252 554 l 1
 254 548 260 513 253 443 c 1
 303 499 372 554 456 555 c 0
 518 556 568 520 584 459 c 0
 596 415 587 371 580 329 c 2
 580 329 569 265 551 161 c 0
 533 61 562 0 562 0 c 1
 455 -5 l 1
 455 -5 450 64 465 150 c 0
 477 219 496 327 496 327 c 2
 503 365 510 412 487 447 c 0
 472 470 447 481 420 481 c 0
 363 481 303 433 277 405 c 0
 249 375 239 349 233 312 c 2
 178 0 l 1
 91 0 l 1
EndSplineSet
EndChar

StartChar: l
Encoding: 108 108 7
Width: 613
Flags: MW
TeX: 111 0
LayerCount: 2
Fore
SplineSet
238 720 m 1
 250 788 l 1
 489 788 l 1
 379 164 l 1
 373 123 368 75 415 75 c 0
 441 75 462 79 492 81 c 1
 476 0 l 1
 470 0 463 0 457 0 c 0
 445 0 432 0 421 0 c 0
 383 0 346 2 323 18 c 0
 286 44 280 93 292 159 c 0
 292 161 293 162 293 164 c 2
 391 720 l 1
 238 720 l 1
EndSplineSet
EndChar

StartChar: t
Encoding: 116 116 8
Width: 613
Flags: MW
TeX: 119 0
LayerCount: 2
Fore
SplineSet
355 687 m 0
 451 702 l 0
 452 700 450 698 450 696 c 0
 448 687 442 681 438 671 c 0
 427 640 402 543 402 543 c 0
 579 543 l 0
 567 472 l 0
 388 472 l 0
 368 401 353 331 341 260 c 0
 327 181 326 161 325 156 c 0
 323 91 361 69 401 69 c 0
 435 69 480 84 532 118 c 0
 546 50 l 0
 494 16 428 -10 363 -10 c 0
 308 -10 268 11 249 47 c 0
 225 92 235 147 243 195 c 0
 259 287 279 379 303 472 c 0
 176 472 l 0
 190 542 l 0
 319 542 l 0
 355 687 l 0
EndSplineSet
EndChar

StartChar: e
Encoding: 101 101 9
Width: 613
Flags: MW
TeX: 103 0
LayerCount: 2
Fore
SplineSet
114 265 m 0
 149 463 286 555 395 555 c 0
 504 555 533 539 560 515 c 0
 592 486 605 444 597 400 c 0
 586 340 542 306 451 274 c 0
 382 250 305 250 230 250 c 0
 224 250 218 250 212 250 c 2
 197 250 l 1
 186 88 277 56 345 56 c 0
 399 56 484 78 527 118 c 1
 566 72 l 1
 510 17 404 -12 326 -12 c 0
 180 -12 82 84 114 265 c 0
209 315 m 1
 223 315 l 2
 243 315 264 315 286 315 c 0
 327 315 369 317 402 324 c 0
 472 340 503 355 510 395 c 0
 518 443 486 489 413 489 c 0
 340 489 232 444 209 315 c 1
EndSplineSet
EndChar

StartChar: b
Encoding: 98 98 11
Width: 613
Flags: MW
TeX: 100 0
LayerCount: 2
Fore
SplineSet
87 35 m 25
 139 329 220 790 220 790 c 0
 320 790 l 0
 321 783 314 778 312 776 c 0
 305 772 303 769 302 763 c 0
 249 459 l 0
 294 518 364 555 433 555 c 0
 539 555 635 467 602 278 c 0
 573 114 451 0 314 0 c 8
 177 0 148 21 87 35 c 25
185 98 m 1
 185 98 190 63 280 63 c 16
 370 63 486 126 510 260 c 0
 544 451 441 481 390 481 c 0
 337 481 282 451 253 402 c 0
 235 372 228 338 219 289 c 2
 185 98 l 1
EndSplineSet
EndChar

StartChar: H
Encoding: 72 72 12
Width: 613
Flags: MW
TeX: 74 0
LayerCount: 2
Fore
SplineSet
205 739 m 0
 297 739 l 0
 298 737 298 736 298 734 c 0
 296 725 288 724 286 711 c 0
 235 423 l 0
 525 423 l 0
 581 739 l 0
 671 739 l 0
 672 738 672 736 672 734 c 0
 670 725 661 725 659 713 c 0
 533 -1 l 0
 449 -1 l 0
 512 352 l 0
 223 352 l 0
 161 0 l 0
 75 0 l 0
 205 739 l 0
EndSplineSet
EndChar

StartChar: g
Encoding: 103 103 13
Width: 613
Flags: MW
TeX: 105 0
LayerCount: 2
Fore
SplineSet
44 -131 m 0
 113 -57 l 0
 119 -63 116 -71 119 -79 c 0
 122 -86 177 -139 247 -139 c 0
 337 -139 342 -137 384 -116 c 0
 426 -95 438 -68 442 -44 c 10
 465 87 l 17
 421 27 350 -12 281 -12 c 0
 176 -12 74 76 109 276 c 0
 148 500 391 543 463 543 c 8
 535 543 567 516 634 499 c 17
 629 492 616 464 611 434 c 0
 611 434 561 146 528 -39 c 17
 515 -112 433 -204 277 -204 c 0
 121 -204 74 -179 44 -131 c 0
197 290 m 0
 166 111 249 63 310 63 c 0
 367 63 432 101 464 166 c 0
 478 193 489 224 496 265 c 2
 530 458 l 1
 530 458 491 479 434 479 c 16
 377 479 224 444 197 290 c 0
EndSplineSet
EndChar

StartChar: h
Encoding: 104 104 14
Width: 613
Flags: MW
TeX: 106 0
LayerCount: 2
Fore
SplineSet
93 0 m 0
 232 788 l 0
 331 788 l 0
 331 787 330 786 330 785 c 0
 329 779 324 775 321 772 c 0
 316 768 315 765 314 761 c 0
 259 446 l 0
 309 506 384 555 458 555 c 0
 520 555 570 520 586 459 c 0
 598 415 589 371 582 329 c 0
 553 161 l 2
 535 61 564 0 564 0 c 25
 457 -5 l 25
 457 -5 452 64 467 150 c 2
 498 327 l 0
 505 365 512 412 489 447 c 0
 474 470 449 481 422 481 c 0
 365 481 305 433 279 405 c 0
 251 375 241 349 235 312 c 0
 180 0 l 0
 93 0 l 0
EndSplineSet
EndChar

StartChar: u
Encoding: 117 117 15
Width: 613
Flags: MW
TeX: 120 0
LayerCount: 2
Fore
SplineSet
123 97 m 0
 110 144 118 193 126 240 c 2
 157 410 l 2
 168 473 158 520 146 542 c 1
 246 554 l 1
 248 549 261 509 250 449 c 2
 213 240 l 2
 206 203 199 161 212 123 c 0
 226 80 261 56 304 56 c 0
 356 56 410 91 443 136 c 0
 467 170 476 202 483 244 c 2
 536 542 l 1
 622 542 l 1
 555 161 l 2
 537 61 574 0 574 0 c 1
 468 -5 l 1
 468 -5 460 22 462 81 c 1
 414 29 334 -13 272 -13 c 0
 201 -13 142 25 123 97 c 0
EndSplineSet
EndChar

StartChar: r
Encoding: 114 114 16
Width: 613
Flags: MW
TeX: 117 0
LayerCount: 2
Fore
SplineSet
128 0 m 1
 195 381 l 2
 209 458 202 516 189 542 c 1
 289 554 l 1
 291 548 299 526 294 462 c 1
 344 524 416 554 492 555 c 0
 568 556 613 531 641 496 c 1
 587 414 l 1
 579 423 578 432 572 441 c 0
 560 460 535 481 458 481 c 0
 381 481 339 433 313 405 c 0
 285 375 276 349 270 312 c 2
 215 0 l 1
 128 0 l 1
EndSplineSet
EndChar

StartChar: i
Encoding: 105 105 17
Width: 613
Flags: MW
TeX: 108 0
LayerCount: 2
Fore
SplineSet
220 473 m 1
 232 543 l 1
 449 543 l 1
 382 164 l 1
 376 123 371 75 418 75 c 0
 444 75 465 79 495 81 c 1
 479 0 l 1
 473 0 466 0 460 0 c 0
 448 0 435 0 424 0 c 0
 386 0 350 2 327 18 c 0
 290 44 283 93 295 159 c 0
 295 161 296 162 296 164 c 2
 351 473 l 1
 220 473 l 1
377 717 m 0
 383 751 416 778 450 778 c 0
 484 778 506 751 500 717 c 0
 494 683 462 656 428 656 c 0
 394 656 371 683 377 717 c 0
EndSplineSet
EndChar

StartChar: f
Encoding: 102 102 18
Width: 613
Flags: MW
TeX: 104 0
LayerCount: 2
Fore
SplineSet
163 442 m 1
 175 510 l 1
 293 510 l 1
 302 563 l 2
 310 611 320 656 356 701 c 0
 405 762 482 796 558 796 c 0
 627 796 680 769 711 722 c 1
 658 643 l 1
 654 643 650 645 651 653 c 0
 651 658 652 662 649 667 c 0
 633 702 594 729 542 729 c 0
 497 729 452 709 422 669 c 0
 398 636 390 599 384 563 c 0
 383 559 383 556 382 552 c 2
 375 510 l 1
 552 510 l 1
 540 442 l 1
 363 442 l 1
 254 -172 l 1
 172 -172 l 1
 281 442 l 1
 163 442 l 1
EndSplineSet
EndChar

StartChar: v
Encoding: 118 118 19
Width: 613
Flags: MW
TeX: 121 0
LayerCount: 2
Fore
SplineSet
153 543 m 4
 255 543 l 4
 255 533 249 526 248 519 c 4
 247 516 247 515 248 512 c 4
 335 116 l 4
 457 317 l 4
 500 388 543 464 571 543 c 4
 648 543 l 4
 615 460 571 381 525 305 c 4
 338 -4 l 4
 272 -4 l 4
 153 543 l 4
EndSplineSet
EndChar

StartChar: d
Encoding: 100 100 20
Width: 613
Flags: MW
TeX: 102 0
LayerCount: 2
Fore
SplineSet
112 276 m 0
 151 500 392 543 445 543 c 8
 498 543 542 521 542 521 c 1
 590 790 l 1
 681 790 l 1
 680 782 674 776 671 772 c 0
 666 765 665 762 664 756 c 0
 642 629 582 288 560 161 c 1
 560 161 l 1
 542 61 580 0 580 0 c 1
 473 -5 l 1
 473 -5 470 38 472 98 c 1
 427 39 345 -12 277 -12 c 0
 172 -12 77 76 112 276 c 0
197 290 m 0
 166 111 249 63 310 63 c 0
 367 63 430 101 462 166 c 0
 476 193 490 224 497 265 c 2
 532 458 l 1
 532 458 490 479 433 479 c 16
 376 479 224 444 197 290 c 0
EndSplineSet
EndChar

StartChar: p
Encoding: 112 112 21
Width: 613
Flags: MW
TeX: 115 0
LayerCount: 2
Fore
SplineSet
47 -198 m 1
 153 410 l 1
 160 472 155 520 143 542 c 1
 235 554 l 1
 237 549 245 509 239 449 c 1
 285 503 347 554 437 554 c 0
 543 554 642 469 608 278 c 0
 573 79 442 0 355 0 c 0
 268 0 223 10 172 20 c 1
 134 -198 l 1
 47 -198 l 1
185 98 m 1
 185 98 262 61 316 61 c 0
 370 61 486 89 516 259 c 0
 551 457 440 481 393 481 c 0
 338 481 282 451 253 402 c 0
 236 374 228 342 220 296 c 0
 206 217 185 98 185 98 c 1
EndSplineSet
EndChar

StartChar: q
Encoding: 113 113 22
Width: 613
Flags: MW
TeX: 116 0
LayerCount: 2
Fore
SplineSet
109 276 m 0
 148 500 391 543 463 543 c 8
 535 543 568 516 634 499 c 17
 629 492 616 464 611 434 c 0
 611 434 560 147 528 -37 c 17
 510 -137 540 -198 540 -198 c 25
 433 -203 l 25
 433 -203 425 -138 440 -52 c 10
 465 87 l 17
 421 27 350 -12 281 -12 c 0
 176 -12 74 76 109 276 c 0
197 290 m 0
 166 111 249 63 310 63 c 0
 367 63 432 101 464 166 c 0
 478 193 489 224 496 265 c 2
 530 458 l 1
 530 458 491 479 434 479 c 16
 377 479 224 444 197 290 c 0
EndSplineSet
EndChar

StartChar: y
Encoding: 121 121 23
Width: 613
Flags: MW
TeX: 124 0
LayerCount: 2
Fore
SplineSet
44 -131 m 1
 113 -57 l 1
 119 -63 116 -71 119 -79 c 0
 122 -86 177 -139 247 -139 c 0
 337 -139 350 -131 377 -116 c 0
 397 -104 430 -68 434 -44 c 2
 455 74 l 1
 406 25 331 -13 272 -13 c 0
 201 -13 142 25 123 97 c 0
 110 144 118 193 126 240 c 2
 157 410 l 2
 168 473 158 520 146 542 c 1
 246 554 l 1
 248 549 261 509 250 449 c 2
 213 240 l 2
 206 203 199 161 212 123 c 0
 226 80 261 56 304 56 c 0
 356 56 410 91 443 136 c 0
 467 170 476 202 483 244 c 2
 536 542 l 1
 622 542 l 1
 520 -39 l 2
 507 -112 425 -204 269 -204 c 0
 113 -204 74 -179 44 -131 c 1
EndSplineSet
EndChar

StartChar: period
Encoding: 46 46 24
Width: 613
Flags: MW
TeX: 115 0
LayerCount: 2
Fore
SplineSet
373 55 m 0
 366 18 330 -13 291 -13 c 0
 252 -13 226 18 233 55 c 0
 240 92 276 123 315 123 c 0
 354 123 380 92 373 55 c 0
EndSplineSet
EndChar

StartChar: comma
Encoding: 44 44 25
Width: 613
Flags: MW
TeX: 101 0
LayerCount: 2
Fore
SplineSet
377 23 m 0
 366 -39 309 -116 212 -200 c 0
 177 -164 l 0
 210 -138 235 -109 250 -90 c 0
 257 -80 273 -61 276 -41 c 0
 280 -17 265 -5 256 2 c 0
 247 9 226 22 232 54 c 0
 238 90 273 122 312 122 c 0
 354 122 388 84 377 23 c 0
EndSplineSet
EndChar

StartChar: plus
Encoding: 43 43 28
Width: 613
Flags: MW
TeX: 115 0
LayerCount: 2
Fore
SplineSet
383 621 m 5
 458 621 l 5
 422 418 l 5
 625 418 l 5
 612 345 l 5
 409 345 l 5
 370 123 l 5
 295 123 l 5
 334 345 l 5
 124 345 l 5
 137 418 l 5
 347 418 l 5
 383 621 l 5
EndSplineSet
EndChar

StartChar: minus
Encoding: 8722 8722 29
Width: 613
Flags: MW
TeX: 106 0
LayerCount: 2
Fore
SplineSet
135 408 m 29
 623 408 l 29
 610 335 l 29
 123 335 l 29
 135 408 l 29
EndSplineSet
EndChar

StartChar: underscore
Encoding: 95 95 31
Width: 613
Flags: MW
TeX: 120 0
LayerCount: 2
Fore
SplineSet
47 -23 m 29
 559 -23 l 29
 546 -95 l 29
 34 -95 l 29
 47 -23 l 29
EndSplineSet
EndChar

StartChar: less
Encoding: 60 60 32
Width: 613
Flags: MW
TeX: 111 0
LayerCount: 2
Fore
SplineSet
658 589 m 25
 209 379 l 25
 583 145 l 25
 567 56 l 25
 113 351 l 25
 123 409 l 25
 673 673 l 25
 658 589 l 25
EndSplineSet
EndChar

StartChar: greater
Encoding: 62 62 33
Width: 613
Flags: MW
TeX: 105 0
LayerCount: 2
Fore
SplineSet
164 589 m 25
 179 673 l 25
 635 409 l 25
 625 351 l 25
 67 56 l 25
 83 145 l 25
 539 379 l 25
 164 589 l 25
EndSplineSet
EndChar

StartChar: quotesingle
Encoding: 39 39 34
Width: 613
Flags: MW
TeX: 116 0
LayerCount: 2
Fore
SplineSet
508 723 m 2
 489 610 l 1
 472 504 l 1
 371 504 l 1
 376 555 380 555 387 606 c 1
 397 626 392 641 396 664 c 2
 406 723 l 2
 414 770 452 791 475 791 c 0
 498 791 517 777 508 723 c 2
EndSplineSet
EndChar

StartChar: grave
Encoding: 96 96 35
Width: 613
Flags: MW
TeX: 105 0
LayerCount: 2
Fore
SplineSet
300 362 m 2
 235 474 l 1
 174 577 l 1
 172 762 l 1
 201 718 202 710 231 663 c 1
 243 631 251 633 264 610 c 2
 298 550 l 2
 325 503 337 420 338 378 c 0
 339 335 331 308 300 362 c 2
EndSplineSet
EndChar

StartChar: slash
Encoding: 47 47 36
Width: 613
Flags: MW
TeX: 118 0
LayerCount: 2
Fore
SplineSet
83 -15 m 25
 597 788 l 25
 661 753 l 25
 147 -50 l 25
 83 -15 l 25
EndSplineSet
EndChar

StartChar: backslash
Encoding: 92 92 37
Width: 613
Flags: MW
TeX: 100 0
LayerCount: 2
Fore
SplineSet
526 -15 m 25
 450 -50 l 25
 219 753 l 25
 296 788 l 25
 526 -15 l 25
EndSplineSet
EndChar

StartChar: micro
Encoding: 181 181 38
Width: 613
Flags: MW
TeX: 120 0
LayerCount: 2
Fore
SplineSet
4 -198 m 0
 29 -61 78 89 105 240 c 0
 158 542 l 0
 236 542 l 0
 179 220 l 0
 173 184 167 151 178 118 c 0
 192 75 226 51 264 51 c 0
 307 51 354 81 383 129 c 0
 402 160 410 190 416 227 c 0
 471 542 l 0
 547 542 l 0
 476 137 l 0
 473 119 469 97 476 80 c 0
 481 64 495 56 509 56 c 0
 550 56 584 114 584 114 c 0
 605 53 l 0
 576 18 533 -12 489 -12 c 0
 439 -12 405 29 408 80 c 0
 370 24 307 -13 246 -13 c 0
 189 -13 141 20 126 72 c 0
 110 -18 95 -109 78 -198 c 0
 4 -198 l 0
EndSplineSet
EndChar

StartChar: braceleft
Encoding: 123 123 39
Width: 613
Flags: MW
TeX: 100 0
LayerCount: 2
Fore
SplineSet
132 337 m 0
 156 337 l 0
 178 337 209 337 240 364 c 0
 273 394 284 435 289 464 c 0
 294 493 296 520 301 549 c 0
 309 594 326 661 387 709 c 0
 443 753 508 756 565 756 c 0
 574 756 583 756 592 756 c 0
 628 756 l 0
 616 688 l 0
 575 688 l 0
 558 688 542 689 528 689 c 0
 499 689 476 686 452 673 c 0
 401 644 389 587 385 562 c 0
 380 534 379 508 374 479 c 0
 369 451 360 416 338 384 c 0
 314 348 280 319 240 304 c 0
 282 289 330 244 308 120 c 0
 302 83 291 51 286 20 c 0
 279 -21 276 -72 314 -102 c 0
 337 -120 368 -122 406 -122 c 0
 413 -122 420 -122 428 -122 c 0
 472 -122 l 0
 460 -188 l 0
 417 -188 l 0
 405 -188 392 -188 380 -188 c 0
 323 -188 274 -186 238 -153 c 0
 184 -105 194 -24 202 19 c 0
 210 65 222 101 228 138 c 0
 237 189 236 224 216 247 c 0
 196 271 165 270 145 270 c 0
 120 270 l 0
 132 337 l 0
EndSplineSet
EndChar

StartChar: braceright
Encoding: 125 125 40
Width: 613
Flags: MW
TeX: 100 0
LayerCount: 2
Fore
SplineSet
601 337 m 0
 589 270 l 0
 565 270 l 0
 545 270 515 271 486 247 c 0
 458 224 444 189 435 138 c 0
 429 101 427 65 419 19 c 0
 411 -24 393 -105 322 -153 c 0
 274 -186 224 -188 167 -188 c 0
 155 -188 143 -188 131 -188 c 0
 88 -188 l 0
 99 -122 l 0
 143 -122 l 0
 151 -122 159 -122 166 -122 c 0
 204 -122 235 -120 265 -102 c 0
 313 -72 328 -21 335 20 c 0
 340 51 343 83 349 120 c 0
 371 244 434 289 482 304 c 0
 448 319 423 348 412 384 c 0
 401 416 404 451 409 479 c 0
 414 508 423 534 428 562 c 0
 432 587 440 644 399 673 c 0
 380 686 358 689 329 689 c 0
 315 689 299 688 282 688 c 0
 241 688 l 0
 253 756 l 0
 289 756 l 0
 298 756 307 756 316 756 c 0
 373 756 437 753 477 709 c 0
 521 661 515 594 507 549 c 0
 502 520 494 493 489 464 c 0
 484 435 480 394 502 364 c 0
 524 337 556 337 578 337 c 0
 601 337 l 0
EndSplineSet
EndChar

StartChar: asterisk
Encoding: 42 42 41
Width: 613
Flags: MW
TeX: 99 0
LayerCount: 2
Fore
SplineSet
372 615 m 0
 468 615 l 0
 463 601 459 599 455 584 c 0
 405 406 l 0
 609 492 l 0
 628 419 l 0
 413 357 l 0
 531 178 l 0
 458 127 l 0
 364 324 l 0
 196 126 l 0
 141 178 l 0
 327 356 l 0
 133 419 l 0
 178 496 l 0
 353 406 l 0
 372 615 l 0
EndSplineSet
EndChar

StartChar: O
Encoding: 79 79 42
Width: 613
Flags: MW
TeX: 81 0
LayerCount: 2
Fore
SplineSet
634 368 m 0
 623 303 602 211 549 132 c 0
 483 34 390 -11 310 -11 c 0
 197 -11 59 80 110 371 c 0
 161 662 333 748 443 748 c 0
 523 748 599 703 631 608 c 0
 657 529 646 437 634 368 c 0
426 670 m 0
 348 670 233 602 194 382 c 0
 153 147 241 70 324 70 c 0
 374 70 436 98 483 170 c 0
 525 234 540 309 549 357 c 0
 560 420 569 491 555 553 c 0
 536 639 478 670 426 670 c 0
EndSplineSet
EndChar

StartChar: zero
Encoding: 48 48 43
Width: 613
Flags: MW
TeX: 125 0
LayerCount: 2
Fore
SplineSet
440 744 m 0
 554 744 651 609 607 357 c 0
 562 103 414 -13 307 -13 c 0
 190 -13 92 125 134 364 c 0
 176 601 323 744 440 744 c 0
525 575 m 1
 505 640 466 672 426 672 c 0
 353 672 247 567 214 378 c 0
 205 326 203 279 206 238 c 1
 525 575 l 1
539 496 m 1
 220 163 l 1
 241 98 280 62 324 62 c 0
 389 62 492 141 528 348 c 0
 538 405 541 454 539 496 c 1
EndSplineSet
EndChar

StartChar: one
Encoding: 49 49 44
Width: 613
Flags: MW
TeX: 114 0
LayerCount: 2
Fore
SplineSet
496 740 m 0
 365 -1 l 0
 282 -1 l 0
 395 637 l 0
 239 593 l 0
 227 639 l 0
 439 740 l 0
 496 740 l 0
EndSplineSet
EndChar

StartChar: two
Encoding: 50 50 45
Width: 613
Flags: MW
TeX: 119 0
LayerCount: 2
Fore
SplineSet
213 625 m 0
 270 699 357 744 441 744 c 0
 562 744 638 652 618 537 c 0
 599 431 510 355 447 304 c 0
 385 254 286 181 205 73 c 0
 516 73 l 0
 521 73 523 74 529 78 c 0
 532 80 539 86 546 83 c 0
 531 0 l 0
 97 0 l 0
 106 52 l 0
 190 175 272 251 370 327 c 0
 432 375 519 441 535 531 c 0
 549 610 497 671 418 671 c 0
 353 671 302 631 280 604 c 0
 272 594 273 587 264 577 c 0
 213 625 l 0
EndSplineSet
EndChar

StartChar: N
Encoding: 78 78 46
Width: 613
Flags: MW
TeX: 80 0
LayerCount: 2
Fore
SplineSet
70 0 m 0
 200 739 l 0
 281 739 l 0
 495 191 l 0
 591 740 l 0
 679 740 l 0
 679 733 675 728 673 725 c 0
 669 720 667 717 666 709 c 0
 540 -1 l 0
 475 -1 l 0
 252 582 l 0
 150 0 l 0
 70 0 l 0
EndSplineSet
EndChar

StartChar: four
Encoding: 52 52 47
Width: 613
Flags: MW
TeX: 104 0
LayerCount: 2
Fore
SplineSet
512 740 m 0
 582 740 l 0
 501 278 l 0
 596 278 l 0
 583 204 l 0
 488 204 l 0
 452 0 l 0
 366 0 l 0
 402 205 l 0
 104 205 l 0
 115 266 l 0
 512 740 l 0
474 608 m 0
 198 278 l 0
 416 278 l 0
 474 608 l 0
EndSplineSet
EndChar

StartChar: eight
Encoding: 56 56 48
Width: 613
Flags: MW
TeX: 103 0
LayerCount: 2
Fore
SplineSet
449 749 m 0
 557 749 627 671 610 574 c 0
 597 503 539 433 461 395 c 0
 538 357 583 278 568 191 c 0
 548 78 434 -12 304 -12 c 0
 177 -12 96 76 115 186 c 0
 130 271 204 352 299 393 c 0
 238 427 204 493 217 566 c 0
 235 666 336 749 449 749 c 0
355 359 m 0
 279 330 214 267 202 197 c 0
 189 123 241 62 321 62 c 0
 400 62 471 121 484 192 c 0
 497 264 445 329 355 359 c 0
430 679 m 0
 365 679 308 631 298 573 c 0
 281 475 402 425 402 425 c 0
 465 456 518 511 528 568 c 0
 539 630 496 679 430 679 c 0
EndSplineSet
EndChar

StartChar: five
Encoding: 53 53 49
Width: 613
Flags: MW
TeX: 104 0
LayerCount: 2
Fore
SplineSet
267 739 m 0
 641 739 l 0
 628 665 l 0
 323 665 l 0
 274 452 l 0
 316 471 359 480 400 480 c 0
 524 480 608 392 580 234 c 0
 552 74 431 -13 303 -13 c 0
 215 -13 140 28 104 100 c 0
 187 156 l 0
 196 149 188 137 191 128 c 0
 194 120 235 59 315 59 c 0
 394 59 475 121 495 235 c 0
 516 353 453 412 375 412 c 0
 325 412 268 387 224 342 c 0
 175 364 l 0
 267 739 l 0
EndSplineSet
EndChar

StartChar: S
Encoding: 83 83 50
Width: 613
Flags: MW
TeX: 85 0
LayerCount: 2
Fore
SplineSet
641 651 m 0
 576 581 l 0
 574 582 571 583 572 590 c 0
 573 594 573 597 571 602 c 0
 550 644 503 675 434 675 c 0
 349 675 291 624 281 567 c 0
 276 537 282 492 337 456 c 0
 398 416 498 396 552 335 c 0
 591 291 593 240 586 201 c 0
 570 108 482 -12 302 -12 c 0
 211 -12 133 20 86 83 c 0
 150 168 l 0
 155 165 154 159 154 157 c 0
 153 152 152 149 155 144 c 0
 181 102 236 62 317 62 c 0
 424 62 491 133 502 197 c 0
 508 230 501 269 458 299 c 0
 408 334 307 359 247 410 c 0
 193 456 186 511 194 554 c 0
 212 655 318 743 452 743 c 0
 533 743 601 710 641 651 c 0
EndSplineSet
EndChar

StartChar: M
Encoding: 77 77 51
Width: 613
Flags: MW
TeX: 79 0
LayerCount: 2
Fore
SplineSet
189 739 m 0
 254 739 l 0
 374 378 l 0
 624 740 l 0
 687 740 l 0
 556 -1 l 0
 477 -1 l 0
 576 558 l 0
 363 260 l 0
 332 260 l 0
 234 554 l 0
 136 -1 l 0
 58 -1 l 0
 189 739 l 0
EndSplineSet
EndChar

StartChar: L
Encoding: 76 76 52
Width: 613
Flags: MW
TeX: 78 0
LayerCount: 2
Fore
SplineSet
219 739 m 0
 316 739 l 0
 316 731 310 724 308 721 c 0
 303 714 300 710 298 699 c 0
 188 71 l 0
 544 71 l 0
 531 -1 l 0
 89 -1 l 0
 219 739 l 0
EndSplineSet
EndChar

StartChar: ampersand
Encoding: 38 38 53
Width: 613
Flags: MW
TeX: 80 0
LayerCount: 2
Fore
SplineSet
413 747 m 0
 502 747 560 680 544 589 c 0
 530 511 466 433 381 391 c 0
 482 206 l 0
 516 239 538 273 552 301 c 0
 553 304 554 307 555 310 c 0
 556 315 555 320 556 325 c 0
 557 331 560 334 563 337 c 0
 631 284 l 0
 596 236 557 189 516 145 c 0
 580 38 l 0
 501 -14 l 0
 454 90 l 0
 397 32 316 -12 236 -12 c 0
 129 -12 65 67 84 173 c 0
 100 264 174 357 274 407 c 0
 239 460 212 526 223 591 c 0
 239 680 323 747 413 747 c 0
305 589 m 0
 299 558 304 516 350 442 c 0
 410 472 455 529 465 583 c 0
 475 639 444 676 400 676 c 0
 358 676 314 641 305 589 c 0
306 351 m 0
 236 310 186 243 175 182 c 0
 163 113 201 64 262 64 c 0
 341 64 421 146 421 146 c 0
 306 351 l 0
EndSplineSet
EndChar

StartChar: F
Encoding: 70 70 54
Width: 613
Flags: MW
TeX: 80 0
LayerCount: 2
Fore
SplineSet
233 740 m 0
 659 740 l 0
 646 668 l 0
 304 668 l 0
 263 435 l 0
 540 435 l 0
 527 364 l 0
 250 364 l 0
 186 0 l 0
 102 0 l 0
 233 740 l 0
EndSplineSet
EndChar

StartChar: w
Encoding: 119 119 55
Width: 613
Flags: MW
TeX: 122 0
LayerCount: 2
Fore
SplineSet
124 543 m 0
 211 543 l 0
 212 534 208 525 205 519 c 0
 200 510 199 506 200 498 c 0
 210 106 l 0
 371 492 l 0
 424 492 l 0
 471 108 l 0
 561 382 583 459 594 519 c 0
 595 527 596 535 597 542 c 0
 676 542 l 0
 620 360 559 179 490 -1 c 0
 410 -1 l 0
 372 350 l 0
 215 -1 l 0
 138 -1 l 0
 124 543 l 0
EndSplineSet
EndChar

StartChar: quotedbl
Encoding: 34 34 58
Width: 613
Flags: MW
TeX: 116 0
LayerCount: 2
Fore
SplineSet
594 723 m 2
 575 610 l 1
 557 504 l 1
 475 504 l 1
 481 555 485 555 492 606 c 1
 501 626 496 641 500 664 c 2
 510 723 l 2
 518 770 550 791 569 791 c 0
 588 791 603 777 594 723 c 2
388 723 m 2
 368 610 l 1
 351 504 l 1
 268 504 l 1
 274 555 278 555 285 606 c 1
 294 626 289 641 293 664 c 2
 304 723 l 2
 312 770 343 791 362 791 c 0
 381 791 397 777 388 723 c 2
EndSplineSet
EndChar

StartChar: T
Encoding: 84 84 59
Width: 613
Flags: MW
TeX: 86 0
LayerCount: 2
Fore
SplineSet
178 740 m 0
 690 740 l 0
 676 666 l 0
 458 666 l 0
 341 -1 l 0
 257 -1 l 0
 374 666 l 0
 164 666 l 0
 178 740 l 0
EndSplineSet
EndChar

StartChar: hyphen
Encoding: 45 45 60
Width: 613
Flags: MW
TeX: 106 0
LayerCount: 2
Fore
SplineSet
167 413 m 0
 594 413 l 0
 580 334 l 0
 153 334 l 0
 167 413 l 0
EndSplineSet
EndChar

StartChar: exclam
Encoding: 33 33 61
Width: 613
Flags: MW
TeX: 103 0
LayerCount: 2
Fore
SplineSet
375 57 m 0
 368 18 331 -13 292 -13 c 0
 253 -13 227 18 234 57 c 0
 241 96 278 127 317 127 c 0
 356 127 382 96 375 57 c 0
436 793 m 0
 458 793 480 778 483 742 c 0
 484 735 484 722 479 694 c 0
 471 649 456 603 445 558 c 0
 365 230 l 0
 306 230 l 0
 346 558 l 0
 356 636 353 665 360 703 c 0
 364 725 369 742 377 755 c 0
 392 781 415 793 436 793 c 0
EndSplineSet
EndChar

StartChar: U
Encoding: 85 85 63
Width: 613
Flags: MW
TeX: 87 0
LayerCount: 2
Fore
SplineSet
200 739 m 0
 293 739 l 0
 293 737 293 735 293 733 c 0
 292 726 287 721 283 717 c 0
 278 711 276 706 275 701 c 0
 196 254 l 0
 190 217 184 181 195 145 c 0
 212 88 261 57 320 57 c 0
 378 57 439 87 476 144 c 0
 501 182 508 219 515 257 c 0
 600 739 l 0
 679 739 l 0
 595 259 l 0
 585 205 574 154 537 102 c 0
 481 24 391 -13 306 -13 c 0
 219 -13 144 26 116 102 c 0
 98 153 106 203 115 255 c 0
 200 739 l 0
EndSplineSet
EndChar

StartChar: numbersign
Encoding: 35 35 64
Width: 613
Flags: MW
TeX: 113 0
LayerCount: 2
Fore
SplineSet
347 740 m 5
 419 743 l 5
 358 540 l 5
 489 542 l 5
 546 734 l 5
 620 737 l 5
 562 542 l 5
 670 544 l 5
 654 486 l 5
 545 485 l 5
 486 286 l 5
 604 288 l 5
 588 232 l 5
 469 231 l 5
 405 16 l 5
 333 12 l 5
 397 229 l 5
 265 227 l 5
 203 16 l 5
 132 13 l 5
 195 226 l 5
 79 224 l 5
 94 279 l 5
 211 281 l 5
 271 483 l 5
 141 481 l 5
 155 538 l 5
 287 539 l 5
 347 740 l 5
341 483 m 5
 282 282 l 5
 413 284 l 5
 472 485 l 5
 341 483 l 5
EndSplineSet
EndChar

StartChar: j
Encoding: 106 106 65
Width: 613
Flags: MW
TeX: 109 0
LayerCount: 2
Fore
SplineSet
255 543 m 4
 543 543 l 4
 454 38 l 4
 446 -9 437 -54 406 -99 c 4
 357 -171 274 -207 197 -207 c 4
 130 -207 74 -179 44 -131 c 4
 113 -57 l 4
 119 -63 116 -71 119 -79 c 4
 122 -86 149 -133 215 -133 c 4
 261 -133 308 -109 336 -65 c 4
 354 -36 360 -7 365 22 c 4
 445 472 l 4
 243 472 l 4
 255 543 l 4
543 778 m 4
 577 778 599 751 593 717 c 4
 587 683 555 656 521 656 c 4
 487 656 465 683 471 717 c 4
 477 751 509 778 543 778 c 4
EndSplineSet
EndChar

StartChar: x
Encoding: 120 120 66
Width: 613
Flags: MW
TeX: 123 0
LayerCount: 2
Fore
SplineSet
536 543 m 5
 623 543 l 5
 401 279 l 5
 551 0 l 5
 454 0 l 5
 341 211 l 5
 163 0 l 5
 67 0 l 5
 305 276 l 5
 165 543 l 5
 259 543 l 5
 365 342 l 5
 536 543 l 5
EndSplineSet
EndChar

StartChar: G
Encoding: 71 71 67
Width: 613
Flags: MW
TeX: 73 0
LayerCount: 2
Fore
SplineSet
471 747 m 0
 562 747 635 700 664 623 c 0
 595 563 l 0
 587 569 585 579 583 587 c 0
 569 637 524 674 458 674 c 0
 396 674 323 640 272 568 c 0
 233 514 214 447 202 378 c 0
 188 300 179 196 228 126 c 0
 260 80 309 61 357 61 c 0
 401 61 451 76 498 106 c 0
 529 283 l 0
 395 283 l 0
 408 354 l 0
 619 354 l 0
 568 66 l 0
 489 15 405 -11 337 -11 c 0
 208 -11 68 81 117 361 c 0
 174 685 373 747 471 747 c 0
EndSplineSet
EndChar

StartChar: k
Encoding: 107 107 68
Width: 613
Flags: MW
TeX: 110 0
LayerCount: 2
Fore
SplineSet
228 788 m 0
 325 788 l 0
 325 780 319 775 316 771 c 0
 311 766 310 763 309 758 c 0
 227 293 l 0
 543 545 l 0
 563 540 584 539 605 539 c 0
 636 539 l 0
 369 324 l 0
 578 -1 l 0
 575 -1 573 -1 570 -1 c 0
 513 -1 467 -5 467 -5 c 0
 295 271 l 0
 211 205 l 0
 175 -1 l 0
 89 -1 l 0
 228 788 l 0
EndSplineSet
EndChar

StartChar: z
Encoding: 122 122 69
Width: 613
Flags: MW
TeX: 125 0
LayerCount: 2
Fore
SplineSet
190 543 m 0
 612 543 l 0
 602 484 l 0
 198 73 l 0
 521 73 l 0
 536 73 543 80 554 80 c 0
 555 80 557 80 558 80 c 0
 544 -1 l 0
 69 -1 l 0
 80 57 l 0
 488 468 l 0
 177 468 l 0
 190 543 l 0
EndSplineSet
EndChar

StartChar: dollar
Encoding: 36 36 70
Width: 613
Flags: MW
TeX: 102 0
LayerCount: 2
Fore
SplineSet
425 772 m 1
 502 772 l 1
 502 771 502 769 502 768 c 0
 500 759 492 759 490 748 c 2
 482 702 l 1
 551 695 608 663 642 611 c 1
 580 547 l 1
 578 548 574 550 575 555 c 0
 575 558 577 561 576 565 c 0
 576 566 575 568 572 572 c 0
 553 602 520 624 470 632 c 1
 430 403 l 1
 455 394 480 386 503 375 c 0
 526 364 613 323 594 215 c 0
 579 130 499 37 362 19 c 1
 349 -55 l 1
 279 -55 l 1
 292 17 l 1
 211 22 144 55 101 112 c 1
 164 182 l 1
 169 179 168 172 168 171 c 0
 167 166 165 163 169 158 c 0
 196 123 243 92 304 85 c 1
 350 346 l 1
 330 353 309 362 289 372 c 0
 198 419 190 486 198 529 c 0
 213 614 300 687 412 701 c 1
 425 772 l 1
416 324 m 1
 374 88 l 1
 453 103 506 156 515 210 c 0
 519 234 517 274 472 301 c 0
 457 310 438 317 416 324 c 1
364 428 m 1
 400 633 l 1
 324 624 285 580 278 539 c 0
 273 513 279 478 326 448 c 0
 337 441 350 434 364 428 c 1
EndSplineSet
EndChar

StartChar: A
Encoding: 65 65 71
Width: 613
Flags: MW
TeX: 67 0
LayerCount: 2
Fore
SplineSet
27 -1 m 0
 421 753 l 0
 431 753 l 0
 584 0 l 0
 498 0 l 0
 454 216 l 0
 219 216 l 0
 109 -1 l 0
 27 -1 l 0
447 281 m 0
 392 562 l 0
 247 281 l 0
 447 281 l 0
EndSplineSet
EndChar

StartChar: C
Encoding: 67 67 72
Width: 613
Flags: MW
TeX: 69 0
LayerCount: 2
Fore
SplineSet
471 745 m 0
 569 745 648 688 672 599 c 0
 586 560 l 0
 581 564 583 571 583 572 c 0
 584 575 584 578 585 581 c 0
 586 587 585 589 583 593 c 0
 562 645 515 679 457 679 c 0
 352 679 240 569 205 373 c 0
 170 173 245 59 354 59 c 0
 412 59 477 94 521 150 c 0
 575 110 l 0
 515 34 425 -12 337 -12 c 0
 215 -12 73 79 123 365 c 0
 175 661 356 745 471 745 c 0
EndSplineSet
EndChar

StartChar: B
Encoding: 66 66 73
Width: 613
Flags: MW
TeX: 68 0
LayerCount: 2
Fore
SplineSet
198 739 m 0
 408 739 l 0
 453 739 499 739 542 719 c 0
 606 689 634 625 622 559 c 0
 610 488 555 423 484 396 c 0
 562 368 603 291 588 205 c 0
 575 129 519 56 433 22 c 0
 378 0 326 0 276 0 c 0
 68 0 l 0
 198 739 l 0
267 669 m 0
 226 433 l 0
 342 433 l 0
 375 433 410 433 447 448 c 0
 497 468 530 509 537 551 c 0
 545 594 526 635 480 655 c 0
 449 668 416 669 384 669 c 0
 267 669 l 0
214 364 m 0
 162 73 l 0
 304 73 l 0
 336 73 367 74 401 88 c 0
 456 111 494 160 503 213 c 0
 512 266 492 319 442 345 c 0
 408 363 371 364 334 364 c 0
 214 364 l 0
EndSplineSet
EndChar

StartChar: bracketleft
Encoding: 91 91 74
Width: 613
Flags: MW
TeX: 100 0
LayerCount: 2
Fore
SplineSet
306 795 m 0
 645 795 l 0
 632 724 l 0
 369 724 l 0
 235 -38 l 0
 499 -38 l 0
 487 -105 l 0
 147 -105 l 0
 306 795 l 0
EndSplineSet
EndChar

StartChar: bracketright
Encoding: 93 93 75
Width: 613
Flags: MW
TeX: 100 0
LayerCount: 2
Fore
SplineSet
589 795 m 0
 430 -105 l 0
 90 -105 l 0
 102 -38 l 0
 366 -38 l 0
 500 724 l 0
 237 724 l 0
 250 795 l 0
 589 795 l 0
EndSplineSet
EndChar

StartChar: parenleft
Encoding: 40 40 76
Width: 613
Flags: MW
TeX: 115 0
LayerCount: 2
Fore
SplineSet
615 791 m 4
 638 718 l 4
 634 716 630 715 628 715 c 4
 623 715 619 717 615 717 c 4
 610 717 607 715 604 713 c 4
 451 631 342 480 312 311 c 4
 279 127 344 -48 490 -142 c 4
 440 -205 l 4
 269 -106 191 91 229 307 c 4
 267 524 417 710 615 791 c 4
EndSplineSet
EndChar

StartChar: parenright
Encoding: 41 41 77
Width: 613
Flags: MW
TeX: 115 0
LayerCount: 2
Fore
SplineSet
229 716 m 0
 264 790 l 0
 441 701 532 508 495 297 c 0
 457 84 295 -113 82 -207 c 0
 72 -135 l 0
 247 -50 379 115 410 294 c 0
 441 470 371 633 229 716 c 0
EndSplineSet
EndChar

StartChar: three
Encoding: 51 51 78
Width: 613
Flags: MW
TeX: 119 0
LayerCount: 2
Fore
SplineSet
595 554 m 0
 582 482 528 419 457 394 c 0
 529 366 566 291 550 203 c 0
 530 88 426 -12 284 -12 c 0
 210 -12 145 17 105 72 c 0
 180 146 l 0
 189 135 182 124 190 113 c 0
 194 107 228 63 297 63 c 0
 384 63 458 132 472 213 c 0
 488 301 423 354 323 354 c 0
 310 354 298 353 285 351 c 0
 297 418 l 0
 367 418 403 431 417 437 c 0
 472 459 508 508 516 553 c 0
 527 615 484 668 408 668 c 0
 362 668 312 648 271 611 c 0
 234 663 l 0
 289 714 358 742 425 742 c 0
 542 742 613 655 595 554 c 0
EndSplineSet
EndChar

StartChar: D
Encoding: 68 68 79
Width: 613
Flags: MW
TeX: 70 0
LayerCount: 2
Fore
SplineSet
204 739 m 0
 377 739 l 0
 442 739 494 735 542 700 c 0
 626 638 647 513 622 371 c 0
 593 209 513 83 397 29 c 0
 340 2 291 -1 232 -1 c 0
 74 -1 l 0
 204 739 l 0
270 669 m 0
 164 65 l 0
 240 65 l 0
 286 65 332 67 384 98 c 0
 450 138 511 219 536 360 c 0
 555 466 551 571 492 628 c 0
 453 666 407 669 360 669 c 0
 270 669 l 0
EndSplineSet
EndChar

StartChar: E
Encoding: 69 69 80
Width: 613
Flags: MW
TeX: 71 0
LayerCount: 2
Fore
SplineSet
210 740 m 0
 664 740 l 0
 651 667 l 0
 276 667 l 0
 233 424 l 0
 543 424 l 0
 529 348 l 0
 220 348 l 0
 172 74 l 0
 543 74 l 0
 530 0 l 0
 80 0 l 0
 210 740 l 0
EndSplineSet
EndChar

StartChar: V
Encoding: 86 86 81
Width: 613
Flags: MW
TeX: 88 0
LayerCount: 2
Fore
SplineSet
170 740 m 0
 258 740 l 0
 347 172 l 0
 626 739 l 0
 708 739 l 0
 329 -5 l 0
 291 -5 l 0
 170 740 l 0
EndSplineSet
EndChar

StartChar: percent
Encoding: 37 37 82
Width: 613
Flags: MW
TeX: 115 0
LayerCount: 2
Fore
SplineSet
604 739 m 0
 684 739 l 0
 140 0 l 0
 65 0 l 0
 604 739 l 0
309 753 m 0
 381 753 431 686 415 596 c 0
 399 508 327 442 255 442 c 0
 182 442 133 508 149 597 c 0
 165 688 238 753 309 753 c 0
296 690 m 0
 273 690 234 672 222 602 c 0
 208 522 244 506 265 506 c 0
 289 506 327 524 339 593 c 0
 354 677 315 690 296 690 c 0
608 142 m 0
 592 53 520 -12 448 -12 c 0
 376 -12 326 54 342 142 c 0
 358 231 430 296 502 296 c 0
 574 296 624 230 608 142 c 0
491 235 m 0
 466 235 426 214 413 142 c 0
 401 72 431 48 459 48 c 0
 484 48 525 68 537 139 c 0
 550 215 515 235 491 235 c 0
EndSplineSet
EndChar

StartChar: J
Encoding: 74 74 83
Width: 613
Flags: MW
TeX: 76 0
LayerCount: 2
Fore
SplineSet
344 739 m 0
 682 739 l 0
 670 670 l 0
 556 670 l 0
 482 248 l 0
 473 195 463 138 425 85 c 0
 379 22 309 -13 238 -13 c 0
 173 -13 116 17 81 69 c 0
 148 136 l 0
 154 130 147 122 151 115 c 0
 154 112 191 60 253 60 c 0
 288 60 324 78 349 108 c 0
 381 146 390 193 398 237 c 0
 400 247 l 0
 474 670 l 0
 332 670 l 0
 344 739 l 0
EndSplineSet
EndChar

StartChar: K
Encoding: 75 75 84
Width: 613
Flags: MW
TeX: 77 0
LayerCount: 2
Fore
SplineSet
191 740 m 0
 290 740 l 0
 290 732 284 727 280 723 c 0
 275 718 275 715 274 710 c 0
 219 398 l 0
 589 745 l 0
 609 740 630 739 650 739 c 0
 680 739 l 0
 344 420 l 0
 569 -1 l 0
 511 -1 463 -5 463 -5 c 0
 272 370 l 0
 202 306 l 0
 148 0 l 0
 60 0 l 0
 191 740 l 0
EndSplineSet
EndChar

StartChar: P
Encoding: 80 80 85
Width: 613
Flags: MW
TeX: 82 0
LayerCount: 2
Fore
SplineSet
283 662 m 1
 235 399 l 1
 385 399 l 2
 414 399 443 401 474 415 c 0
 521 437 551 480 559 527 c 0
 567 575 552 622 510 645 c 0
 482 660 453 662 422 662 c 2
 283 662 l 1
210 739 m 1
 436 739 l 2
 484 739 528 739 571 714 c 0
 634 678 658 606 645 531 c 0
 632 456 583 385 508 350 c 0
 459 327 415 327 369 327 c 2
 223 327 l 1
 166 0 l 1
 80 0 l 1
 210 739 l 1
EndSplineSet
EndChar

StartChar: question
Encoding: 63 63 86
Width: 613
Flags: MW
TeX: 116 0
LayerCount: 2
Fore
SplineSet
399 53 m 0
 392 16 356 -15 317 -15 c 0
 278 -15 252 16 259 53 c 0
 266 90 302 121 341 121 c 0
 380 121 406 90 399 53 c 0
203 666 m 0
 269 746 365 790 454 790 c 0
 588 790 648 691 628 580 c 0
 608 469 522 424 477 389 c 0
 420 346 411 310 404 268 c 0
 395 219 l 0
 317 219 l 0
 326 268 l 0
 335 321 345 363 408 421 c 0
 451 460 521 508 535 586 c 0
 547 656 503 712 432 712 c 0
 372 712 302 672 254 609 c 0
 203 666 l 0
EndSplineSet
EndChar

StartChar: at
Encoding: 64 64 87
Width: 613
Flags: MW
TeX: 99 0
LayerCount: 2
Fore
SplineSet
533 36 m 0
 477 4 416 -13 358 -13 c 0
 210 -13 64 98 113 373 c 0
 160 642 335 751 464 751 c 0
 550 751 622 704 645 620 c 0
 660 563 651 505 641 449 c 0
 599 208 l 0
 527 208 l 0
 535 253 l 0
 499 218 453 198 407 198 c 0
 322 198 265 266 280 352 c 0
 291 415 341 479 420 509 c 0
 470 527 518 527 563 527 c 0
 580 527 l 0
 596 615 539 687 450 687 c 0
 348 687 220 590 182 376 c 0
 141 145 261 54 376 54 c 0
 422 54 469 67 511 93 c 0
 533 36 l 0
573 468 m 0
 554 468 l 0
 512 468 462 468 417 440 c 0
 381 417 359 386 354 355 c 0
 345 304 380 263 432 263 c 0
 466 263 504 281 529 317 c 0
 551 350 560 389 567 431 c 0
 568 436 568 440 569 445 c 0
 573 468 l 0
EndSplineSet
EndChar

StartChar: bar
Encoding: 124 124 88
Width: 613
Flags: MW
TeX: 100 0
LayerCount: 2
Fore
SplineSet
404 774 m 0
 484 774 l 0
 316 -179 l 0
 236 -179 l 0
 404 774 l 0
EndSplineSet
EndChar

StartChar: asciitilde
Encoding: 126 126 89
Width: 613
Flags: MW
TeX: 99 0
LayerCount: 2
Fore
SplineSet
190 406 m 4
 138 444 l 4
 183 503 253 551 320 551 c 4
 418 551 433 462 501 462 c 4
 540 462 573 493 615 539 c 4
 661 494 l 4
 622 447 553 384 478 384 c 4
 382 384 374 479 302 479 c 4
 268 479 229 455 190 406 c 4
EndSplineSet
EndChar

StartChar: asciicircum
Encoding: 94 94 90
Width: 613
Flags: MW
TeX: 99 0
LayerCount: 2
Fore
SplineSet
198 435 m 0
 432 739 l 0
 458 739 l 0
 565 436 l 0
 497 407 l 0
 419 614 l 0
 252 407 l 0
 198 435 l 0
EndSplineSet
EndChar

StartChar: cent
Encoding: 162 162 91
Width: 613
Flags: MW
TeX: 101 0
LayerCount: 2
Fore
SplineSet
479 740 m 1
 557 732 l 1
 556 724 552 719 550 716 c 0
 546 711 544 707 541 699 c 2
 511 602 l 1
 573 589 615 554 636 510 c 1
 572 442 l 1
 567 446 568 452 568 454 c 0
 569 461 573 466 568 473 c 0
 556 491 530 517 489 530 c 1
 361 115 l 1
 362 115 l 2
 419 115 480 139 529 181 c 1
 561 124 l 1
 500 68 423 39 346 39 c 0
 343 39 341 39 338 39 c 1
 297 -93 l 1
 230 -85 l 1
 270 49 l 1
 159 81 101 186 125 323 c 0
 153 482 278 599 438 607 c 1
 479 740 l 1
294 128 m 1
 418 538 l 1
 319 532 232 458 210 334 c 0
 192 231 227 157 294 128 c 1
EndSplineSet
EndChar

StartChar: euro
Encoding: 8364 8364 92
Width: 613
Flags: MW
TeX: 80 0
LayerCount: 2
Fore
SplineSet
681 681 m 5
 637 600 l 5
 630 607 636 616 631 624 c 4
 630 625 595 677 515 677 c 4
 444 677 351 635 295 514 c 4
 292 508 289 501 285 492 c 5
 578 492 l 5
 540 423 l 5
 263 423 l 5
 258 403 253 380 248 353 c 4
 246 344 245 336 244 328 c 5
 488 328 l 5
 449 259 l 5
 239 259 l 5
 239 211 248 171 266 138 c 4
 298 81 354 58 409 58 c 4
 456 58 504 75 544 106 c 5
 567 47 l 5
 515 7 453 -13 391 -13 c 4
 295 -13 155 39 163 259 c 5
 95 259 l 5
 122 328 l 5
 170 328 l 5
 171 334 172 341 173 347 c 4
 178 373 183 398 190 423 c 5
 124 423 l 5
 151 492 l 5
 212 492 l 5
 228 534 249 573 275 608 c 4
 354 714 458 745 532 745 c 4
 595 745 647 723 681 681 c 5
EndSplineSet
EndChar

StartChar: sterling
Encoding: 163 163 93
Width: 613
Flags: MW
TeX: 118 0
LayerCount: 2
Fore
SplineSet
626 679 m 1
 562 613 l 1
 554 620 556 630 550 638 c 0
 546 644 518 672 468 672 c 0
 404 672 333 624 316 525 c 0
 312 500 311 475 312 449 c 1
 429 449 l 1
 417 381 l 1
 316 381 l 1
 318 344 319 306 312 265 c 0
 302 206 276 152 240 106 c 1
 251 108 261 109 272 109 c 0
 351 109 392 60 460 60 c 0
 493 60 525 72 553 93 c 1
 574 32 l 1
 544 11 493 -18 441 -18 c 0
 365 -18 325 35 239 35 c 0
 215 35 168 31 85 -9 c 1
 67 58 l 1
 127 84 142 90 166 119 c 0
 200 160 223 210 232 263 c 0
 239 304 238 343 235 381 c 1
 157 381 l 1
 169 449 l 1
 231 449 l 1
 230 474 231 498 236 524 c 0
 259 657 372 739 482 739 c 0
 539 739 590 718 626 679 c 1
EndSplineSet
EndChar

StartChar: Y
Encoding: 89 89 94
Width: 613
Flags: MW
TeX: 91 0
LayerCount: 2
Fore
SplineSet
175 740 m 0
 269 740 l 0
 387 381 l 0
 614 739 l 0
 702 739 l 0
 413 292 l 0
 361 0 l 0
 271 0 l 0
 323 292 l 0
 175 740 l 0
EndSplineSet
EndChar

StartChar: yen
Encoding: 165 165 95
Width: 613
Flags: MW
TeX: 124 0
LayerCount: 2
Fore
SplineSet
184 740 m 1
 276 740 l 1
 393 431 l 1
 606 739 l 1
 694 739 l 1
 418 350 l 1
 414 326 l 1
 574 326 l 1
 562 258 l 1
 402 258 l 1
 389 183 l 1
 548 183 l 1
 537 117 l 1
 377 117 l 1
 356 0 l 1
 275 0 l 1
 296 117 l 1
 130 117 l 1
 142 183 l 1
 308 183 l 1
 321 258 l 1
 155 258 l 1
 167 326 l 1
 333 326 l 1
 337 350 l 1
 184 740 l 1
EndSplineSet
EndChar

StartChar: Z
Encoding: 90 90 96
Width: 613
Flags: MW
TeX: 92 0
LayerCount: 2
Fore
SplineSet
214 739 m 0
 671 739 l 0
 660 681 l 0
 187 73 l 0
 536 73 l 0
 550 73 558 80 569 80 c 0
 570 80 572 80 573 80 c 0
 559 -1 l 0
 69 -1 l 0
 80 57 l 0
 560 665 l 0
 201 665 l 0
 214 739 l 0
EndSplineSet
EndChar

StartChar: Q
Encoding: 81 81 97
Width: 613
Flags: MW
TeX: 83 0
LayerCount: 2
Fore
SplineSet
426 672 m 0
 346 672 231 600 193 383 c 0
 152 149 238 66 324 66 c 0
 386 66 509 110 552 356 c 0
 563 418 571 491 557 554 c 0
 537 641 478 672 426 672 c 0
634 367 m 0
 622 301 601 210 548 131 c 0
 493 49 420 4 350 -8 c 1
 344 -49 346 -97 421 -97 c 0
 448 -97 480 -93 518 -91 c 1
 502 -172 l 1
 494 -172 487 -172 479 -172 c 0
 464 -172 449 -172 435 -172 c 0
 387 -172 352 -170 322 -154 c 0
 274 -128 264 -79 276 -13 c 0
 276 -11 277 -10 277 -8 c 1
 172 8 64 108 110 371 c 0
 161 662 332 748 443 748 c 0
 524 748 601 702 632 606 c 0
 657 527 646 437 634 367 c 0
EndSplineSet
EndChar

StartChar: thorn
Encoding: 254 254 98
Width: 613
Flags: MW
TeX: 119 0
LayerCount: 2
Fore
SplineSet
221 788 m 0
 315 788 l 0
 315 786 l 0
 312 772 303 768 300 750 c 0
 249 459 l 0
 296 518 367 554 437 554 c 0
 543 554 642 469 608 278 c 0
 573 79 440 -14 329 -14 c 0
 263 -14 208 19 182 72 c 0
 134 -198 l 0
 47 -198 l 0
 221 788 l 0
393 481 m 0
 338 481 282 451 253 402 c 0
 236 374 228 342 220 296 c 0
 206 217 198 173 207 136 c 0
 220 87 267 61 318 61 c 0
 369 61 486 89 516 259 c 0
 551 457 440 481 393 481 c 0
EndSplineSet
EndChar

StartChar: plusminus
Encoding: 177 177 100
Width: 613
Flags: MW
TeX: 115 0
LayerCount: 2
Fore
SplineSet
81 95 m 4
 570 95 l 4
 557 20 l 4
 68 20 l 4
 81 95 l 4
EndSplineSet
Refer: 28 43 N 1 0 0 1 11 61 2
EndChar

StartChar: R
Encoding: 82 82 101
Width: 613
Flags: MW
TeX: 84 0
LayerCount: 2
Fore
SplineSet
207 739 m 0
 425 739 l 0
 473 739 519 738 562 714 c 0
 624 679 648 611 635 537 c 0
 618 439 542 354 448 330 c 0
 561 0 l 0
 468 0 l 0
 362 327 l 0
 218 327 l 0
 161 0 l 0
 77 0 l 0
 207 739 l 0
277 662 m 0
 231 399 l 0
 375 399 l 0
 404 399 432 400 463 414 c 0
 510 436 541 480 549 527 c 0
 557 575 542 623 500 646 c 0
 473 661 443 662 412 662 c 0
 277 662 l 0
EndSplineSet
EndChar

StartChar: X
Encoding: 88 88 102
Width: 613
Flags: MW
TeX: 90 0
LayerCount: 2
Fore
SplineSet
590 740 m 1
 673 740 l 1
 422 379 l 1
 565 0 l 1
 472 0 l 1
 359 293 l 1
 150 0 l 1
 58 0 l 1
 327 377 l 1
 193 740 l 1
 282 740 l 1
 388 459 l 1
 590 740 l 1
EndSplineSet
EndChar

StartChar: six
Encoding: 54 54 103
Width: 613
Flags: MW
TeX: 118 0
LayerCount: 2
Fore
SplineSet
483 748 m 0
 542 748 598 723 633 680 c 0
 564 616 l 0
 554 624 558 636 552 643 c 0
 548 648 519 674 470 674 c 0
 417 674 289 641 240 388 c 0
 283 443 348 477 413 477 c 0
 517 477 600 390 573 236 c 0
 546 83 431 -12 318 -12 c 0
 252 -12 192 20 161 86 c 0
 127 158 135 250 150 337 c 0
 162 408 183 493 221 564 c 0
 289 693 395 748 483 748 c 0
392 404 m 0
 338 404 274 365 230 305 c 0
 227 296 226 287 224 278 c 0
 202 154 250 61 334 61 c 0
 397 61 471 115 491 230 c 0
 514 358 451 404 392 404 c 0
EndSplineSet
EndChar

StartChar: nine
Encoding: 57 57 104
Width: 613
Flags: MW
TeX: 113 0
LayerCount: 2
Fore
SplineSet
266 -12 m 0
 205 -12 150 12 114 55 c 0
 183 119 l 0
 194 111 188 98 197 90 c 0
 197 90 229 63 282 63 c 0
 335 63 401 90 446 165 c 0
 456 183 485 233 508 348 c 0
 464 298 402 268 341 268 c 0
 233 268 155 360 180 502 c 0
 205 645 319 746 435 746 c 0
 512 746 588 700 607 586 c 0
 616 536 612 472 596 379 c 0
 575 258 544 194 526 160 c 0
 460 42 356 -12 266 -12 c 0
362 341 m 0
 415 341 475 376 518 431 c 0
 521 443 525 456 527 467 c 0
 550 595 497 673 420 673 c 0
 352 673 280 613 261 505 c 0
 242 395 296 341 362 341 c 0
EndSplineSet
EndChar

StartChar: seven
Encoding: 55 55 105
Width: 613
Flags: MW
TeX: 118 0
LayerCount: 2
Fore
SplineSet
234 739 m 0
 653 739 l 0
 644 693 l 0
 574 579 507 463 443 346 c 0
 380 232 321 116 264 0 c 0
 171 0 l 0
 238 133 309 264 382 395 c 0
 432 484 483 572 536 660 c 0
 220 660 l 0
 234 739 l 0
EndSplineSet
EndChar

StartChar: W
Encoding: 87 87 106
Width: 613
Flags: MW
TeX: 89 0
LayerCount: 2
Fore
SplineSet
161 739 m 0
 238 739 l 0
 230 240 l 0
 427 685 l 0
 453 685 l 0
 493 238 l 0
 650 739 l 0
 719 739 l 0
 471 -5 l 0
 438 -5 l 0
 398 483 l 0
 182 -5 l 0
 149 -5 l 0
 161 739 l 0
EndSplineSet
EndChar

StartChar: acute
Encoding: 180 180 107
Width: 613
Flags: MW
TeX: 80 0
LayerCount: 2
Fore
SplineSet
503 829 m 4
 569 779 l 4
 421 620 l 4
 367 655 l 4
 503 829 l 4
EndSplineSet
EndChar

StartChar: oslash
Encoding: 248 248 123
Width: 613
Flags: MW
TeX: 114 0
LayerCount: 2
Fore
SplineSet
394 481 m 0
 311 481 220 407 197 274 c 0
 187 215 193 166 211 130 c 1
 453 467 l 1
 435 477 415 481 394 481 c 0
604 269 m 0
 572 89 438 -14 310 -14 c 0
 271 -14 235 -5 205 12 c 1
 141 -76 l 1
 85 -44 l 1
 155 53 l 1
 111 103 89 178 105 267 c 0
 135 434 275 554 413 554 c 0
 445 554 475 547 502 534 c 1
 560 615 l 1
 618 582 l 1
 555 495 l 1
 599 447 622 372 604 269 c 0
500 420 m 1
 254 80 l 1
 274 66 297 59 323 59 c 0
 402 59 493 129 517 265 c 0
 529 333 520 385 500 420 c 1
EndSplineSet
EndChar

StartChar: uni02CB
Encoding: 715 715 130
Width: 613
Flags: MW
TeX: 80 0
LayerCount: 2
Fore
SplineSet
445 829 m 0
 519 655 l 0
 453 620 l 0
 362 779 l 0
 445 829 l 0
EndSplineSet
EndChar

StartChar: dotlessi
Encoding: 305 305 136
Width: 613
Flags: MW
TeX: 80 0
LayerCount: 2
Fore
SplineSet
220 473 m 1
 232 543 l 1
 449 543 l 1
 382 164 l 1
 376 123 371 75 418 75 c 0
 444 75 465 79 495 81 c 1
 479 0 l 1
 473 0 466 0 460 0 c 0
 448 0 435 0 424 0 c 0
 386 0 350 2 327 18 c 0
 290 44 283 93 295 159 c 0
 295 161 296 162 296 164 c 2
 351 473 l 1
 220 473 l 1
EndSplineSet
EndChar

StartChar: circumflex
Encoding: 710 710 137
Width: 613
Flags: MW
TeX: 80 0
LayerCount: 2
Fore
SplineSet
283 646 m 0
 444 813 l 0
 470 813 l 0
 571 645 l 0
 509 604 l 0
 438 726 l 0
 321 605 l 0
 283 646 l 0
EndSplineSet
EndChar

StartChar: tilde
Encoding: 732 732 138
Width: 613
Flags: MW
TeX: 80 0
LayerCount: 2
Fore
SplineSet
288 662 m 0
 241 699 l 0
 297 768 347 802 393 802 c 0
 441 802 467 767 479 751 c 0
 495 731 510 714 532 714 c 0
 561 714 580 741 612 776 c 0
 648 729 l 0
 598 678 560 645 516 645 c 0
 447 645 430 735 378 735 c 0
 347 735 325 708 288 662 c 0
EndSplineSet
EndChar

StartChar: dieresis
Encoding: 168 168 139
Width: 613
Flags: MW
TeX: 80 0
LayerCount: 2
Fore
SplineSet
392 729 m 0
 386 696 354 669 321 669 c 0
 288 669 266 696 272 729 c 0
 278 762 309 788 342 788 c 0
 375 788 398 762 392 729 c 0
603 729 m 0
 597 696 566 669 533 669 c 0
 500 669 478 696 484 729 c 0
 490 762 521 789 554 789 c 0
 587 789 609 762 603 729 c 0
EndSplineSet
EndChar

StartChar: germandbls
Encoding: 223 223 144
Width: 613
Flags: MW
TeX: 105 0
LayerCount: 2
Fore
SplineSet
76 0 m 4
 164 502 l 4
 174 556 184 610 218 665 c 4
 269 748 353 794 434 794 c 4
 552 794 632 698 612 585 c 4
 600 517 554 456 490 426 c 4
 574 398 616 313 599 214 c 4
 576 85 463 -12 341 -12 c 4
 297 -12 257 1 224 25 c 4
 278 91 l 4
 298 73 324 63 353 63 c 4
 429 63 505 128 520 214 c 4
 531 276 508 331 468 359 c 4
 438 380 407 383 368 383 c 4
 332 383 l 4
 344 451 l 4
 377 451 l 4
 395 451 413 451 434 460 c 4
 482 480 522 531 532 587 c 4
 546 665 498 725 427 725 c 4
 388 725 344 706 309 666 c 4
 267 617 255 556 246 504 c 4
 157 0 l 4
 76 0 l 4
EndSplineSet
EndChar

StartChar: paragraph
Encoding: 182 182 145
Width: 613
Flags: MW
TeX: 115 0
LayerCount: 2
Fore
SplineSet
667 790 m 0
 513 -81 l 0
 444 -81 l 0
 586 722 l 0
 496 722 l 0
 354 -81 l 0
 284 -81 l 0
 365 382 l 0
 246 390 171 481 190 588 c 0
 203 661 258 731 343 765 c 0
 404 790 463 790 518 790 c 0
 667 790 l 0
EndSplineSet
EndChar

StartChar: section
Encoding: 167 167 146
Width: 613
Flags: MW
TeX: 118 0
LayerCount: 2
Fore
SplineSet
622 692 m 1
 545 633 l 1
 537 640 542 649 540 657 c 0
 535 684 507 727 444 727 c 0
 381 727 329 685 320 636 c 0
 316 612 320 575 367 548 c 0
 398 530 441 520 485 497 c 0
 561 457 578 405 570 362 c 0
 561 312 517 269 462 248 c 1
 508 213 523 160 514 110 c 0
 498 18 401 -65 281 -65 c 0
 202 -65 132 -28 94 37 c 1
 169 110 l 1
 178 106 174 96 175 89 c 0
 177 80 206 14 295 14 c 0
 368 14 420 59 429 108 c 0
 434 136 425 168 389 192 c 0
 345 221 278 225 225 260 c 0
 178 291 163 334 170 375 c 0
 179 429 228 474 288 494 c 1
 238 529 225 581 233 628 c 0
 249 718 345 797 456 797 c 0
 534 797 597 756 622 692 c 1
328 473 m 1
 295 463 267 433 261 399 c 0
 256 373 263 336 309 311 c 0
 342 293 382 288 422 271 c 1
 450 284 472 311 477 342 c 0
 482 369 475 408 425 435 c 0
 397 450 362 458 328 473 c 1
EndSplineSet
EndChar

StartChar: copyright
Encoding: 169 169 147
Width: 613
Flags: MW
TeX: 101 0
LayerCount: 2
Fore
SplineSet
410 503 m 0
 485 503 534 456 538 393 c 0
 473 370 l 0
 468 378 473 386 472 394 c 0
 471 403 461 444 402 444 c 0
 346 444 285 409 272 335 c 0
 259 263 299 207 361 207 c 0
 398 207 437 227 460 260 c 0
 506 225 l 0
 464 175 403 144 345 144 c 0
 248 144 187 228 204 327 c 0
 222 428 314 503 410 503 c 0
318 22 m 0
 161 22 54 156 84 325 c 0
 114 495 268 629 425 629 c 0
 582 629 689 495 659 326 c 0
 629 156 475 22 318 22 c 0
138 325 m 0
 113 184 200 74 328 74 c 0
 455 74 582 184 607 326 c 0
 632 468 546 579 418 579 c 0
 290 579 163 468 138 325 c 0
EndSplineSet
EndChar

StartChar: registered
Encoding: 174 174 148
Width: 613
Flags: MW
TeX: 117 0
LayerCount: 2
Fore
SplineSet
317 23 m 0
 160 23 54 156 84 325 c 0
 114 495 267 629 425 629 c 0
 582 629 689 496 659 326 c 0
 629 156 474 23 317 23 c 0
138 326 m 0
 113 185 200 74 328 74 c 0
 455 74 582 185 607 327 c 0
 632 468 545 579 417 579 c 0
 289 579 163 468 138 326 c 0
222 158 m 0
 283 504 l 0
 395 504 l 0
 422 504 449 504 475 493 c 0
 512 476 527 439 521 403 c 0
 514 361 478 323 435 312 c 0
 486 164 l 0
 428 156 l 0
 380 304 l 0
 302 304 l 0
 277 158 l 0
 222 158 l 0
329 456 m 0
 311 351 l 0
 372 351 l 0
 391 351 415 352 436 364 c 0
 454 373 463 388 466 403 c 0
 469 418 464 435 447 445 c 0
 430 455 407 456 388 456 c 0
 329 456 l 0
EndSplineSet
EndChar

StartChar: uni00B9
Encoding: 185 185 149
Width: 613
Flags: MW
TeX: 120 0
LayerCount: 2
Fore
SplineSet
497 751 m 0
 417 300 l 0
 342 300 l 0
 405 656 l 0
 285 627 l 0
 272 664 l 0
 446 751 l 0
 497 751 l 0
EndSplineSet
EndChar

StartChar: guilsinglleft
Encoding: 8249 8249 150
Width: 613
Flags: MW
TeX: 80 0
LayerCount: 2
Fore
SplineSet
235 300 m 0
 446 475 l 0
 484 426 l 0
 316 286 l 0
 438 120 l 0
 382 73 l 0
 230 272 l 0
 235 300 l 0
EndSplineSet
EndChar

StartChar: guilsinglright
Encoding: 8250 8250 152
Width: 613
Flags: MW
TeX: 80 0
LayerCount: 2
Fore
SplineSet
470 300 m 0
 465 272 l 0
 242 73 l 0
 203 120 l 0
 384 286 l 0
 266 426 l 0
 320 475 l 0
 470 300 l 0
EndSplineSet
EndChar

StartChar: guillemotright
Encoding: 187 187 153
Width: 613
Flags: MW
TeX: 105 0
LayerCount: 2
Fore
SplineSet
378 300 m 0
 373 272 l 0
 150 73 l 0
 111 120 l 0
 292 286 l 0
 173 426 l 0
 228 475 l 0
 378 300 l 0
593 300 m 0
 588 272 l 0
 365 73 l 0
 326 120 l 0
 507 286 l 0
 388 426 l 0
 443 475 l 0
 593 300 l 0
EndSplineSet
EndChar

StartChar: logicalnot
Encoding: 172 172 154
Width: 613
Flags: MW
TeX: 111 0
LayerCount: 2
Fore
SplineSet
191 412 m 0
 574 412 l 0
 535 186 l 0
 459 186 l 0
 485 337 l 0
 178 337 l 0
 191 412 l 0
EndSplineSet
EndChar

StartChar: degree
Encoding: 176 176 156
Width: 613
Flags: MW
TeX: 102 0
LayerCount: 2
Fore
SplineSet
580 598 m 0
 565 510 480 439 391 439 c 0
 302 439 244 511 259 599 c 0
 274 687 358 758 447 758 c 0
 536 758 595 686 580 598 c 0
438 695 m 0
 390 695 341 654 332 600 c 0
 323 547 356 505 404 505 c 0
 452 505 500 546 509 600 c 0
 518 653 486 695 438 695 c 0
EndSplineSet
EndChar

StartChar: uni00B2
Encoding: 178 178 157
Width: 613
Flags: MW
TeX: 120 0
LayerCount: 2
Fore
SplineSet
258 657 m 0
 305 719 378 756 450 756 c 0
 544 756 598 695 585 623 c 0
 575 567 530 529 510 513 c 0
 455 470 384 439 305 365 c 0
 521 365 l 0
 526 365 529 365 535 369 c 0
 538 371 544 378 551 375 c 0
 538 300 l 0
 207 300 l 0
 216 352 l 0
 298 443 395 501 436 530 c 0
 475 558 507 587 513 623 c 0
 520 661 494 695 437 695 c 0
 391 695 349 671 323 645 c 0
 315 637 315 632 307 621 c 0
 258 657 l 0
EndSplineSet
EndChar

StartChar: eth
Encoding: 240 240 158
Width: 613
Flags: MW
TeX: 103 0
LayerCount: 2
Fore
SplineSet
397 481 m 0
 317 481 222 416 197 276 c 0
 173 138 239 59 324 59 c 0
 391 59 490 110 519 275 c 0
 548 440 459 481 397 481 c 0
541 677 m 1
 599 595 640 473 609 300 c 0
 598 236 578 161 528 97 c 0
 472 25 391 -14 312 -14 c 0
 175 -14 76 101 105 264 c 0
 134 427 271 554 403 554 c 0
 458 554 505 532 534 493 c 1
 521 554 496 608 461 655 c 1
 303 612 l 1
 291 669 l 1
 420 702 l 1
 389 732 353 758 312 778 c 1
 412 798 l 1
 439 781 472 757 503 724 c 1
 637 759 l 1
 648 706 l 1
 541 677 l 1
EndSplineSet
EndChar

StartChar: Eth
Encoding: 208 208 159
Width: 613
Flags: MW
TeX: 71 0
LayerCount: 2
Fore
SplineSet
234 739 m 1
 400 739 l 2
 465 739 514 733 559 695 c 0
 637 629 651 500 629 374 c 0
 601 216 516 75 393 22 c 0
 348 3 307 -1 255 -1 c 2
 103 -1 l 1
 166 357 l 1
 109 357 l 1
 121 426 l 1
 179 426 l 1
 234 739 l 1
243 357 m 1
 192 68 l 1
 263 68 l 2
 305 68 345 69 392 98 c 0
 471 146 526 247 547 364 c 0
 562 447 560 538 526 599 c 0
 488 668 428 670 382 670 c 2
 298 670 l 1
 255 426 l 1
 379 426 l 1
 367 357 l 1
 243 357 l 1
EndSplineSet
EndChar

StartChar: Thorn
Encoding: 222 222 160
Width: 613
Flags: MW
TeX: 86 0
LayerCount: 2
Fore
SplineSet
210 739 m 0
 303 739 l 0
 303 737 303 736 303 734 c 0
 302 727 297 723 294 719 c 0
 290 714 289 711 288 707 c 0
 270 600 l 0
 411 600 l 0
 459 600 504 599 546 575 c 0
 609 539 633 467 620 392 c 0
 607 317 558 246 484 211 c 0
 435 188 390 187 344 187 c 0
 197 187 l 0
 164 0 l 0
 80 0 l 0
 210 739 l 0
256 522 m 0
 210 260 l 0
 360 260 l 0
 389 260 418 261 449 275 c 0
 496 297 526 341 534 388 c 0
 542 436 527 483 485 506 c 0
 458 521 428 522 397 522 c 0
 256 522 l 0
EndSplineSet
EndChar

StartChar: ring
Encoding: 730 730 161
Width: 613
Flags: MW
TeX: 80 0
LayerCount: 2
Fore
SplineSet
549 718 m 0
 539 661 483 613 422 613 c 0
 362 613 322 661 332 718 c 0
 342 775 399 822 459 822 c 0
 520 822 559 775 549 718 c 0
393 719 m 0
 388 689 406 664 433 664 c 0
 460 664 486 688 491 719 c 0
 496 749 479 773 452 773 c 0
 425 773 398 750 393 719 c 0
EndSplineSet
EndChar

StartChar: circumflex.cap
Encoding: 65536 -1 190
Width: 613
Flags: MW
TeX: 80 0
LayerCount: 2
Fore
SplineSet
264 675 m 0
 441 793 l 0
 466 793 l 0
 592 677 l 0
 546 632 l 0
 438 716 l 0
 291 635 l 0
 264 675 l 0
EndSplineSet
EndChar

StartChar: ae
Encoding: 230 230 192
Width: 613
Flags: MW
TeX: 99 0
LayerCount: 2
Fore
SplineSet
48 146 m 0
 59 207 104 273 185 307 c 0
 232 326 275 329 304 330 c 2
 331 331 l 1
 336 361 l 2
 340 383 343 404 339 423 c 0
 332 463 302 487 264 487 c 0
 231 487 193 468 166 436 c 1
 133 488 l 1
 174 530 230 554 282 554 c 0
 338 554 382 527 400 483 c 1
 435 527 488 554 541 554 c 0
 626 554 671 483 655 394 c 0
 644 333 633 301 563 281 c 0
 515 267 450 265 421 264 c 2
 391 263 l 1
 382 208 l 2
 377 179 373 156 380 130 c 0
 392 84 432 56 478 56 c 0
 513 56 548 71 573 99 c 1
 606 50 l 1
 565 10 511 -13 459 -13 c 0
 399 -13 348 18 324 69 c 1
 290 19 233 -13 176 -13 c 0
 91 -13 32 57 48 146 c 0
125 152 m 0
 116 101 149 59 197 59 c 0
 230 59 265 78 285 115 c 0
 294 132 299 150 303 173 c 0
 305 185 307 200 310 215 c 2
 318 260 l 1
 292 259 l 2
 261 258 230 257 197 242 c 0
 156 223 131 186 125 152 c 0
403 331 m 1
 429 332 l 2
 510 336 518 336 540 342 c 0
 556 347 588 365 592 389 c 0
 602 440 568 481 520 481 c 0
 487 481 451 463 431 426 c 0
 422 409 415 391 411 368 c 0
 409 356 406 346 403 331 c 1
EndSplineSet
EndChar

StartChar: oe
Encoding: 339 339 193
Width: 613
Flags: MW
TeX: 114 0
LayerCount: 2
Fore
SplineSet
65 83 m 0
 47 142 56 219 67 281 c 0
 77 335 92 400 131 455 c 0
 178 522 243 553 299 553 c 0
 343 553 381 534 400 499 c 0
 436 534 484 553 530 553 c 0
 585 553 641 525 655 451 c 0
 658 435 657 406 655 394 c 0
 642 333 623 300 574 283 c 0
 526 266 480 262 451 262 c 2
 368 262 l 0
 356 187 353 152 361 123 c 0
 373 75 413 55 457 55 c 0
 492 55 536 66 573 101 c 0
 606 50 l 0
 559 9 500 -14 443 -14 c 0
 394 -14 348 3 316 35 c 0
 279 5 233 -13 190 -13 c 0
 143 -13 88 10 65 83 c 0
132 146 m 0
 140 81 178 59 213 59 c 0
 243 59 277 75 282 105 c 0
 285 120 279 178 297 281 c 0
 313 369 331 413 334 430 c 0
 339 461 318 481 286 481 c 0
 252 481 211 458 183 413 c 0
 156 372 147 326 141 292 c 0
 134 252 125 193 132 146 c 0
381 330 m 1
 462 334 508 335 530 341 c 0
 546 346 583 368 587 392 c 0
 597 443 557 488 509 488 c 0
 478 488 437 473 410 424 c 0
 407 417 391 389 382 337 c 0
 382 335 381 332 381 330 c 1
EndSplineSet
EndChar

StartChar: acute.cap
Encoding: 65538 -1 194
Width: 613
Flags: MW
TeX: 80 0
LayerCount: 2
Fore
SplineSet
537 798 m 0
 569 715 l 0
 356 642 l 0
 337 691 l 0
 537 798 l 0
EndSplineSet
EndChar

StartChar: grave.cap
Encoding: 65539 -1 195
Width: 613
Flags: MW
TeX: 80 0
LayerCount: 2
Fore
SplineSet
397 798 m 0
 559 691 l 0
 523 642 l 0
 335 715 l 0
 397 798 l 0
EndSplineSet
EndChar

StartChar: ordfeminine
Encoding: 170 170 196
Width: 613
Flags: MW
TeX: 114 0
LayerCount: 2
Fore
SplineSet
274 672 m 0
 326 721 390 738 446 738 c 0
 511 738 560 712 575 660 c 0
 583 633 579 606 574 575 c 0
 528 316 l 0
 453 316 l 0
 460 356 l 0
 419 323 370 305 324 305 c 0
 242 305 195 363 207 429 c 0
 214 468 243 512 297 539 c 0
 345 563 397 564 447 564 c 0
 458 564 468 564 478 564 c 0
 496 564 l 0
 498 579 l 0
 502 599 506 620 496 640 c 0
 486 660 464 675 427 675 c 0
 385 675 339 660 306 623 c 0
 274 672 l 0
488 503 m 0
 469 503 l 0
 455 503 440 503 424 503 c 0
 404 503 385 503 367 500 c 0
 313 491 289 458 284 432 c 0
 278 399 302 370 348 370 c 0
 384 370 420 388 444 407 c 0
 474 431 479 454 484 482 c 0
 488 503 l 0
144 245 m 0
 558 245 l 0
 547 180 l 0
 132 180 l 0
 144 245 l 0
EndSplineSet
EndChar

StartChar: ordmasculine
Encoding: 186 186 197
Width: 613
Flags: MW
TeX: 114 0
LayerCount: 2
Fore
SplineSet
439 738 m 0
 524 738 599 669 574 527 c 0
 547 373 442 304 355 304 c 0
 261 304 191 384 214 513 c 0
 238 649 340 738 439 738 c 0
287 518 m 0
 269 419 316 373 369 373 c 0
 420 373 484 416 502 518 c 0
 520 620 477 672 422 672 c 0
 368 672 305 620 287 518 c 0
144 245 m 0
 558 245 l 0
 547 180 l 0
 132 180 l 0
 144 245 l 0
EndSplineSet
EndChar

StartChar: uni02C9
Encoding: 713 713 198
Width: 613
Flags: MW
TeX: 80 0
LayerCount: 2
Fore
SplineSet
287 737 m 0
 588 737 l 0
 576 671 l 0
 275 671 l 0
 287 737 l 0
EndSplineSet
EndChar

StartChar: cedilla
Encoding: 184 184 201
Width: 613
Flags: MW
TeX: 80 0
LayerCount: 2
Fore
SplineSet
321 0 m 0
 372 0 l 0
 356 -56 l 0
 375 -57 l 0
 390 -58 405 -60 419 -67 c 0
 440 -78 448 -98 444 -122 c 0
 437 -164 387 -210 300 -210 c 0
 255 -210 206 -197 167 -166 c 0
 206 -117 l 0
 238 -147 280 -159 316 -159 c 0
 362 -159 373 -140 375 -130 c 0
 376 -123 374 -115 366 -110 c 0
 355 -102 337 -101 324 -101 c 0
 289 -101 l 0
 321 0 l 0
EndSplineSet
EndChar

StartChar: uni00B3
Encoding: 179 179 204
Width: 613
Flags: MW
TeX: 120 0
LayerCount: 2
Fore
SplineSet
449 757 m 4
 537 757 594 697 582 629 c 4
 574 586 541 550 499 537 c 4
 548 528 577 485 568 435 c 4
 554 357 460 298 365 298 c 4
 300 298 243 326 209 375 c 4
 276 436 l 4
 284 425 277 414 286 403 c 4
 291 397 322 365 378 365 c 4
 436 365 489 399 496 441 c 4
 500 463 494 507 403 507 c 4
 391 507 380 506 368 505 c 4
 378 564 l 4
 386 563 393 563 401 563 c 4
 479 563 506 597 511 624 c 4
 517 660 488 694 435 694 c 4
 395 694 349 675 314 639 c 4
 279 683 l 4
 327 730 389 757 449 757 c 4
EndSplineSet
EndChar

StartChar: divide
Encoding: 247 247 205
Width: 613
Flags: MW
TeX: 102 0
LayerCount: 2
Fore
SplineSet
167 413 m 0
 594 413 l 0
 580 334 l 0
 153 334 l 0
 167 413 l 0
464 554 m 0
 459 525 431 501 402 501 c 0
 373 501 353 525 358 554 c 0
 363 583 391 607 420 607 c 0
 449 607 469 583 464 554 c 0
400 188 m 0
 395 159 366 135 337 135 c 0
 308 135 288 159 293 188 c 0
 298 217 327 242 356 242 c 0
 385 242 405 217 400 188 c 0
EndSplineSet
EndChar

StartChar: Oslash
Encoding: 216 216 206
Width: 613
Flags: MW
TeX: 81 0
LayerCount: 2
Fore
SplineSet
426 670 m 0
 348 670 233 602 194 382 c 0
 178 289 182 221 198 172 c 1
 520 627 l 1
 494 657 459 670 426 670 c 0
634 368 m 0
 623 303 602 211 549 132 c 0
 483 34 390 -11 310 -11 c 0
 266 -11 219 3 180 36 c 1
 102 -75 l 1
 46 -43 l 1
 138 87 l 1
 103 147 87 238 110 371 c 0
 161 662 333 748 443 748 c 0
 490 748 536 733 572 701 c 1
 644 803 l 1
 702 769 l 1
 615 647 l 1
 621 635 626 622 631 608 c 0
 657 529 646 437 634 368 c 0
553 560 m 1
 233 110 l 1
 259 82 292 70 324 70 c 0
 374 70 436 98 483 170 c 0
 525 234 540 309 549 357 c 0
 560 420 569 491 555 553 c 2
 553 560 l 1
EndSplineSet
EndChar

StartChar: multiply
Encoding: 215 215 207
Width: 613
Flags: MW
TeX: 112 0
LayerCount: 2
Fore
SplineSet
569 597 m 1
 616 545 l 1
 434 386 l 1
 557 226 l 1
 492 172 l 1
 370 330 l 1
 195 177 l 1
 151 229 l 1
 328 385 l 1
 206 543 l 1
 272 597 l 1
 392 441 l 1
 569 597 l 1
EndSplineSet
EndChar

StartChar: AE
Encoding: 198 198 208
Width: 613
Flags: MW
TeX: 67 0
LayerCount: 2
Fore
SplineSet
378 740 m 0
 715 740 l 0
 702 667 l 0
 496 667 l 0
 456 424 l 0
 629 424 l 0
 615 348 l 0
 443 348 l 0
 397 74 l 0
 595 74 l 0
 582 0 l 0
 309 0 l 0
 345 201 l 0
 190 201 l 0
 91 0 l 0
 15 0 l 0
 378 740 l 0
427 667 m 0
 413 667 l 0
 220 269 l 0
 357 269 l 0
 427 667 l 0
EndSplineSet
EndChar

StartChar: OE
Encoding: 338 338 209
Width: 613
Flags: MW
TeX: 81 0
LayerCount: 2
Fore
SplineSet
435 707 m 0
 441 740 l 0
 715 740 l 0
 702 667 l 0
 502 667 l 0
 459 424 l 0
 629 424 l 0
 615 348 l 0
 445 348 l 0
 397 74 l 0
 595 74 l 0
 582 0 l 0
 309 0 l 0
 316 37 l 0
 287 8 249 -8 211 -8 c 0
 153 -8 87 31 73 142 c 0
 71 156 62 232 87 371 c 0
 105 470 128 556 173 631 c 0
 228 722 297 750 345 750 c 0
 382 750 414 735 435 707 c 0
165 385 m 0
 159 351 137 227 156 146 c 0
 171 80 207 65 234 65 c 0
 276 65 316 102 336 154 c 0
 411 575 l 0
 406 615 386 681 333 681 c 0
 298 681 257 652 224 587 c 0
 212 565 187 510 165 385 c 0
EndSplineSet
EndChar

StartChar: currency
Encoding: 164 164 210
Width: 613
Flags: MW
TeX: 80 0
LayerCount: 2
Fore
SplineSet
401 528 m 0
 335 528 273 476 261 410 c 0
 249 344 294 291 360 291 c 0
 426 291 487 344 499 410 c 0
 511 476 467 528 401 528 c 0
194 584 m 1
 243 626 l 1
 298 559 l 1
 333 581 373 594 413 594 c 0
 452 594 486 582 513 560 c 1
 591 626 l 1
 625 584 l 1
 548 518 l 1
 565 487 572 450 565 410 c 0
 558 370 538 332 511 302 c 1
 564 237 l 1
 515 195 l 1
 461 260 l 1
 427 237 388 225 348 225 c 0
 307 225 273 238 246 261 c 1
 167 195 l 1
 133 237 l 1
 211 303 l 1
 195 333 189 370 196 410 c 0
 203 450 222 486 249 516 c 1
 194 584 l 1
EndSplineSet
EndChar

StartChar: brokenbar
Encoding: 166 166 211
Width: 613
Flags: MW
TeX: 80 0
LayerCount: 2
Fore
SplineSet
404 774 m 0
 484 774 l 0
 409 350 l 0
 329 350 l 0
 404 774 l 0
316 -179 m 0
 236 -179 l 0
 308 232 l 0
 388 232 l 0
 316 -179 l 0
EndSplineSet
EndChar

StartChar: ogonek
Encoding: 731 731 214
Width: 613
Flags: MW
TeX: 80 0
LayerCount: 2
Fore
SplineSet
432 0 m 0
 511 0 l 0
 465 -36 430 -69 418 -80 c 0
 408 -89 393 -103 390 -121 c 0
 387 -139 397 -154 419 -154 c 0
 426 -154 436 -153 449 -148 c 0
 469 -141 482 -133 491 -127 c 0
 481 -181 l 0
 454 -201 423 -209 394 -209 c 0
 333 -209 307 -176 314 -136 c 0
 321 -98 362 -51 432 0 c 0
EndSplineSet
EndChar

StartChar: dotaccent
Encoding: 729 729 222
Width: 613
Flags: MW
TeX: 80 0
LayerCount: 2
Fore
SplineSet
450 778 m 0
 484 778 506 751 500 717 c 0
 494 683 462 656 428 656 c 0
 394 656 371 683 377 717 c 0
 383 751 416 778 450 778 c 0
EndSplineSet
EndChar

StartChar: breve
Encoding: 728 728 241
Width: 613
Flags: MW
LayerCount: 2
Fore
SplineSet
308 767 m 0
 328 724 368 683 427 683 c 0
 476 683 533 714 583 766 c 0
 608 717 l 0
 558 663 488 622 416 622 c 0
 351 622 293 656 256 713 c 0
 308 767 l 0
EndSplineSet
EndChar

StartChar: eng
Encoding: 331 331 242
Width: 613
Flags: MW
LayerCount: 2
Fore
SplineSet
91 0 m 0
 158 381 l 2
 172 458 165 516 152 542 c 1
 252 554 l 1
 254 548 262 514 255 444 c 1
 305 504 382 555 456 555 c 0
 518 555 568 520 584 459 c 0
 596 415 587 371 580 329 c 0
 534 67 l 0
 525 18 516 -33 487 -83 c 0
 440 -164 360 -209 285 -209 c 0
 243 -209 205 -195 176 -169 c 0
 231 -89 l 0
 239 -91 237 -99 239 -104 c 0
 241 -108 264 -129 301 -129 c 0
 334 -129 371 -114 399 -79 c 0
 432 -39 441 11 448 53 c 0
 496 327 l 0
 503 365 510 412 487 447 c 0
 472 470 447 481 420 481 c 0
 363 481 303 433 277 405 c 0
 249 375 239 349 233 312 c 0
 178 0 l 0
 91 0 l 0
EndSplineSet
EndChar

StartChar: dcaron
Encoding: 271 271 245
Width: 613
Flags: MW
LayerCount: 2
Fore
SplineSet
60 276 m 0
 99 500 318 543 371 543 c 8
 410 543 469 521 469 521 c 1
 516 790 l 1
 607 790 l 1
 606 782 601 776 598 772 c 0
 593 765 591 762 590 756 c 0
 568 629 508 288 486 161 c 1
 486 161 l 1
 468 61 506 0 506 0 c 1
 399 -5 l 1
 399 -5 396 38 398 98 c 1
 353 39 271 -12 203 -12 c 0
 98 -12 25 76 60 276 c 0
145 290 m 0
 114 111 175 63 236 63 c 0
 293 63 356 101 388 166 c 0
 402 193 417 224 424 265 c 2
 458 458 l 1
 458 458 399 479 360 479 c 16
 303 479 172 444 145 290 c 0
EndSplineSet
Refer: 56 8217 N 0.8 0 0 0.8 348 191 2
EndChar

StartChar: eogonek
Encoding: 281 281 246
Width: 613
Flags: MW
LayerCount: 2
Fore
SplineSet
114 265 m 0
 149 463 286 555 395 555 c 0
 504 555 533 539 560 515 c 0
 592 486 605 444 597 400 c 0
 586 340 542 306 451 274 c 0
 382 250 305 250 230 250 c 0
 224 250 218 250 212 250 c 2
 197 250 l 1
 186 88 277 56 345 56 c 0
 399 56 484 78 527 118 c 1
 566 72 l 1
 514 19 l 2
 464 -32 424 -69 418 -104 c 0
 413 -131 430 -151 457 -151 c 0
 463 -151 483 -150 521 -128 c 1
 510 -186 l 1
 486 -198 456 -208 428 -208 c 0
 369 -208 336 -168 345 -119 c 0
 351 -86 391 -36 437 4 c 1
 399 -7 360 -12 326 -12 c 0
 180 -12 82 84 114 265 c 0
209 315 m 1
 223 315 l 2
 243 315 264 315 286 315 c 0
 327 315 369 317 402 324 c 0
 472 340 503 355 510 395 c 0
 518 443 486 489 413 489 c 0
 340 489 232 444 209 315 c 1
EndSplineSet
EndChar

StartChar: dotlessj
Encoding: 567 567 259
Width: 613
Flags: MW
LayerCount: 2
Fore
SplineSet
255 543 m 0
 543 543 l 0
 454 38 l 0
 446 -9 437 -54 406 -99 c 0
 357 -171 274 -207 197 -207 c 0
 130 -207 74 -179 44 -131 c 0
 113 -57 l 0
 119 -63 116 -71 119 -79 c 0
 122 -86 149 -133 215 -133 c 0
 261 -133 308 -109 336 -65 c 0
 354 -36 360 -7 365 22 c 0
 445 472 l 0
 243 472 l 0
 255 543 l 0
EndSplineSet
EndChar

StartChar: kgreenlandic
Encoding: 312 312 260
Width: 613
Flags: MW
LayerCount: 2
Fore
SplineSet
89 -1 m 1
 156 380 l 2
 170 457 163 515 150 541 c 1
 250 553 l 1
 252 547 261 491 250 425 c 0
 227 293 l 0
 543 545 l 0
 563 540 584 539 605 539 c 0
 636 539 l 0
 369 324 l 0
 578 -1 l 0
 575 -1 573 -1 570 -1 c 0
 513 -1 467 -5 467 -5 c 0
 295 271 l 0
 211 205 l 0
 175 -1 l 0
 89 -1 l 1
EndSplineSet
EndChar

StartChar: uparrow
Encoding: 8593 8593 266
Width: 613
Flags: MW
LayerCount: 2
Fore
SplineSet
164 479 m 1
 436 760 l 1
 462 760 l 1
 618 477 l 1
 551 437 l 1
 455 608 l 1
 341 -40 l 1
 262 -40 l 1
 377 609 l 1
 208 437 l 1
 164 479 l 1
EndSplineSet
EndChar

StartChar: visiblespace
Encoding: 9251 9251 268
Width: 613
Flags: MW
LayerCount: 2
Fore
SplineSet
82 83 m 0
 138 83 l 0
 119 -25 l 0
 485 -25 l 0
 504 83 l 0
 561 83 l 0
 533 -78 l 0
 54 -78 l 0
 82 83 l 0
EndSplineSet
EndChar

StartChar: r.serif
Encoding: 65540 -1 269
Width: 613
Flags: MW
LayerCount: 2
Fore
SplineSet
183 542 m 4
 345 542 l 4
 324 437 l 4
 370 505 446 554 524 554 c 4
 575 554 622 534 654 496 c 4
 599 414 l 4
 592 422 590 431 585 440 c 4
 574 459 549 481 506 481 c 4
 466 481 414 460 360 399 c 4
 307 339 300 302 295 273 c 4
 258 63 l 4
 372 63 l 4
 360 -1 l 4
 85 -1 l 4
 96 63 l 4
 173 63 l 4
 245 473 l 4
 170 473 l 4
 183 542 l 4
EndSplineSet
EndChar

StartChar: hungarumlaut.cap
Encoding: 65541 -1 270
Width: 613
Flags: MW
LayerCount: 2
Fore
SplineSet
667 962 m 0
 709 885 l 0
 515 765 l 0
 486 814 l 0
 667 962 l 0
456 962 m 0
 498 885 l 0
 304 765 l 0
 275 814 l 0
 456 962 l 0
EndSplineSet
EndChar

StartChar: uni2074
Encoding: 8308 8308 271
Width: 613
Flags: MW
LayerCount: 2
Fore
SplineSet
503 761 m 0
 549 761 l 0
 498 470 l 0
 572 470 l 0
 562 414 l 0
 488 414 l 0
 467 299 l 0
 400 299 l 0
 420 415 l 0
 204 415 l 0
 212 457 l 0
 503 761 l 0
462 645 m 0
 292 470 l 0
 431 470 l 0
 462 645 l 0
EndSplineSet
EndChar

StartChar: fraction
Encoding: 8260 8260 274
Width: 613
Flags: MW
LayerCount: 2
Fore
SplineSet
97 -19 m 29
 611 788 l 29
 662 757 l 29
 147 -50 l 29
 97 -19 l 29
EndSplineSet
EndChar

StartChar: lslash
Encoding: 322 322 275
Width: 613
Flags: MW
LayerCount: 2
Fore
SplineSet
224 299 m 1
 237 377 l 1
 336 409 l 1
 391 720 l 1
 238 720 l 1
 250 788 l 1
 489 788 l 1
 468 672 449 555 428 439 c 1
 509 466 l 2
 522 470 531 475 544 483 c 1
 529 396 l 1
 414 360 l 1
 379 164 l 2
 373 123 368 75 415 75 c 0
 441 75 462 79 492 81 c 1
 476 0 l 1
 470 0 463 0 457 0 c 0
 445 0 432 0 421 0 c 0
 383 0 346 2 323 18 c 0
 286 44 280 93 292 159 c 0
 292 161 293 162 293 164 c 2
 322 331 l 1
 224 299 l 1
EndSplineSet
EndChar

StartChar: Lslash
Encoding: 321 321 276
Width: 613
Flags: MW
LayerCount: 2
Fore
SplineSet
228 739 m 1
 324 739 l 1
 324 738 324 737 324 736 c 0
 321 721 310 718 307 699 c 2
 252 390 l 1
 460 454 l 2
 471 457 481 460 493 465 c 1
 479 389 l 1
 239 316 l 1
 196 71 l 1
 552 71 l 1
 539 -1 l 1
 97 -1 l 1
 148 289 l 1
 81 268 l 1
 94 341 l 1
 161 362 l 1
 228 739 l 1
EndSplineSet
EndChar

StartChar: Eng
Encoding: 330 330 277
Width: 613
Flags: MW
LayerCount: 2
Fore
SplineSet
71 0 m 0
 201 739 l 0
 288 739 l 0
 271 643 l 0
 325 709 405 753 483 753 c 0
 556 753 615 714 634 644 c 0
 647 597 639 550 631 503 c 0
 579 208 l 0
 572 167 564 126 537 85 c 0
 497 23 430 -12 361 -12 c 0
 324 -12 290 -3 262 16 c 0
 317 90 l 0
 323 86 323 80 327 77 c 0
 330 75 348 61 376 61 c 0
 410 61 444 80 465 114 c 0
 483 142 489 174 494 202 c 0
 547 501 l 0
 553 536 560 575 548 611 c 0
 535 654 499 678 454 678 c 0
 391 678 322 628 289 591 c 0
 261 558 251 528 244 489 c 0
 158 0 l 0
 71 0 l 0
EndSplineSet
EndChar

StartChar: dcroat
Encoding: 273 273 278
Width: 613
Flags: MW
LayerCount: 2
Fore
SplineSet
104 276 m 0
 143 500 383 543 436 543 c 0
 489 543 534 521 534 521 c 1
 556 645 l 1
 466 645 l 1
 477 709 l 1
 567 709 l 1
 572 736 577 763 582 790 c 1
 673 790 l 1
 672 782 666 776 663 772 c 0
 658 765 656 762 655 756 c 0
 653 743 650 727 647 709 c 1
 699 709 l 1
 688 645 l 1
 636 645 l 1
 609 489 568 260 551 161 c 1
 552 161 l 1
 534 61 571 0 571 0 c 1
 465 -5 l 1
 465 -5 461 38 463 98 c 1
 418 39 337 -12 269 -12 c 0
 164 -12 69 76 104 276 c 0
189 290 m 0
 158 111 241 63 302 63 c 0
 359 63 421 101 453 166 c 0
 467 193 482 224 489 265 c 2
 524 458 l 1
 524 458 482 479 425 479 c 0
 368 479 216 444 189 290 c 0
EndSplineSet
EndChar

StartChar: bullet
Encoding: 8226 8226 287
Width: 613
Flags: MW
LayerCount: 2
Fore
SplineSet
477 352 m 0
 467 298 414 253 358 253 c 0
 302 253 265 298 275 352 c 0
 285 406 337 451 393 451 c 0
 449 451 487 406 477 352 c 0
EndSplineSet
EndChar

StartChar: florin
Encoding: 402 402 288
Width: 613
Flags: MW
LayerCount: 2
Fore
SplineSet
709 736 m 1
 657 657 l 1
 653 657 648 660 648 667 c 0
 648 672 650 675 648 681 c 0
 641 704 617 731 578 731 c 0
 548 731 511 715 484 672 c 0
 461 635 451 589 441 552 c 2
 416 455 l 1
 562 455 l 1
 551 387 l 1
 399 387 l 1
 307 29 l 2
 293 -24 278 -76 242 -123 c 0
 198 -181 141 -208 92 -208 c 0
 55 -208 22 -193 2 -166 c 1
 64 -90 l 1
 71 -94 72 -100 74 -105 c 0
 79 -116 92 -128 113 -128 c 0
 132 -128 158 -117 181 -85 c 0
 207 -48 219 -4 228 32 c 2
 317 387 l 1
 174 387 l 1
 186 455 l 1
 334 455 l 1
 361 563 l 2
 372 608 385 654 415 699 c 0
 459 764 526 799 588 799 c 0
 639 799 683 776 709 736 c 1
EndSplineSet
EndChar

StartChar: dagger
Encoding: 8224 8224 289
Width: 613
Flags: MW
LayerCount: 2
Fore
SplineSet
404 774 m 1
 484 774 l 1
 443 542 l 1
 639 542 l 1
 627 471 l 1
 430 471 l 1
 316 -179 l 1
 236 -179 l 1
 350 471 l 1
 152 471 l 1
 164 542 l 1
 363 542 l 1
 404 774 l 1
EndSplineSet
EndChar

StartChar: daggerdbl
Encoding: 8225 8225 290
Width: 613
Flags: MW
LayerCount: 2
Fore
SplineSet
404 774 m 1
 484 774 l 1
 443 542 l 1
 639 542 l 1
 627 471 l 1
 430 471 l 1
 372 143 l 1
 569 143 l 1
 557 73 l 1
 360 73 l 1
 316 -179 l 1
 236 -179 l 1
 280 73 l 1
 81 73 l 1
 94 143 l 1
 293 143 l 1
 350 471 l 1
 152 471 l 1
 164 542 l 1
 363 542 l 1
 404 774 l 1
EndSplineSet
EndChar

StartChar: trademark
Encoding: 8482 8482 291
Width: 613
VWidth: 1184
Flags: MW
LayerCount: 2
Fore
SplineSet
426 753 m 5
 418 706 l 5
 311 706 l 5
 254 379 l 5
 200 379 l 5
 258 706 l 5
 156 706 l 5
 164 753 l 5
 426 753 l 5
502 753 m 5
 557 581 l 5
 587 624 587 624 617 667 c 4
 647 710 646 710 676 753 c 5
 716 753 l 5
 650 379 l 5
 600 379 l 5
 645 634 l 5
 622 602 621 603 597 570 c 4
 573 537 573 537 551 506 c 5
 532 508 l 5
 489 634 l 5
 445 379 l 5
 395 379 l 5
 461 753 l 5
 502 753 l 5
EndSplineSet
EndChar

StartChar: zero.noslash
Encoding: 65542 -1 292
Width: 613
Flags: MW
LayerCount: 2
Fore
SplineSet
594 366 m 4
 554 141 431 -13 302 -13 c 4
 185 -13 105 117 146 350 c 4
 188 589 308 744 438 744 c 4
 562 744 635 599 594 366 c 4
425 672 m 4
 399 672 353 660 311 594 c 4
 277 541 246 465 227 360 c 4
 214 284 216 205 227 157 c 4
 246 78 290 62 321 62 c 4
 348 62 391 74 433 133 c 4
 477 195 504 291 515 351 c 4
 529 430 530 527 516 582 c 4
 498 657 455 672 425 672 c 4
EndSplineSet
EndChar

StartChar: alpha
Encoding: 945 945 294
Width: 613
Flags: MW
LayerCount: 2
Fore
SplineSet
359 484 m 0
 279 484 200 438 171 275 c 0
 145 125 212 72 285 72 c 0
 290 72 297 72 303 72 c 0
 353 72 428 83 462 279 c 0
 485 410 457 484 359 484 c 0
574 9 m 9
 479 9 l 17
 479 9 460 59 464 82 c 0
 464 83 l 1
 431 22 331 -5 273 -5 c 0
 212 -5 48 28 90 272 c 1
 91 276 91 280 92 284 c 0
 138 547 329 559 372 560 c 1
 503 560 524 468 524 468 c 25
 552 546 l 25
 623 528 l 17
 568 394 l 1
 552 357 539 314 531 271 c 0
 523 228 522 185 527 147 c 0
 537 71 574 9 574 9 c 9
EndSplineSet
EndChar

StartChar: beta
Encoding: 946 946 295
Width: 613
Flags: MW
LayerCount: 2
Fore
SplineSet
575 207 m 12
 555 94 434 3 330 1 c 4
 329 1 328 1 327 1 c 4
 219 1 172 90 172 90 c 5
 127 -160 l 5
 49 -160 l 5
 160 473 l 6
 169 522 179 574 210 624 c 4
 258 701 339 742 416 742 c 4
 529 742 603 653 585 549 c 4
 574 487 530 430 470 402 c 5
 549 376 591 298 575 207 c 12
343 74 m 5
 415 74 480 128 494 207 c 4
 504 264 480 311 442 337 c 4
 414 356 390 359 353 359 c 6
 274 359 l 5
 287 429 l 5
 363 429 l 6
 462 429 494 508 502 551 c 4
 515 624 473 668 406 668 c 4
 369 668 331 659 298 622 c 4
 258 577 249 523 240 474 c 6
 180 145 l 5
 202 139 266 74 336 74 c 4
 338 74 341 74 343 74 c 5
EndSplineSet
EndChar

StartChar: gamma
Encoding: 947 947 296
Width: 613
Flags: MW
LayerCount: 2
Fore
SplineSet
280 2 m 0
 155 542 l 0
 261 542 l 0
 260 532 254 525 252 516 c 0
 251 513 252 510 252 507 c 0
 340 108 l 0
 495 398 l 0
 520 445 544 494 562 543 c 0
 651 543 l 0
 625 490 597 437 569 386 c 0
 359 0 l 0
 352 -12 348 -31 344 -55 c 0
 338 -90 332 -133 325 -173 c 9
 246 -173 l 25
 259 -105 280 2 280 2 c 0
EndSplineSet
EndChar

StartChar: delta
Encoding: 948 948 297
Width: 613
Flags: MW
LayerCount: 2
Fore
SplineSet
389 454 m 0
 309 454 224 386 202 263 c 0
 180 139 242 65 325 65 c 0
 401 65 486 129 508 255 c 0
 532 392 464 454 389 454 c 0
588 701 m 1
 523 701 l 1
 308 699 l 1
 511 496 l 1
 588 434 602 325 590 258 c 0
 561 93 435 -3 312 -3 c 0
 182 -3 88 105 115 257 c 0
 142 408 246 520 371 520 c 0
 373 520 374 520 376 520 c 0
 376 522 266 632 194 699 c 5
 205 767 l 5
 646 767 l 1
 629 670 l 1
 588 701 l 1
EndSplineSet
EndChar

StartChar: epsilon
Encoding: 949 949 298
Width: 613
Flags: MW
LayerCount: 2
Fore
SplineSet
510 146 m 4
 538 91 l 4
 472 33 407 0 322 -0 c 4
 197 0 97 65 113 157 c 4
 123 216 162 274 230 285 c 4
 180 300 148 335 157 387 c 4
 171 468 273 546 390 546 c 4
 468 546 546 519 589 463 c 4
 540 409 l 4
 502 455 439 467 375 467 c 4
 306 467 251 433 243 387 c 4
 237 352 252 321 377 321 c 4
 389 321 403 321 416 322 c 4
 401 239 l 4
 382 241 383 242 363 242 c 4
 217 242 203 183 198 155 c 4
 190 111 264 78 334 77 c 4
 424 77 468 116 510 146 c 4
EndSplineSet
EndChar

StartChar: zeta
Encoding: 950 950 299
Width: 613
Flags: MW
LayerCount: 2
Fore
SplineSet
380 -103 m 5
 408 -57 443 7 443 7 c 4
 443 7 94 28 133 251 c 4
 133 252 134 252 134 253 c 4
 186 534 454 654 526 689 c 5
 523 688 499 688 467 688 c 4
 402 688 302 689 247 689 c 5
 223 688 218 675 215 675 c 4
 233 769 l 4
 655 769 l 4
 640 687 l 4
 640 687 289 585 228 255 c 4
 228 254 228 254 228 253 c 4
 194 60 525 95 530 87 c 4
 536 76 537 62 535 49 c 4
 525 -6 460 -77 444 -134 c 4
 444 -135 395 -137 366 -137 c 4
 354 -137 346 -137 346 -136 c 4
 348 -132 356 -132 366 -123 c 5
 377 -111 376 -110 380 -103 c 5
EndSplineSet
EndChar

StartChar: eta
Encoding: 951 951 300
Width: 613
Flags: MW
LayerCount: 2
Fore
SplineSet
187 500 m 1
 179 542 l 25
 282 542 l 25
 265 446 l 0
 316 506 390 555 464 555 c 0
 525 555 576 521 592 460 c 0
 604 416 595 371 588 329 c 1
 502 -160 l 25
 418 -160 l 25
 504 327 l 2
 511 365 519 411 495 446 c 0
 480 470 456 481 428 481 c 0
 371 481 309 434 284 406 c 0
 256 376 248 349 241 312 c 2
 186 0 l 25
 99 0 l 25
 187 500 l 1
EndSplineSet
EndChar

StartChar: theta
Encoding: 952 952 301
Width: 613
Flags: MW
LayerCount: 2
Fore
SplineSet
416 764 m 0
 564 764 614 600 577 391 c 0
 547 223 487 2 285 1 c 0
 283 1 l 0
 100 1 111 205 143 387 c 0
 182 610 275 764 416 764 c 0
499 428 m 1
 528 595 478 688 404 688 c 0
 337 688 266 604 234 427 c 1
 286 427 437 428 499 428 c 1
486 352 m 1
 220 352 l 17
 198 218 193 83 299 83 c 0
 416 83 461 212 484 343 c 0
 485 346 485 349 486 352 c 1
EndSplineSet
EndChar

StartChar: iota
Encoding: 953 953 302
Width: 613
Flags: MW
LayerCount: 2
Fore
SplineSet
214 545 m 0
 453 545 l 0
 453 545 411 300 383 143 c 16
 373 85 393 82 436 82 c 1
 422 0 l 1
 408 0 393 -1 380 -1 c 0
 319 -1 274 11 297 144 c 1
 298 153 300 169 303 184 c 0
 309 216 316 252 316 252 c 1
 355 475 l 1
 222 475 l 0
 209 475 201 464 201 464 c 0
 214 545 l 0
EndSplineSet
EndChar

StartChar: kappa
Encoding: 954 954 303
Width: 613
Flags: MW
LayerCount: 2
Fore
SplineSet
158 542 m 4
 255 542 l 4
 255 541 255 541 255 540 c 4
 254 533 249 528 245 524 c 4
 240 519 240 515 239 511 c 4
 200 293 l 4
 516 545 l 4
 537 540 565 539 585 539 c 4
 616 539 l 4
 348 324 l 4
 552 -1 l 4
 549 -1 547 -1 544 -1 c 4
 449 -1 l 4
 276 271 l 4
 185 205 l 4
 148 -1 l 4
 62 -1 l 4
 158 542 l 4
EndSplineSet
EndChar

StartChar: lambda
Encoding: 955 955 304
Width: 613
Flags: MW
LayerCount: 2
Fore
SplineSet
397.397 507 m 1
 396.325 603 370.134 704 299.897 714 c 0
 295.074 715 291.074 715 286.074 715 c 0
 262.074 715 241.663 707 239.663 707 c 0
 251.945 788 l 1
 270.945 788 292.122 789 307.122 789 c 0
 308.122 789 l 0
 482.122 789 473.856 589 488.521 468 c 1
 510.485 309 555.174 18 578 0 c 1
 578 0 488 0 485 0 c 1
 466.874 56 419.828 379 412.531 400 c 1
 116 0 l 1
 34 0 l 1
 397.397 507 l 1
EndSplineSet
EndChar

StartChar: mu
Encoding: 956 956 305
Width: 613
Flags: MW
LayerCount: 2
Fore
SplineSet
523 98 m 1
 518 72 534 70 543 70 c 0
 546 70 548 70 549 70 c 0
 551 70 l 1
 549 56 540 0 540 0 c 1
 464 0 l 1
 449 0 427 16 435 61 c 1
 449 142 l 1
 447 129 369 0 258 0 c 0
 226 0 182 16 169 66 c 1
 163 33 l 0
 127 -172 l 1
 43 -172 l 1
 114 228 l 1
 169 541 l 1
 250 541 l 1
 200 258 l 1
 200 256 l 2
 176 121 216 86 272 86 c 0
 342 86 457 185 475 288 c 2
 519 541 l 1
 601 541 l 1
 523 98 l 1
EndSplineSet
EndChar

StartChar: nu
Encoding: 957 957 306
Width: 613
Flags: MW
LayerCount: 2
Fore
SplineSet
155 553 m 0
 257 553 l 0
 257 544 250 536 249 529 c 0
 248 525 247 518 335 116 c 1
 503 297 555 406 566 471 c 0
 575 523 558 546 555 553 c 1
 655 553 l 1
 655 553 659 520 652 479 c 0
 647 451 640 415 617 372 c 1
 518 183 338 -4 338 -4 c 0
 272 -4 l 0
 155 553 l 0
EndSplineSet
EndChar

StartChar: xi
Encoding: 958 958 307
Width: 613
Flags: MW
LayerCount: 2
Fore
SplineSet
413 -32 m 0
 398 38 102 -23 142 202 c 0
 162 315 260 397 338 400 c 1
 276 439 259 481 266 520 c 0
 277 585 354 642 404 664 c 1
 400 663 379 663 351 663 c 0
 322 663 305 663 264 663 c 1
 239 662 235 648 232 648 c 0
 249 742 l 0
 650 742 l 0
 636 660 l 0
 636 660 557 660 552 660 c 1
 472 651 370 582 360 523 c 0
 354 487 380 455 463 442 c 1
 562 442 l 25
 546 351 l 25
 451 350 l 1
 444 350 437 350 430 350 c 0
 335 350 248 316 229 211 c 0
 229 209 227 206 227 204 c 1
 206 67 426 120 495 31 c 0
 504 20 510 4 508 -9 c 0
 501 -50 456 -92 436 -143 c 9
 343 -144 l 17
 367 -104 409 -62 413 -38 c 0
 413 -36 414 -34 413 -32 c 0
EndSplineSet
EndChar

StartChar: omicron
Encoding: 959 959 308
Width: 613
Flags: MW
LayerCount: 2
Fore
SplineSet
603 268 m 4
 571 89 438 -14 310 -14 c 4
 174 -14 76 102 105 267 c 4
 135 435 274 554 412 554 c 4
 535 554 636 455 603 268 c 4
394 481 m 4
 311 481 220 407 197 274 c 4
 173 140 238 59 324 59 c 4
 403 59 493 129 517 265 c 4
 543 413 472 481 394 481 c 4
EndSplineSet
EndChar

StartChar: pi
Encoding: 960 960 309
Width: 613
Flags: MW
LayerCount: 2
Fore
SplineSet
138 554 m 1
 671 554 l 1
 657 473 l 1
 590 473 l 1
 521 79 l 1
 550 79 l 5
 557 84 l 5
 557 84 547 33 541 0 c 5
 467 0 l 2
 430 0 427 24 430 41 c 2
 506 473 l 1
 277 473 l 1
 194 0 l 1
 105 0 l 1
 189 473 l 1
 123 473 l 1
 138 554 l 1
EndSplineSet
EndChar

StartChar: rho
Encoding: 961 961 310
Width: 613
Flags: MW
LayerCount: 2
Fore
SplineSet
137 345 m 2
 158 467 239 554 394 554 c 0
 535 554 619 453 585 262 c 0
 550 63 404 -8 293 -8 c 0
 209 -8 172 44 165 52 c 0
 121 -198 l 0
 43 -198 l 0
 137 345 l 2
380 481 m 0
 325 481 269 451 240 402 c 0
 223 374 215 342 207 296 c 0
 193 217 187 183 196 146 c 0
 209 97 248 68 306 68 c 4
 357 68 472 89 502 259 c 0
 537 457 427 481 380 481 c 0
EndSplineSet
EndChar

StartChar: sigma
Encoding: 963 963 311
Width: 613
Flags: MW
LayerCount: 2
Fore
SplineSet
585 268 m 0
 553 89 419 -14 291 -14 c 0
 155 -14 58 102 87 267 c 0
 116 432 251 551 387 554 c 2
 388 554 l 0
 390 554 392 554 394 554 c 2
 685 554 l 1
 676 532 l 0
 667 479 l 1
 549 479 l 1
 585 431 601 360 585 268 c 0
375 481 m 1
 292 481 201 407 178 274 c 0
 154 140 219 59 305 59 c 0
 384 59 474 129 498 265 c 0
 520 388 481 472 375 481 c 1
EndSplineSet
EndChar

StartChar: tau
Encoding: 964 964 312
Width: 613
Flags: MW
LayerCount: 2
Fore
SplineSet
199 554 m 5
 654 554 l 4
 640 474 l 0
 426 474 l 0
 365 143 l 0
 355 89 418 78 465 78 c 0
 492 78 514 82 514 82 c 0
 502 7 l 0
 502 7 475 2 440 2 c 0
 367 2 260 22 281 144 c 1
 282 153 284 168 287 184 c 0
 293 216 300 252 300 252 c 1
 340 475 l 1
 298 475 256 476 222 476 c 0
 185 476 157 475 143 468 c 1
 199 554 l 5
EndSplineSet
EndChar

StartChar: upsilon
Encoding: 965 965 313
Width: 613
Flags: MW
LayerCount: 2
Fore
SplineSet
181 542 m 4
 181 542 233 542 267 542 c 29
 213 240 l 6
 212 234 l 4
 202 176 184 65 310 65 c 4
 387 65 465 142 483 242 c 6
 536 542 l 5
 622 542 l 29
 569 244 l 4
 557 174 523 110 487 72 c 4
 417 -1 354 -14 291 -14 c 4
 220 -14 143 24 123 97 c 4
 110 143 118 193 126 240 c 4
 169 477 l 4
 169 477 138 481 118 483 c 29
 143 542 l 29
 181 542 l 4
EndSplineSet
EndChar

StartChar: Xi
Encoding: 926 926 322
Width: 613
Flags: MW
LayerCount: 2
Fore
SplineSet
359 76 m 20
 512 76 l 4
 499 -1 l 4
 115 -1 l 4
 128 77 l 4
 277 77 l 4
 277 77 326 76 359 76 c 20
463 663 m 12
 380 663 l 4
 232 663 l 4
 245 739 l 4
 629 739 l 4
 616 663 l 4
 463 663 l 12
225 425 m 5
 540 425 l 5
 526 348 l 5
 212 348 l 5
 225 425 l 5
EndSplineSet
EndChar

StartChar: tonos
Encoding: 900 900 328
Width: 613
Flags: MW
LayerCount: 2
Fore
SplineSet
507.822 827 m 4
 427.084 647 l 4
 376.084 647 l 4
 416.233 835 l 4
 507.822 827 l 4
EndSplineSet
EndChar

StartChar: sigma1
Encoding: 962 962 346
Width: 613
Flags: MW
LayerCount: 2
Fore
SplineSet
141 293 m 1
 160 397 252 510 352 537 c 0
 410 552 491 554 538 554 c 0
 560 554 574 554 576 554 c 0
 577 554 577 551 576 547 c 0
 573 532 567 496 561 469 c 9
 515 468 468 467 444 467 c 0
 330 467 253 414 231 288 c 0
 220 226 262 155 304 136 c 0
 386 99 516 110 498 9 c 0
 487 -48 427 -108 415 -136 c 9
 324 -137 l 17
 350 -89 404 -45 409 -16 c 0
 420 49 301 17 210 84 c 0
 172 113 125 205 141 293 c 1
EndSplineSet
EndChar

StartChar: chi
Encoding: 967 967 347
Width: 613
Flags: MW
LayerCount: 2
Fore
SplineSet
538 543 m 5
 620 543 l 5
 390 184 l 5
 482 -100 l 4
 489 -122 511 -126 522 -126 c 4
 530 -126 l 4
 518 -196 l 5
 518 -196 514 -196 508 -196 c 4
 483 -196 421 -192 401 -145 c 5
 329 91 l 5
 144 -196 l 5
 53 -196 l 5
 299 179 l 5
 214 407 l 4
 187 467 176 473 160 473 c 4
 156 473 150 473 144 473 c 13
 159 553 l 5
 167 553 177 553 186 553 c 4
 215 553 247 548 268 505 c 5
 276 490 312 426 361 269 c 5
 538 543 l 5
EndSplineSet
EndChar

StartChar: psi
Encoding: 968 968 348
Width: 613
Flags: MW
LayerCount: 2
Fore
SplineSet
188 542 m 6
 269 542 l 5
 215 240 l 5
 214 234 l 6
 205 182 190 86 279 68 c 5
 379 632 l 5
 465 662 l 5
 361 75 l 5
 419 99 471 163 485 242 c 6
 538 542 l 5
 619 542 l 5
 566 244 l 6
 554 174 517 114 481 76 c 4
 431 24 392 0 347 -9 c 5
 314 -194 l 5
 233 -194 l 5
 265 -12 l 5
 203 -3 148 35 130 97 c 4
 117 143 125 193 133 240 c 4
 177 482 188 542 188 542 c 6
EndSplineSet
EndChar

StartChar: phi
Encoding: 966 966 349
Width: 613
Flags: MW
LayerCount: 2
Fore
SplineSet
374 606 m 1
 462 618 l 5
 450 550 l 5
 553 531 632 434 603 268 c 0
 575 109 464 10 351 -10 c 5
 319 -197 l 5
 233 -197 l 1
 265 -11 l 1
 150 9 79 119 105 267 c 0
 131 417 241 527 364 550 c 1
 374 606 l 1
278 61 m 1
 352 480 l 1
 281 461 212 387 192 274 c 0
 172 162 213 83 278 61 c 1
437 477 m 5
 364 62 l 5
 430 82 501 153 521 265 c 0
 542 384 494 454 437 477 c 5
EndSplineSet
EndChar

StartChar: omega
Encoding: 969 969 350
Width: 613
Flags: MW
LayerCount: 2
Fore
SplineSet
207 76 m 0
 266 76 296 162 313 251 c 2
 334 372 l 1
 413 372 l 5
 392 251 l 6
 376 161 374 76 434 76 c 0
 464 76 483 102 505 147 c 0
 508 153 522 195 536 272 c 0
 548 339 558 433 559 553 c 1
 641 553 l 1
 641 518 645 405 624 283 c 0
 611 209 589 132 550 69 c 0
 521 23 464 -2 422 -2 c 0
 421 -2 420 -2 419 -2 c 0
 391 -2 344 16 316 52 c 1
 276 16 222 -2 194 -2 c 0
 193 -2 193 -2 192 -2 c 0
 150 -2 101 23 89 69 c 0
 73 132 77 209 90 283 c 0
 111 405 156 518 168 553 c 1
 251 553 l 1
 208 431 186 337 174 270 c 0
 161 194 160 153 161 147 c 0
 167 102 178 76 207 76 c 0
EndSplineSet
EndChar

StartChar: Lambda
Encoding: 923 923 352
Width: 613
Flags: MW
LayerCount: 2
Fore
SplineSet
392 562 m 1
 298 374 204 186 109 -1 c 1
 27 -1 l 0
 421 753 l 0
 431 753 l 4
 584 0 l 0
 498 0 l 1
 461 185 426 373 392 562 c 1
EndSplineSet
EndChar

StartChar: Delta
Encoding: 916 916 353
Width: 613
Flags: MW
LayerCount: 2
Fore
SplineSet
28 0 m 21
 421 753 l 5
 431 753 l 5
 584 0 l 5
 28 0 l 21
150 81 m 5
 481 81 l 5
 392 562 l 5
 150 81 l 5
EndSplineSet
EndChar

StartChar: Gamma
Encoding: 915 915 355
Width: 613
Flags: MW
LayerCount: 2
Fore
SplineSet
233 424 m 12
 220 348 l 4
 172 74 l 12
 160 0 l 29
 80 0 l 29
 210 740 l 29
 664 740 l 29
 651 667 l 29
 276 667 l 4
 233 424 l 12
EndSplineSet
EndChar

StartChar: Theta
Encoding: 920 920 356
Width: 613
Flags: MW
LayerCount: 2
Fore
SplineSet
427 672 m 0
 265 672 222 525 197 381 c 0
 163 190 211 76 328 76 c 3
 436 76 518 170 555 382 c 0
 580 522 582 672 427 672 c 0
310 0 m 0
 90 0 84 221 112 381 c 4
 148 585 243 750 441 750 c 0
 617 750 677 608 637 382 c 0
 608 220 539 0 310 0 c 0
519 422 m 1025
250 421 m 1025
504 340 m 1
 236 340 l 9
 250 421 l 25
 250 421 453 422 519 422 c 9
 504 340 l 1
EndSplineSet
EndChar

StartChar: Pi
Encoding: 928 928 357
Width: 613
Flags: MW
LayerCount: 2
Fore
SplineSet
233 424 m 1
 220 348 l 1
 172 74 l 1
 160 0 l 1
 80 0 l 1
 210 740 l 1
 585 740 l 1
 664 740 l 1
 651 667 l 1
 534 0 l 1
 455 0 l 1
 572 667 l 1
 276 667 l 1
 233 424 l 1
EndSplineSet
EndChar

StartChar: Phi
Encoding: 934 934 358
Width: 613
Flags: MW
LayerCount: 2
Fore
SplineSet
439 737 m 0
 582 737 710 599 675 400 c 0
 640 201 473 108 362 83 c 1
 347 0 l 1
 270 0 l 1
 285 82 l 1
 175 107 47 212 80 397 c 0
 116 600 283 737 439 737 c 0
295 161 m 1
 383 665 l 1
 307 641 186 543 161 399 c 0
 136 255 227 187 295 161 c 1
468 664 m 1
 380 161 l 1
 451 187 572 258 597 401 c 0
 624 554 529 636 468 664 c 1
EndSplineSet
EndChar

StartChar: Chi
Encoding: 935 935 359
Width: 613
Flags: MW
LayerCount: 2
Fore
SplineSet
568 739 m 1
 651 739 l 1
 414 380 l 1
 544 1 l 1
 451 1 l 1
 354 288 l 1
 163 1 l 1
 74 1 l 1
 326 376 l 1
 205 739 l 1
 293 739 l 1
 385 466 l 1
 568 739 l 1
EndSplineSet
EndChar

StartChar: Sigma
Encoding: 931 931 362
Width: 613
Flags: MW
LayerCount: 2
Fore
SplineSet
321 362 m 5
 209 681 l 0
 218 739 l 0
 675 739 l 0
 662 665 l 0
 304 665 l 0
 409 361 l 1
 183 52 l 0
 532 52 l 0
 546 52 554 59 565 59 c 0
 566 59 569 59 570 59 c 0
 555 -22 l 0
 66 -22 l 0
 75 28 l 0
 321 362 l 5
410 362 m 1025
EndSplineSet
EndChar

StartChar: Psi
Encoding: 936 936 363
Width: 613
Flags: MW
LayerCount: 2
Fore
SplineSet
394 705 m 1
 475 705 l 1
 402 290 l 1
 497 309 530 412 540 467 c 2
 588 740 l 1
 672 740 l 1
 624 469 l 2
 614 414 603 368 562 317 c 0
 513 256 449 230 390 220 c 1
 351 0 l 1
 269 0 l 1
 308 218 l 1
 246 227 196 251 165 317 c 0
 143 364 147 413 156 465 c 2
 205 740 l 1
 205 740 254 740 288 740 c 1
 240 467 l 2
 231 415 232 306 320 288 c 1
 394 705 l 1
EndSplineSet
EndChar

StartChar: Omega
Encoding: 937 937 364
Width: 613
Flags: MW
LayerCount: 2
Fore
SplineSet
194 77 m 1
 146 134 112 260 126 337 c 1
 190 697 316 740 439 740 c 1
 556 740 669 693 607 339 c 0
 591 248 528 138 460 77 c 9
 561 77 l 25
 548 0 l 25
 361 0 l 25
 375 76 l 17
 411 105 510 247 526 339 c 0
 566 563 548 670 426 670 c 0
 303 670 247 564 207 340 c 0
 191 248 246 105 273 77 c 9
 259 0 l 25
 67 0 l 25
 80 77 l 25
 194 77 l 1
EndSplineSet
EndChar

StartChar: anoteleia
Encoding: 903 903 366
Width: 613
Flags: MW
LayerCount: 2
Fore
SplineSet
449 485 m 4
 443 448 406 418 367 418 c 4
 328 418 302 448 309 486 c 4
 316 523 352 554 391 554 c 4
 430 554 456 522 449 485 c 4
EndSplineSet
EndChar

StartChar: afii10018
Encoding: 1041 1041 368
Width: 613
Flags: MW
LayerCount: 2
Fore
SplineSet
68 0 m 1
 198 740 l 1
 652 740 l 1
 639 667 l 1
 267 667 l 1
 226 433 l 1
 342 433 l 2
 424 433 474 433 527 392 c 0
 580 351 603 291 588 205 c 0
 575 129 519 56 433 22 c 0
 378 0 326 0 276 0 c 2
 147 0 l 1
 68 0 l 1
162 73 m 1
 304 73 l 2
 336 73 367 74 401 88 c 0
 456 111 494 160 503 213 c 0
 512 266 492 319 442 345 c 0
 408 363 371 364 334 364 c 2
 214 364 l 1
 162 73 l 1
EndSplineSet
EndChar

StartChar: afii10021
Encoding: 1044 1044 371
Width: 613
Flags: MW
LayerCount: 2
Fore
SplineSet
70 70 m 1
 120 70 l 1
 122 73 125 76 128 81 c 0
 139 100 154 128 162 150 c 0
 226 313 279 549 304 667 c 0
 311 702 309 740 309 740 c 1
 664 740 l 1
 546 70 l 1
 606 70 l 1
 564 -172 l 1
 480 -172 l 1
 510 -1 l 1
 143 -1 l 1
 113 -171 l 1
 27 -171 l 1
 70 70 l 1
211 70 m 1
 467 70 l 1
 572 667 l 1
 386 667 l 1
 355 538 293 262 232 115 c 0
 226 100 219 85 211 70 c 1
EndSplineSet
EndChar

StartChar: afii10024
Encoding: 1046 1046 373
Width: 613
Flags: MW
LayerCount: 2
Fore
SplineSet
17 0 m 1
 294 384 l 1
 177 740 l 1
 207 740 l 2
 228 740 250 741 272 746 c 1
 351 476 l 1
 398 739 l 1
 486 739 l 1
 487 737 486 736 486 734 c 0
 484 725 476 724 474 711 c 2
 434 482 l 1
 600 746 l 1
 620 741 641 740 662 740 c 2
 693 740 l 1
 459 389 l 1
 596 0 l 1
 538 0 490 -4 490 -4 c 1
 404 313 l 1
 349 0 l 1
 267 0 l 1
 320 299 l 1
 122 -4 l 1
 122 -4 75 0 17 0 c 1
EndSplineSet
EndChar

StartChar: afii10025
Encoding: 1047 1047 374
Width: 613
Flags: MW
LayerCount: 2
Fore
SplineSet
60 126 m 0
 149 181 l 0
 157 167 145 158 153 143 c 0
 157 135 199 63 294 63 c 0
 413 63 495 132 509 213 c 0
 525 301 449 354 311 354 c 0
 294 354 276 353 259 351 c 0
 271 418 l 0
 367 418 416 431 435 437 c 0
 509 459 539 508 547 553 c 0
 558 615 511 668 407 668 c 0
 344 668 270 625 229 586 c 0
 185 635 l 0
 251 709 342 742 425 742 c 0
 571 742 647 655 629 554 c 0
 616 482 567 419 480 394 c 0
 571 366 604 291 588 203 c 0
 568 88 459 -12 282 -12 c 0
 190 -12 92 56 60 126 c 0
EndSplineSet
EndChar

StartChar: afii10026
Encoding: 1048 1048 375
Width: 613
Flags: MW
LayerCount: 2
Fore
SplineSet
70 0 m 0
 200 739 l 0
 292 739 l 0
 293 737 292 736 292 734 c 0
 290 725 283 724 281 711 c 0
 191 203 l 1
 589 739 l 0
 671 739 l 1
 540 -1 l 0
 460 -1 l 0
 564 583 l 1
 136 0 l 0
 70 0 l 0
EndSplineSet
EndChar

StartChar: afii10029
Encoding: 1051 1051 378
Width: 613
Flags: MW
LayerCount: 2
Fore
SplineSet
25 37 m 1
 68 114 l 1
 72 109 69 100 70 94 c 0
 71 88 86 62 106 62 c 0
 114 62 121 68 128 81 c 0
 139 100 154 128 162 150 c 0
 226 313 279 549 304 667 c 0
 311 702 309 740 309 740 c 1
 664 740 l 1
 534 0 l 1
 455 0 l 1
 572 667 l 1
 386 667 l 1
 355 538 293 262 232 115 c 0
 219 84 203 50 182 24 c 0
 162 -1 118 -8 94 -8 c 0
 65 -8 40 7 25 37 c 1
EndSplineSet
EndChar

StartChar: afii10037
Encoding: 1059 1059 386
Width: 613
Flags: MW
LayerCount: 2
Fore
SplineSet
172 740 m 0
 286 740 l 0
 285 729 279 724 277 715 c 0
 276 712 276 709 277 706 c 0
 395 332 l 0
 535 596 l 0
 560 643 584 690 602 740 c 0
 691 740 l 0
 666 687 638 636 609 584 c 0
 361 136 l 0
 344 105 327 77 299 50 c 0
 256 9 209 -8 173 -8 c 0
 128 -8 90 7 64 37 c 0
 121 114 l 0
 127 109 125 100 127 94 c 0
 129 88 145 62 185 62 c 0
 202 62 220 73 247 97 c 0
 267 115 282 138 295 160 c 0
 334 227 l 0
 172 740 l 0
EndSplineSet
EndChar

StartChar: afii10038
Encoding: 1060 1060 387
Width: 613
Flags: MW
LayerCount: 2
Fore
SplineSet
481 733 m 1
 606 709 707 579 675 400 c 0
 640 201 473 108 362 83 c 1
 347 0 l 1
 270 0 l 1
 285 82 l 1
 175 107 47 212 80 397 c 0
 112 581 254 711 396 734 c 1
 411 821 l 1
 496 821 l 1
 481 733 l 1
468 664 m 1
 380 161 l 1
 451 187 572 258 597 401 c 0
 624 554 529 636 468 664 c 1
383 665 m 1
 307 641 186 543 161 399 c 0
 136 255 227 187 295 161 c 1
 383 665 l 1
EndSplineSet
EndChar

StartChar: afii10040
Encoding: 1062 1062 389
Width: 613
Flags: MW
LayerCount: 2
Fore
SplineSet
54 0 m 0
 185 739 l 0
 277 739 l 0
 278 737 277 736 277 734 c 0
 275 725 268 724 266 711 c 0
 153 71 l 0
 443 71 l 0
 560 739 l 0
 651 739 l 0
 652 738 651 736 651 734 c 0
 649 725 641 725 639 713 c 0
 525 71 l 0
 608 71 l 1
 566 -172 l 0
 483 -172 l 0
 513 0 l 1
 54 0 l 0
EndSplineSet
EndChar

StartChar: afii10041
Encoding: 1063 1063 390
Width: 613
Flags: MW
LayerCount: 2
Fore
SplineSet
160 513 m 2
 200 739 l 1
 293 739 l 1
 293 737 293 735 293 733 c 0
 292 726 287 721 283 717 c 0
 278 711 276 706 275 701 c 2
 242 512 l 2
 236 475 229 439 240 403 c 0
 257 346 307 315 366 315 c 0
 424 315 485 345 522 402 c 0
 547 440 554 477 561 515 c 2
 600 739 l 1
 679 739 l 1
 549 0 l 1
 549 0 l 1
 470 0 l 1
 523 300 l 1
 472 263 411 245 352 245 c 0
 265 245 190 284 162 360 c 0
 144 411 151 461 160 513 c 2
EndSplineSet
EndChar

StartChar: afii10042
Encoding: 1064 1064 391
Width: 613
Flags: MW
LayerCount: 2
Fore
SplineSet
44 0 m 1
 175 739 l 1
 267 739 l 1
 268 737 267 736 267 734 c 0
 265 725 258 724 256 711 c 2
 143 71 l 1
 284 71 l 1
 402 739 l 1
 492 739 l 1
 493 738 492 736 492 734 c 0
 490 725 482 725 480 713 c 2
 367 71 l 1
 503 71 l 1
 621 739 l 1
 711 739 l 1
 712 738 712 736 712 734 c 0
 710 725 701 725 699 713 c 2
 574 0 l 1
 44 0 l 1
EndSplineSet
EndChar

StartChar: afii10043
Encoding: 1065 1065 392
Width: 613
Flags: MW
LayerCount: 2
Fore
SplineSet
18 0 m 1
 149 739 l 1
 241 739 l 1
 242 737 241 736 241 734 c 0
 239 725 232 724 230 711 c 2
 117 71 l 1
 258 71 l 1
 376 739 l 1
 466 739 l 1
 467 738 467 736 467 734 c 0
 465 725 456 725 454 713 c 2
 341 71 l 1
 477 71 l 1
 595 739 l 1
 685 739 l 1
 686 738 686 736 686 734 c 0
 684 725 676 725 674 713 c 2
 560 71 l 1
 608 71 l 1
 566 -172 l 1
 483 -172 l 1
 513 0 l 1
 18 0 l 1
EndSplineSet
EndChar

StartChar: afii10044
Encoding: 1066 1066 393
Width: 613
Flags: MW
LayerCount: 2
Fore
SplineSet
164 665 m 1
 177 739 l 1
 372 739 l 1
 318 433 l 1
 342 433 l 2
 424 433 489 433 542 392 c 0
 595 351 618 291 603 205 c 0
 590 129 533 56 447 22 c 0
 392 0 341 0 291 0 c 2
 160 0 l 1
 277 665 l 1
 164 665 l 1
254 73 m 1
 318 73 l 2
 350 73 382 74 416 88 c 0
 471 111 509 160 518 213 c 0
 527 266 507 319 457 345 c 0
 423 363 386 364 349 364 c 2
 306 364 l 1
 254 73 l 1
EndSplineSet
EndChar

StartChar: afii10045
Encoding: 1067 1067 394
Width: 613
Flags: MW
LayerCount: 2
Fore
SplineSet
57 0 m 0
 188 739 l 0
 276 739 l 0
 277 737 276 736 276 734 c 0
 274 725 267 724 265 711 c 0
 216 433 l 0
 231 433 l 0
 303 433 347 433 393 392 c 0
 439 351 458 291 443 205 c 0
 430 129 378 56 302 22 c 0
 253 0 208 0 164 0 c 0
 57 0 l 0
152 73 m 0
 189 73 l 0
 217 73 240 74 269 88 c 0
 315 111 347 160 356 213 c 0
 365 266 351 319 310 345 c 0
 283 363 256 364 223 364 c 0
 203 364 l 0
 152 73 l 0
471 0 m 0
 601 739 l 0
 689 739 l 0
 690 737 689 736 689 734 c 0
 687 725 680 724 678 711 c 0
 553 0 l 1
 471 0 l 0
EndSplineSet
EndChar

StartChar: afii10046
Encoding: 1068 1068 395
Width: 613
Flags: MW
LayerCount: 2
Fore
SplineSet
68 0 m 0
 198 739 l 0
 286 739 l 0
 287 737 286 736 286 734 c 0
 284 725 277 724 275 711 c 0
 226 433 l 0
 342 433 l 0
 424 433 474 433 527 392 c 0
 580 351 603 291 588 205 c 0
 575 129 519 56 433 22 c 0
 378 0 326 0 276 0 c 0
 68 0 l 0
162 73 m 0
 304 73 l 0
 336 73 367 74 401 88 c 0
 456 111 494 160 503 213 c 0
 512 266 492 319 442 345 c 0
 408 363 371 364 334 364 c 0
 214 364 l 0
 162 73 l 0
EndSplineSet
EndChar

StartChar: afii10047
Encoding: 1069 1069 396
Width: 613
Flags: MW
LayerCount: 2
Fore
SplineSet
82 134 m 1
 168 173 l 1
 173 169 171 162 171 161 c 0
 170 158 170 156 169 153 c 0
 168 147 169 144 171 140 c 0
 192 88 239 54 297 54 c 0
 399 54 510 159 547 348 c 1
 256 348 l 1
 269 424 l 1
 557 424 l 1
 567 584 497 674 400 674 c 0
 342 674 277 640 233 584 c 1
 179 624 l 1
 239 700 329 745 417 745 c 0
 539 745 681 654 631 368 c 0
 579 72 398 -12 283 -12 c 0
 185 -12 106 45 82 134 c 1
EndSplineSet
EndChar

StartChar: afii10048
Encoding: 1070 1070 397
Width: 613
Flags: MW
LayerCount: 2
Fore
SplineSet
30 0 m 1
 161 739 l 1
 249 739 l 1
 250 737 249 736 249 734 c 0
 247 725 239 724 237 711 c 2
 187 424 l 1
 271 424 l 1
 328 672 449 748 527 748 c 0
 588 748 643 703 663 608 c 0
 679 529 667 437 655 368 c 0
 644 303 624 211 580 132 c 0
 526 34 454 -11 394 -11 c 0
 311 -11 214 75 256 348 c 1
 174 348 l 1
 112 0 l 1
 30 0 l 1
344 382 m 0
 303 147 355 70 408 70 c 0
 440 70 481 98 516 170 c 0
 547 234 561 309 570 357 c 0
 581 420 591 491 586 553 c 0
 579 639 545 670 511 670 c 0
 461 670 383 602 344 382 c 0
EndSplineSet
EndChar

StartChar: afii10049
Encoding: 1071 1071 398
Width: 613
Flags: MW
LayerCount: 2
Fore
SplineSet
53 0 m 0
 282 330 l 0
 197 354 151 439 168 537 c 0
 181 611 230 679 304 714 c 0
 355 738 402 739 450 739 c 0
 668 739 l 0
 538 0 l 0
 454 0 l 0
 511 327 l 0
 368 327 l 0
 146 0 l 0
 53 0 l 0
252 527 m 0
 244 480 259 436 298 414 c 0
 324 400 352 399 381 399 c 0
 524 399 l 0
 570 662 l 0
 436 662 l 0
 405 662 376 661 343 646 c 0
 293 623 260 575 252 527 c 0
EndSplineSet
EndChar

StartChar: afii10066
Encoding: 1073 1073 400
Width: 614
Flags: MW
LayerCount: 2
Fore
SplineSet
197 278 m 0
 175 154 221 59 323 59 c 0
 402 59 493 129 517 265 c 0
 543 414 472 481 394 481 c 0
 311 481 220 411 197 278 c 0
119 337 m 0
 131 408 153 493 191 564 c 0
 259 693 364 748 452 748 c 0
 492 748 550 771 554 777 c 0
 558 783 559 791 567 796 c 1
 598 719 l 1
 561 689 484 674 439 674 c 0
 394 674 304 652 247 497 c 1
 297 533 355 554 413 554 c 0
 536 554 637 456 604 269 c 0
 572 89 438 -14 310 -14 c 0
 224 -14 161 20 130 86 c 0
 96 158 104 250 119 337 c 0
EndSplineSet
Substitution2: "Macedonian-Serbian Italic subtable" afii10066.mkd
EndChar

StartChar: afii10067
Encoding: 1074 1074 401
Width: 613
Flags: MW
LayerCount: 2
Fore
SplineSet
125 271 m 0
 142 369 198 452 275 502 c 8
 312 526 354 543 390 543 c 0
 426 543 464 543 508 528 c 0
 574 506 590 459 581 410 c 0
 572 358 530 311 467 291 c 1
 558 271 575 213 564 150 c 0
 554 94 515 41 431 16 c 0
 377 0 334 0 284 0 c 8
 235 0 205 20 173 57 c 16
 128 108 110 184 125 271 c 0
211 259 m 1
 203 182 228 121 276 89 c 0
 300 73 367 73 400 82 c 0
 454 96 472 124 478 156 c 0
 484 188 478 240 425 251 c 0
 389 259 361 259 324 259 c 2
 211 259 l 1
227 329 m 1
 331 329 l 2
 364 329 391 329 426 336 c 0
 474 346 492 381 496 405 c 0
 500 429 493 453 446 464 c 0
 431 468 417 470 403 471 c 0
 389 472 362 472 332 455 c 0
 286 430 248 386 227 329 c 1
EndSplineSet
EndChar

StartChar: afii10068
Encoding: 1075 1075 402
Width: 613
Flags: MW
LayerCount: 2
Fore
SplineSet
106 157 m 0
 113 195 137 244 207 280 c 0
 274 314 363 327 418 351 c 0
 466 372 481 399 484 417 c 0
 492 461 444 491 383 491 c 0
 306 491 244 443 219 416 c 0
 215 412 215 409 214 405 c 0
 213 398 209 395 207 395 c 0
 170 470 l 0
 230 525 307 555 387 555 c 0
 513 555 583 485 569 404 c 0
 552 309 443 275 412 264 c 0
 363 247 300 233 257 214 c 0
 209 193 194 165 191 145 c 0
 182 94 238 59 315 59 c 0
 408 59 477 116 498 135 c 0
 503 140 503 143 504 148 c 0
 504 150 505 156 511 159 c 0
 545 74 l 0
 471 15 383 -12 301 -12 c 0
 153 -12 92 75 106 157 c 0
EndSplineSet
Substitution2: "Macedonian-Serbian Italic subtable" afii10068.mkd
EndChar

StartChar: afii10072
Encoding: 1078 1078 405
Width: 613
Flags: MW
LayerCount: 2
Fore
SplineSet
34 87 m 1
 102 147 l 1
 102 140 99 129 98 120 c 0
 97 114 105 59 119 59 c 0
 135 59 181 136 203 260 c 0
 225 387 207 475 191 475 c 0
 183 475 168 460 155 418 c 1
 105 467 l 1
 137 523 161 553 206 553 c 0
 264 553 292 459 278 325 c 1
 326 325 l 1
 364 543 l 1
 442 543 l 1
 443 541 442 539 442 537 c 0
 440 528 433 527 431 514 c 2
 397 325 l 1
 448 325 l 1
 481 460 543 553 604 553 c 0
 653 553 666 516 673 453 c 1
 606 392 l 1
 606 399 608 411 609 420 c 0
 610 426 603 480 589 480 c 0
 573 480 527 404 505 280 c 0
 483 153 500 64 516 64 c 0
 524 64 550 80 563 122 c 1
 613 73 l 1
 581 17 557 -13 502 -13 c 0
 438 -13 410 102 435 259 c 1
 386 259 l 1
 340 0 l 1
 268 0 l 1
 314 259 l 1
 269 259 l 1
 239 101 171 -13 104 -13 c 0
 51 -13 41 24 34 87 c 1
EndSplineSet
EndChar

StartChar: afii10073
Encoding: 1079 1079 406
Width: 613
Flags: MW
LayerCount: 2
Fore
SplineSet
109 91 m 0
 156 146 l 0
 188 116 217 77 307 77 c 0
 425 77 483 111 491 155 c 0
 496 183 482 242 336 242 c 0
 316 242 317 241 298 239 c 0
 312 322 l 0
 325 321 338 321 350 321 c 0
 475 321 502 352 508 387 c 0
 516 433 473 467 404 467 c 0
 340 467 273 455 219 409 c 0
 189 463 l 0
 252 519 339 546 417 546 c 0
 534 546 608 468 594 387 c 0
 585 335 540 300 485 285 c 0
 549 274 587 216 577 157 c 0
 561 65 475 0 293 -0 c 0
 208 -0 155 33 109 91 c 0
EndSplineSet
EndChar

StartChar: afii10077
Encoding: 1083 1083 410
Width: 613
Flags: MW
LayerCount: 2
Fore
SplineSet
25 37 m 1
 68 114 l 1
 72 109 69 100 70 94 c 0
 71 88 86 62 106 62 c 0
 114 62 121 68 128 81 c 0
 139 100 154 128 162 150 c 0
 173 177 189 272 222 337 c 24
 255 402 291 448 332 485 c 0
 373 522 420 543 460 543 c 0
 613 543 562 516 627 499 c 1
 622 492 609 464 604 434 c 1
 557 161 l 17
 539 61 567 0 567 0 c 25
 461 -5 l 25
 461 -5 456 64 471 150 c 9
 489 253 517 415 517 415 c 0
 525 458 l 1
 525 458 519 479 464 479 c 0
 412 479 349 403 302 330 c 24
 255 257 256 173 232 115 c 0
 219 84 203 50 182 24 c 0
 162 -1 118 -8 94 -8 c 0
 65 -8 40 7 25 37 c 1
EndSplineSet
EndChar

StartChar: afii10078
Encoding: 1084 1084 411
Width: 613
Flags: MW
LayerCount: 2
Fore
SplineSet
58 -1 m 0
 154 542 l 0
 220 542 l 0
 358 288 l 0
 589 543 l 0
 652 543 l 25
 584 161 l 2
 566 61 594 0 594 0 c 25
 494 -5 l 25
 494 -5 489 64 504 150 c 2
 548 403 l 25
 470 314 348 174 348 174 c 0
 316 174 l 0
 207 400 l 0
 136 -1 l 0
 58 -1 l 0
EndSplineSet
EndChar

StartChar: afii10079
Encoding: 1085 1085 412
Width: 613
Flags: MW
LayerCount: 2
Fore
SplineSet
84 0 m 0
 84 0 129 250 157 410 c 17
 168 473 158 520 146 542 c 1
 246 554 l 1
 248 549 260 509 249 449 c 1
 226 315 l 0
 501 315 l 0
 541 541 l 0
 624 541 l 1
 557 161 l 2
 539 61 568 0 568 0 c 25
 461 -5 l 25
 461 -5 456 64 471 150 c 2
 488 245 l 25
 213 245 l 0
 170 0 l 0
 84 0 l 0
EndSplineSet
EndChar

StartChar: afii10086
Encoding: 1092 1092 419
Width: 613
Flags: MW
LayerCount: 2
Fore
SplineSet
389 693 m 1
 478 705 l 1
 450 550 l 1
 553 531 632 434 603 268 c 0
 575 109 464 10 351 -10 c 1
 319 -197 l 1
 233 -197 l 1
 265 -11 l 1
 150 9 79 119 105 267 c 0
 131 417 241 527 364 550 c 1
 389 693 l 1
278 61 m 1
 352 480 l 1
 281 461 212 387 192 274 c 0
 172 162 213 83 278 61 c 1
437 477 m 1
 364 62 l 1
 430 82 501 153 521 265 c 0
 542 384 494 454 437 477 c 1
EndSplineSet
EndChar

StartChar: afii10088
Encoding: 1094 1094 421
Width: 613
Flags: MW
LayerCount: 2
Fore
SplineSet
123 97 m 0
 110 144 118 193 126 240 c 2
 157 410 l 2
 168 473 158 520 146 542 c 1
 246 554 l 1
 248 549 261 509 250 449 c 2
 213 240 l 2
 206 203 199 161 212 123 c 0
 226 80 261 56 304 56 c 0
 356 56 410 91 443 136 c 0
 467 170 476 202 483 244 c 2
 536 542 l 1
 622 542 l 1
 555 161 l 2
 537 61 574 0 574 0 c 1
 560 -1 l 1
 545 -55 490 -110 479 -136 c 1
 388 -137 l 1
 414 -89 468 -45 473 -16 c 0
 474 -9 470 -8 468 -5 c 0
 468 -5 l 2
 467 -5 l 0
 466 -4 466 -2 466 0 c 0
 466 1 l 0
 464 12 461 38 462 81 c 1
 414 29 334 -13 272 -13 c 0
 201 -13 142 25 123 97 c 0
EndSplineSet
EndChar

StartChar: afii10089
Encoding: 1095 1095 422
Width: 613
Flags: MW
LayerCount: 2
Fore
SplineSet
146 542 m 1
 246 554 l 1
 248 549 261 509 250 449 c 0
 245 420 l 0
 239 383 231 341 244 303 c 0
 258 260 293 236 336 236 c 0
 388 236 442 271 475 316 c 0
 499 350 508 382 515 424 c 0
 536 542 l 0
 622 542 l 0
 622 542 581 310 555 161 c 17
 537 61 565 0 565 0 c 25
 458 -5 l 25
 458 -5 452 64 467 150 c 9
 475 194 488 263 488 263 c 0
 443 204 372 167 304 167 c 0
 233 167 173 205 154 277 c 0
 141 324 150 373 158 420 c 1
 169 483 158 520 146 542 c 1
EndSplineSet
EndChar

StartChar: afii10090
Encoding: 1096 1096 423
Width: 613
Flags: MW
LayerCount: 2
Fore
SplineSet
71 137 m 0
 72 143 73 151 74 157 c 2
 121 420 l 2
 132 483 121 520 109 542 c 1
 203 554 l 1
 205 549 218 509 207 449 c 2
 202 420 l 1
 155 158 l 2
 153 149 152 138 150 128 c 0
 147 111 145 94 149 79 c 0
 155 60 169 49 186 49 c 0
 219 49 247 83 259 98 c 0
 284 131 291 154 296 183 c 2
 359 542 l 1
 439 542 l 1
 373 165 l 2
 372 157 370 148 368 139 c 0
 365 124 363 108 365 93 c 0
 369 63 389 52 408 52 c 0
 430 52 456 66 482 102 c 0
 502 131 509 154 514 180 c 2
 577 542 l 1
 655 542 l 1
 655 542 615 310 589 161 c 0
 571 61 605 0 605 0 c 1
 498 -5 l 1
 498 -5 496 21 498 62 c 1
 496 59 493 56 491 53 c 0
 460 15 413 -13 369 -13 c 0
 320 -13 287 21 287 66 c 1
 257 18 203 -13 151 -13 c 0
 121 -13 89 -2 74 30 c 1
 58 61 64 98 71 137 c 0
EndSplineSet
EndChar

StartChar: afii10091
Encoding: 1097 1097 424
Width: 613
Flags: MW
LayerCount: 2
Fore
SplineSet
71 137 m 0
 72 143 73 151 74 157 c 2
 121 420 l 2
 132 483 121 520 109 542 c 1
 203 554 l 1
 205 549 218 509 207 449 c 2
 202 420 l 1
 155 158 l 2
 153 149 152 138 150 128 c 0
 147 111 145 94 149 79 c 0
 155 60 169 49 186 49 c 0
 219 49 247 83 259 98 c 0
 284 131 291 154 296 183 c 2
 359 542 l 1
 439 542 l 1
 373 165 l 2
 372 157 370 148 368 139 c 0
 365 124 363 108 365 93 c 0
 369 63 389 52 408 52 c 0
 430 52 456 66 482 102 c 0
 502 131 509 154 514 180 c 2
 577 542 l 1
 655 542 l 1
 655 542 615 310 589 161 c 0
 571 61 605 0 605 0 c 1
 601 0 596 -1 592 -1 c 1
 577 -55 522 -110 511 -136 c 1
 420 -137 l 1
 446 -89 500 -45 505 -16 c 0
 506 -9 502 -8 500 -5 c 1
 498 -5 l 1
 498 -5 498 -4 498 -2 c 0
 498 -1 498 -1 498 0 c 0
 498 0 l 0
 497 10 497 32 498 62 c 1
 496 59 493 56 491 53 c 0
 460 15 413 -13 369 -13 c 0
 320 -13 287 21 287 66 c 1
 257 18 203 -13 151 -13 c 0
 121 -13 89 -2 74 30 c 1
 58 61 64 98 71 137 c 0
EndSplineSet
EndChar

StartChar: afii10092
Encoding: 1098 1098 425
Width: 613
Flags: MW
LayerCount: 2
Fore
SplineSet
130 468 m 1
 143 543 l 1
 337 543 l 1
 300 329 l 1
 314 329 l 0
 428 329 482 321 512 295 c 0
 556 258 580 213 569 150 c 0
 559 94 459 0 358 0 c 0
 257 0 241 21 166 35 c 17
 242 468 l 1
 130 468 l 1
259 98 m 0
 259 98 284 63 355 63 c 0
 426 63 474 124 480 156 c 0
 486 188 469 240 420 251 c 0
 387 259 344 259 307 259 c 0
 287 259 l 0
 259 98 l 0
EndSplineSet
EndChar

StartChar: afii10093
Encoding: 1099 1099 426
Width: 613
Flags: MW
LayerCount: 2
Fore
SplineSet
65 35 m 9
 100 233 154 543 154 543 c 0
 242 543 l 0
 243 541 242 539 242 537 c 0
 240 528 233 527 231 514 c 0
 198 329 l 0
 213 329 l 0
 327 329 359 321 389 295 c 0
 433 258 445 213 434 150 c 0
 424 94 369 35 306 16 c 0
 287 10 253 0 205 0 c 8
 157 0 112 24 65 35 c 9
158 98 m 25
 158 98 163 63 229 63 c 0
 295 63 339 124 345 156 c 0
 351 188 346 240 297 251 c 0
 264 259 242 259 205 259 c 0
 186 259 l 0
 186 259 169 161 158 98 c 25
487 -5 m 25
 487 -5 482 64 497 150 c 9
 524 303 566 543 566 543 c 0
 654 543 l 0
 655 541 655 539 655 537 c 0
 653 528 645 527 643 514 c 0
 581 161 l 1
 563 61 591 0 591 0 c 25
 487 -5 l 25
EndSplineSet
EndChar

StartChar: afii10094
Encoding: 1100 1100 427
Width: 613
Flags: MW
LayerCount: 2
Fore
SplineSet
114 35 m 9
 203 543 l 0
 291 543 l 0
 292 541 292 539 292 537 c 0
 290 528 282 527 280 514 c 0
 247 329 l 0
 308 329 l 0
 422 329 461 321 493 295 c 0
 539 258 553 213 542 150 c 0
 532 94 474 35 408 16 c 0
 384 9 339 0 281 0 c 8
 223 0 169 23 114 35 c 9
207 98 m 17
 207 98 251 73 286 73 c 0
 321 73 344 73 377 82 c 0
 431 96 450 124 456 156 c 0
 462 188 455 240 402 251 c 0
 366 259 338 259 301 259 c 0
 235 259 l 0
 235 259 218 161 207 98 c 17
EndSplineSet
EndChar

StartChar: afii10095
Encoding: 1101 1101 428
Width: 613
Flags: MW
LayerCount: 2
Fore
SplineSet
92 87 m 1
 165 158 l 1
 173 151 165 139 168 130 c 0
 170 124 202 59 295 59 c 0
 394 59 488 136 510 259 c 1
 242 259 l 1
 254 325 l 1
 514 325 l 1
 508 416 449 475 362 475 c 0
 308 475 250 452 206 410 c 1
 167 467 l 1
 229 523 306 553 382 553 c 0
 535 553 628 432 599 269 c 0
 570 106 436 -13 277 -13 c 0
 190 -13 124 24 92 87 c 1
EndSplineSet
EndChar

StartChar: afii10096
Encoding: 1102 1102 429
Width: 613
Flags: MW
LayerCount: 2
Fore
SplineSet
62 0 m 1
 135 410 l 2
 146 473 136 520 124 542 c 1
 220 554 l 1
 222 549 235 509 224 449 c 2
 202 325 l 1
 287 325 l 1
 327 462 413 554 494 554 c 0
 576 554 637 456 604 269 c 0
 572 89 477 -14 392 -14 c 0
 303 -14 246 98 272 259 c 1
 190 259 l 1
 144 0 l 1
 62 0 l 1
364 274 m 0
 340 140 364 59 405 59 c 0
 443 59 493 129 517 265 c 0
 543 414 515 481 477 481 c 0
 437 481 387 407 364 274 c 0
EndSplineSet
EndChar

StartChar: afii10097
Encoding: 1103 1103 430
Width: 613
Flags: MW
LayerCount: 2
Fore
SplineSet
86 0 m 1
 277 220 l 1
 252 225 237 234 221 248 c 0
 178 285 166 329 177 392 c 0
 187 448 242 507 304 526 c 0
 333 535 381 543 416 543 c 2
 449 543 l 2
 602 543 548 516 613 499 c 1
 608 492 596 464 591 434 c 2
 543 161 l 2
 525 61 553 0 553 0 c 1
 450 -5 l 1
 450 -5 445 64 460 150 c 0
 463 170 467 191 471 214 c 1
 367 214 l 1
 365 214 l 1
 179 0 l 1
 86 0 l 1
262 386 m 0
 256 354 257 303 307 292 c 0
 340 284 347 284 376 284 c 2
 483 284 l 1
 495 355 506 415 506 415 c 1
 513 449 l 1
 513 449 506 470 451 470 c 2
 392 470 l 2
 367 470 364 470 332 461 c 0
 281 447 268 418 262 386 c 0
EndSplineSet
EndChar

StartChar: afii10051
Encoding: 1026 1026 433
Width: 613
Flags: W
LayerCount: 2
Fore
SplineSet
132 666 m 1
 145 740 l 1
 520 740 l 1
 506 666 l 1
 329 666 l 1
 284 412 l 1
 330 470 412 503 472 503 c 0
 532 503 615 482 631 422 c 0
 643 379 633 323 626 283 c 2
 586 54 l 2
 577 1 564 -56 526 -109 c 0
 480 -172 398 -207 327 -207 c 0
 262 -207 204 -177 169 -125 c 0
 236 -57 l 0
 242 -63 236 -72 240 -79 c 0
 243 -82 280 -133 342 -133 c 0
 377 -133 425 -116 450 -86 c 0
 482 -48 492 0 500 44 c 2
 542 281 l 2
 548 317 556 361 535 394 c 0
 521 416 467 426 429 426 c 0
 391 426 323 400 300 374 c 0
 283 355 270 318 264 298 c 1
 211 -1 l 1
 127 -1 l 1
 245 666 l 1
 132 666 l 1
EndSplineSet
EndChar

StartChar: afii10053
Encoding: 1028 1028 435
Width: 613
Flags: W
LayerCount: 2
Fore
SplineSet
123 365 m 0
 175 661 356 745 471 745 c 0
 569 745 648 688 672 599 c 1
 586 560 l 1
 581 564 583 571 583 572 c 0
 584 575 584 578 585 581 c 0
 586 587 585 589 583 593 c 0
 562 645 515 679 457 679 c 0
 362 679 260 588 216 424 c 1
 505 424 l 1
 491 348 l 1
 201 348 l 1
 176 163 250 59 354 59 c 0
 412 59 477 94 521 150 c 1
 575 110 l 1
 515 34 425 -12 337 -12 c 0
 215 -12 73 79 123 365 c 0
EndSplineSet
EndChar

StartChar: afii10058
Encoding: 1033 1033 440
Width: 613
Flags: W
LayerCount: 2
Fore
SplineSet
25 37 m 1
 68 114 l 1
 72 109 69 100 70 94 c 0
 71 88 77 62 91 62 c 0
 99 62 115 128 120 150 c 0
 140 233 201 543 225 667 c 0
 232 702 230 740 230 740 c 1
 514 740 l 1
 515 738 515 737 515 735 c 0
 513 726 505 725 503 712 c 2
 454 434 l 1
 466 434 l 2
 524 434 560 434 596 393 c 0
 632 352 646 292 631 206 c 0
 618 130 574 57 511 23 c 0
 471 1 434 1 398 1 c 2
 296 1 l 1
 413 667 l 1
 307 667 l 1
 278 528 214 204 190 115 c 0
 162 14 124 -8 94 -8 c 0
 65 -8 40 7 25 37 c 1
391 74 m 1
 416 74 l 2
 435 74 454 75 476 89 c 0
 511 112 537 161 546 214 c 0
 555 267 547 320 519 346 c 0
 500 364 477 365 455 365 c 2
 442 365 l 1
 391 74 l 1
EndSplineSet
EndChar

StartChar: afii10059
Encoding: 1034 1034 441
Width: 613
Flags: W
LayerCount: 2
Fore
SplineSet
32 0 m 1
 162 739 l 1
 254 739 l 1
 255 737 255 736 255 734 c 0
 253 725 245 724 243 711 c 2
 192 423 l 1
 357 423 l 1
 413 740 l 1
 501 740 l 1
 502 738 502 737 502 735 c 0
 500 726 492 725 490 712 c 2
 441 434 l 1
 454 434 l 2
 515 434 553 434 591 393 c 0
 629 352 644 292 629 206 c 0
 616 130 570 57 504 23 c 0
 462 1 424 1 386 1 c 2
 283 1 l 1
 345 352 l 1
 180 352 l 1
 118 0 l 1
 32 0 l 1
378 74 m 1
 406 74 l 2
 427 74 447 75 470 89 c 0
 507 112 535 161 544 214 c 0
 553 267 544 320 513 346 c 0
 492 364 468 365 444 365 c 2
 429 365 l 1
 378 74 l 1
EndSplineSet
EndChar

StartChar: afii10060
Encoding: 1035 1035 442
Width: 613
Flags: W
LayerCount: 2
Fore
SplineSet
148 666 m 1
 161 740 l 1
 536 740 l 1
 522 666 l 1
 345 666 l 1
 300 412 l 1
 346 470 428 503 488 503 c 0
 548 503 617 482 633 422 c 0
 645 379 635 323 628 283 c 2
 578 -1 l 1
 494 -1 l 1
 544 281 l 2
 550 317 558 361 537 394 c 0
 523 416 483 426 445 426 c 0
 407 426 339 400 316 374 c 0
 299 355 286 318 280 298 c 1
 227 -1 l 1
 143 -1 l 1
 261 666 l 1
 148 666 l 1
EndSplineSet
EndChar

StartChar: afii10145
Encoding: 1039 1039 445
Width: 613
Flags: W
LayerCount: 2
Fore
SplineSet
65 0 m 1
 195 739 l 1
 287 739 l 1
 288 737 288 736 288 734 c 0
 286 725 278 724 276 711 c 2
 163 71 l 1
 483 71 l 1
 601 739 l 1
 691 739 l 1
 692 738 691 736 691 734 c 0
 689 725 681 725 679 713 c 2
 553 0 l 1
 354 0 l 1
 324 -172 l 1
 241 -172 l 1
 271 0 l 1
 65 0 l 1
EndSplineSet
EndChar

StartChar: afii10099
Encoding: 1106 1106 446
Width: 613
Flags: W
LayerCount: 2
Fore
SplineSet
120 0 m 1
 234 645 l 1
 160 645 l 1
 171 709 l 1
 245 709 l 1
 259 788 l 1
 358 788 l 1
 358 787 358 786 358 785 c 0
 357 779 351 775 348 772 c 0
 343 768 343 765 342 761 c 2
 332 709 l 1
 466 709 l 1
 455 645 l 1
 321 645 l 1
 286 446 l 1
 336 506 411 555 485 555 c 0
 547 555 597 520 613 459 c 0
 625 415 616 371 609 329 c 2
 558 38 l 2
 550 -9 540 -54 509 -99 c 0
 460 -171 377 -207 300 -207 c 0
 233 -207 178 -179 148 -131 c 1
 216 -57 l 1
 222 -63 220 -71 223 -79 c 0
 226 -86 253 -133 319 -133 c 0
 365 -133 412 -109 440 -65 c 0
 458 -36 466 -7 471 22 c 2
 525 327 l 2
 532 365 540 412 517 447 c 0
 502 470 476 481 449 481 c 0
 392 481 332 433 306 405 c 0
 278 375 268 349 262 312 c 2
 207 0 l 1
 120 0 l 1
EndSplineSet
EndChar

StartChar: afii10101
Encoding: 1108 1108 448
Width: 613
Flags: W
LayerCount: 2
Fore
SplineSet
125 271 m 0
 154 434 288 553 447 553 c 0
 534 553 600 516 632 453 c 1
 559 382 l 1
 551 389 559 400 556 409 c 0
 554 415 522 480 429 480 c 0
 342 480 260 422 226 325 c 1
 489 325 l 1
 478 259 l 1
 211 259 l 1
 199 143 262 64 362 64 c 0
 416 64 504 88 548 130 c 5
 587 73 l 5
 525 17 417 -13 341 -13 c 0
 188 -13 96 108 125 271 c 0
EndSplineSet
EndChar

StartChar: afii10106
Encoding: 1113 1113 453
Width: 613
Flags: W
LayerCount: 2
Fore
SplineSet
25 37 m 1
 68 114 l 1
 72 109 69 100 70 94 c 0
 71 88 77 62 91 62 c 0
 99 62 115 128 120 150 c 0
 133 201 134 209 160 337 c 8
 173 400 199 448 230 485 c 0
 261 522 308 543 338 543 c 0
 452 543 412 516 477 499 c 1
 472 492 459 464 454 434 c 0
 436 328 l 1
 448 328 l 2
 540 328 563 320 588 294 c 0
 623 257 633 212 622 149 c 0
 612 93 533 0 459 0 c 8
 395 0 366 21 300 35 c 1
 375 458 l 1
 375 458 381 479 345 479 c 0
 300 479 252 400 238 330 c 16
 209 190 206 172 190 115 c 0
 162 14 124 -8 94 -8 c 0
 65 -8 40 7 25 37 c 1
395 98 m 1
 395 70 423 63 442 63 c 0
 504 63 537 123 543 155 c 0
 549 187 546 239 507 250 c 0
 481 258 466 258 438 258 c 2
 423 258 l 1
 395 98 l 1
EndSplineSet
EndChar

StartChar: afii10107
Encoding: 1114 1114 454
Width: 613
Flags: W
LayerCount: 2
Fore
SplineSet
31 0 m 1
 103 409 l 1
 114 472 105 520 93 542 c 1
 193 554 l 1
 195 549 207 509 196 449 c 1
 173 315 l 1
 336 315 l 1
 376 541 l 1
 459 541 l 1
 459 541 l 1
 465 541 l 1
 466 539 465 538 465 536 c 0
 463 527 456 526 454 513 c 2
 421 328 l 1
 441 328 l 2
 533 328 563 320 588 294 c 0
 623 257 633 212 622 149 c 0
 612 93 581 49 539 20 c 0
 527 12 502 0 428 0 c 0
 354 0 352 21 286 35 c 1
 322 245 l 1
 160 245 l 1
 117 0 l 1
 31 0 l 1
381 98 m 1
 381 80 428 63 463 63 c 16
 503 63 537 123 543 155 c 0
 549 187 546 239 507 250 c 0
 481 258 452 258 424 258 c 2
 409 258 l 1
 381 98 l 1
EndSplineSet
EndChar

StartChar: afii10108
Encoding: 1115 1115 455
Width: 613
Flags: W
LayerCount: 2
Fore
SplineSet
332 709 m 1
 466 709 l 1
 455 645 l 1
 321 645 l 1
 286 446 l 1
 336 506 411 555 485 555 c 0
 547 555 596 520 612 459 c 0
 624 415 616 371 609 329 c 2
 579 161 l 2
 561 61 591 0 591 0 c 1
 484 -5 l 1
 484 -5 478 64 493 150 c 2
 525 327 l 2
 532 365 539 412 516 447 c 0
 501 470 476 481 449 481 c 0
 392 481 331 433 305 405 c 0
 277 375 268 349 262 312 c 2
 207 0 l 1
 120 0 l 1
 234 645 l 1
 160 645 l 1
 171 709 l 1
 245 709 l 1
 259 788 l 1
 357 788 l 1
 357 787 357 786 357 785 c 0
 356 779 350 775 347 772 c 0
 342 768 342 765 341 761 c 2
 332 709 l 1
EndSplineSet
EndChar

StartChar: afii10193
Encoding: 1119 1119 458
Width: 613
Flags: W
LayerCount: 2
Fore
SplineSet
123 97 m 0
 110 144 118 193 126 240 c 2
 157 410 l 2
 168 473 158 520 146 542 c 1
 246 554 l 1
 248 549 261 509 250 449 c 2
 213 240 l 2
 206 203 199 161 212 123 c 0
 226 80 261 56 304 56 c 0
 356 56 410 91 443 136 c 0
 467 170 476 202 483 244 c 2
 536 542 l 1
 622 542 l 1
 555 161 l 2
 537 61 574 0 574 0 c 1
 468 -5 l 1
 468 -5 460 22 462 81 c 1
 440 57 410 35 379 18 c 1
 379 13 378 6 377 -1 c 0
 366 -56 307 -110 296 -136 c 1
 205 -137 l 1
 231 -89 285 -45 290 -16 c 0
 290 -14 290 -13 290 -12 c 1
 284 -13 278 -13 272 -13 c 0
 201 -13 142 25 123 97 c 0
EndSplineSet
EndChar

StartChar: afii10050
Encoding: 1168 1168 459
Width: 613
Flags: W
LayerCount: 2
Fore
SplineSet
80 0 m 1
 210 740 l 1
 580 740 l 1
 615 939 l 1
 699 939 l 1
 651 667 l 1
 276 667 l 1
 233 424 l 2
 220 348 l 1
 172 74 l 2
 167 45 165 29 160 0 c 1
 80 0 l 1
EndSplineSet
EndChar

StartChar: afii10098
Encoding: 1169 1169 460
Width: 613
Flags: W
LayerCount: 2
Fore
SplineSet
103 0 m 1
 199 544 l 1
 459 544 l 1
 499 544 529 591 535 623 c 1
 546 685 l 1
 645 691 l 1
 645 691 623 647 618 617 c 16
 608 561 577 517 535 488 c 0
 523 480 498 469 424 469 c 1
 270 469 l 1
 187 0 l 1
 103 0 l 1
EndSplineSet
EndChar

StartChar: afii10084.mkd
Encoding: 65548 -1 465
Width: 614
Flags: W
LayerCount: 2
Fore
SplineSet
235 737 m 0
 639 737 l 4
 627 671 l 4
 224 671 l 0
 235 737 l 0
EndSplineSet
Refer: 423 1096 N 1 0 0 1 0 0 2
EndChar

StartChar: afii61352
Encoding: 8470 8470 467
Width: 613
Flags: W
LayerCount: 2
Fore
SplineSet
583 558 m 0
 628 558 661 489 636 347 c 0
 609 193 548 124 502 124 c 0
 452 124 422 204 445 333 c 0
 469 469 531 558 583 558 c 0
502 338 m 0
 484 239 496 192 515 192 c 0
 533 192 561 236 579 338 c 0
 597 440 588 492 568 492 c 0
 549 492 520 440 502 338 c 0
385 65 m 0
 604 65 l 0
 593 0 l 0
 374 0 l 0
 385 65 l 0
31 0 m 0
 161 739 l 0
 242 739 l 0
 310 253 l 0
 396 740 l 0
 484 740 l 0
 484 733 480 728 478 725 c 0
 474 720 472 717 471 709 c 0
 345 -1 l 0
 280 -1 l 0
 202 520 l 0
 111 0 l 0
 31 0 l 0
EndSplineSet
EndChar

StartChar: Hbar
Encoding: 294 294 468
Width: 613
Flags: W
LayerCount: 2
Fore
SplineSet
205 739 m 1
 297 739 l 1
 298 737 298 736 298 734 c 0
 296 725 288 724 286 711 c 2
 274 640 l 1
 563 640 l 1
 581 739 l 1
 671 739 l 1
 672 738 672 736 672 734 c 0
 670 725 661 725 659 713 c 2
 646 640 l 1
 697 640 l 1
 685 577 l 1
 635 577 l 1
 533 -1 l 1
 449 -1 l 1
 512 352 l 1
 223 352 l 1
 161 0 l 1
 75 0 l 1
 176 577 l 1
 132 577 l 1
 144 640 l 1
 188 640 l 1
 205 739 l 1
552 577 m 1
 262 577 l 1
 235 423 l 1
 525 423 l 1
 552 577 l 1
EndSplineSet
EndChar

StartChar: Tbar
Encoding: 358 358 491
Width: 613
Flags: W
LayerCount: 2
Fore
SplineSet
178 740 m 1
 690 740 l 1
 676 666 l 1
 458 666 l 1
 417 430 l 1
 585 430 l 1
 573 364 l 1
 405 364 l 1
 341 -1 l 1
 257 -1 l 1
 321 364 l 1
 165 364 l 1
 177 430 l 1
 333 430 l 1
 374 666 l 1
 164 666 l 1
 178 740 l 1
EndSplineSet
EndChar

StartChar: tbar
Encoding: 359 359 497
Width: 613
Flags: W
LayerCount: 2
Fore
SplineSet
355 687 m 1
 451 702 l 1
 452 700 450 698 450 696 c 0
 448 687 442 681 438 671 c 0
 427 640 402 543 402 543 c 1
 579 543 l 1
 567 472 l 1
 388 472 l 1
 375 424 364 376 354 328 c 1
 516 328 l 1
 504 261 l 1
 341 261 l 1
 341 260 l 2
 327 181 326 161 325 156 c 0
 323 91 361 69 401 69 c 0
 435 69 480 84 532 118 c 1
 546 50 l 1
 494 16 428 -10 363 -10 c 0
 308 -10 268 11 249 47 c 0
 225 92 235 147 243 195 c 0
 247 217 252 239 256 261 c 1
 145 261 l 1
 157 328 l 1
 269 328 l 1
 279 376 291 424 303 472 c 1
 176 472 l 1
 190 542 l 1
 319 542 l 1
 355 687 l 1
EndSplineSet
EndChar

StartChar: Uogonek
Encoding: 370 370 505
Width: 613
Flags: W
LayerCount: 2
Fore
SplineSet
200 739 m 1
 293 739 l 1
 293 737 293 735 293 733 c 0
 292 726 287 721 283 717 c 0
 278 711 276 706 275 701 c 2
 196 254 l 2
 190 217 184 181 195 145 c 0
 212 88 261 57 320 57 c 0
 378 57 439 87 476 144 c 0
 501 182 508 219 515 257 c 2
 600 739 l 1
 679 739 l 1
 595 259 l 2
 585 205 574 154 537 102 c 0
 522 81 505 63 486 48 c 0
 440 12 342 -69 330 -80 c 0
 320 -89 306 -103 303 -121 c 0
 300 -139 310 -154 332 -154 c 0
 339 -154 348 -153 361 -148 c 0
 381 -141 394 -133 403 -127 c 1
 394 -181 l 1
 367 -201 336 -209 307 -209 c 0
 246 -209 219 -176 226 -136 c 0
 232 -101 268 -59 328 -13 c 1
 321 -14 313 -13 306 -13 c 0
 219 -13 144 26 116 102 c 0
 98 153 106 203 115 255 c 2
 200 739 l 1
EndSplineSet
EndChar

StartChar: IJ
Encoding: 306 306 521
Width: 613
Flags: W
LayerCount: 2
Fore
SplineSet
31 -1 m 1
 43 69 l 1
 123 69 l 1
 229 670 l 1
 157 670 l 1
 169 739 l 1
 729 739 l 1
 717 670 l 1
 644 670 l 1
 537 62 l 2
 528 9 518 -47 480 -100 c 0
 434 -163 365 -199 294 -199 c 0
 229 -199 171 -169 136 -117 c 1
 203 -49 l 1
 209 -55 203 -64 207 -71 c 0
 210 -74 247 -125 309 -125 c 0
 344 -125 379 -108 404 -78 c 0
 436 -40 446 8 454 52 c 2
 455 61 l 1
 563 670 l 1
 312 670 l 1
 205 68 l 1
 307 68 l 1
 295 -1 l 1
 31 -1 l 1
EndSplineSet
EndChar

StartChar: ij
Encoding: 307 307 522
Width: 613
Flags: W
LayerCount: 2
Fore
SplineSet
329 472 m 1
 311 369 293 267 275 164 c 0
 269 123 263 75 310 75 c 0
 336 75 342 79 372 81 c 1
 357 0 l 1
 351 0 344 0 338 0 c 0
 326 0 327 0 316 0 c 0
 278 0 242 2 219 18 c 0
 182 44 176 93 188 159 c 0
 188 161 189 162 189 164 c 2
 243 473 l 1
 121 473 l 1
 134 543 l 1
 629 543 l 1
 540 38 l 2
 532 -9 523 -54 492 -99 c 0
 443 -171 360 -207 283 -207 c 0
 216 -207 160 -179 130 -131 c 1
 199 -57 l 1
 205 -63 202 -71 205 -79 c 0
 208 -86 235 -133 301 -133 c 0
 347 -133 394 -109 422 -65 c 0
 440 -36 446 -7 451 22 c 2
 531 472 l 1
 329 472 l 1
270 717 m 0
 276 751 308 778 342 778 c 0
 376 778 399 751 393 717 c 0
 387 683 355 656 321 656 c 0
 287 656 264 683 270 717 c 0
557 717 m 0
 563 751 595 778 629 778 c 0
 663 778 685 751 679 717 c 0
 673 683 641 656 607 656 c 0
 573 656 551 683 557 717 c 0
EndSplineSet
EndChar

StartChar: napostrophe
Encoding: 329 329 525
Width: 613
Flags: W
LayerCount: 2
Fore
SplineSet
184 0 m 1
 251 381 l 2
 265 458 258 516 245 542 c 1
 346 554 l 1
 348 548 353 513 346 443 c 1
 396 499 444 554 528 555 c 0
 590 556 639 520 655 459 c 0
 667 415 659 371 652 329 c 2
 652 329 640 265 622 161 c 0
 604 61 634 0 634 0 c 1
 527 -5 l 1
 527 -5 521 64 536 150 c 0
 548 219 568 327 568 327 c 2
 575 365 582 412 559 447 c 0
 544 470 519 481 492 481 c 0
 435 481 396 433 370 405 c 0
 342 375 332 349 326 312 c 2
 271 0 l 1
 184 0 l 1
EndSplineSet
Refer: 56 8217 N 1 0 0 1 -195 0 2
EndChar

StartChar: longs
Encoding: 383 383 532
Width: 613
Flags: W
LayerCount: 2
Fore
SplineSet
172 -172 m 1
 302 563 l 1
 310 611 320 656 356 701 c 0
 405 762 482 796 558 796 c 0
 627 796 680 769 711 722 c 1
 658 643 l 1
 654 643 650 645 651 653 c 0
 651 658 652 662 649 667 c 0
 633 702 594 729 542 729 c 0
 497 729 452 709 422 669 c 0
 398 636 390 599 384 563 c 0
 383 559 383 556 382 552 c 2
 254 -172 l 1
 172 -172 l 1
EndSplineSet
EndChar

StartChar: endash
Encoding: 8211 8211 547
Width: 613
Flags: W
LayerCount: 2
Fore
SplineSet
199 413 m 0
 561 413 l 0
 547 334 l 0
 185 334 l 0
 199 413 l 0
EndSplineSet
EndChar

StartChar: emdash
Encoding: 8212 8212 548
Width: 613
Flags: W
LayerCount: 2
Fore
SplineSet
128 413 m 0
 642 413 l 0
 628 334 l 0
 114 334 l 0
 128 413 l 0
EndSplineSet
EndChar

StartChar: afii00208
Encoding: 8213 8213 549
Width: 613
Flags: W
LayerCount: 2
Fore
SplineSet
73 413 m 0
 687 413 l 0
 673 334 l 0
 59 334 l 0
 73 413 l 0
EndSplineSet
EndChar

StartChar: quotereversed
Encoding: 8219 8219 551
Width: 613
Flags: W
LayerCount: 2
Fore
SplineSet
322 658 m 0
 333 719 380 757 422 757 c 0
 461 757 484 725 478 689 c 0
 472 657 448 643 436 636 c 0
 424 629 404 618 400 594 c 0
 397 574 405 555 409 545 c 0
 417 526 432 497 456 471 c 0
 409 435 l 0
 341 519 311 596 322 658 c 0
EndSplineSet
EndChar

StartChar: uni201F
Encoding: 8223 8223 552
Width: 613
Flags: W
LayerCount: 2
Fore
SplineSet
199 658 m 0
 210 719 257 757 299 757 c 0
 338 757 361 725 355 689 c 0
 349 657 325 643 313 636 c 0
 301 629 282 618 278 594 c 0
 275 574 282 555 286 545 c 0
 294 526 309 497 333 471 c 0
 286 435 l 0
 218 519 188 596 199 658 c 0
445 658 m 0
 456 719 503 757 545 757 c 0
 584 757 607 725 601 689 c 0
 595 657 571 643 559 636 c 0
 547 629 527 618 523 594 c 0
 520 574 528 555 532 545 c 0
 540 526 555 497 579 471 c 0
 532 435 l 0
 464 519 434 596 445 658 c 0
EndSplineSet
EndChar

StartChar: perthousand
Encoding: 8240 8240 553
Width: 613
Flags: W
LayerCount: 2
Fore
SplineSet
349 299 m 0
 400 299 431 232 415 142 c 0
 399 54 346 -12 295 -12 c 0
 244 -12 212 54 228 143 c 0
 244 234 299 299 349 299 c 0
336 236 m 0
 325 236 306 217 294 147 c 0
 280 67 295 52 305 52 c 0
 316 52 335 70 347 139 c 0
 362 223 345 236 336 236 c 0
558 299 m 0
 609 299 640 232 624 142 c 0
 608 54 555 -12 504 -12 c 0
 453 -12 421 54 437 143 c 0
 453 234 508 299 558 299 c 0
545 236 m 0
 534 236 515 217 503 147 c 0
 489 67 504 52 514 52 c 0
 525 52 544 70 556 139 c 0
 571 223 554 236 545 236 c 0
400 739 m 0
 479 739 l 0
 140 0 l 0
 65 0 l 0
 400 739 l 0
249 753 m 0
 300 753 332 686 316 596 c 0
 300 508 246 442 195 442 c 0
 144 442 113 508 129 597 c 0
 145 688 199 753 249 753 c 0
237 690 m 0
 226 690 207 672 195 602 c 0
 181 522 196 506 206 506 c 0
 217 506 235 524 247 593 c 0
 262 677 246 690 237 690 c 0
EndSplineSet
EndChar

StartChar: minute
Encoding: 8242 8242 554
Width: 613
Flags: W
LayerCount: 2
Fore
SplineSet
445 758 m 0
 551 758 l 0
 409 554 l 0
 335 554 l 0
 445 758 l 0
EndSplineSet
EndChar

StartChar: uni207F
Encoding: 8319 8319 558
Width: 613
Flags: W
LayerCount: 2
Fore
SplineSet
528 459 m 1
 510 359 540 298 540 298 c 1
 445 293 l 1
 445 293 440 361 455 447 c 1
 465 505 l 0
 468 521 471 538 458 550 c 0
 450 562 438 567 424 567 c 0
 395 567 364 554 351 546 c 0
 336 530 332 518 328 497 c 0
 293 299 l 1
 220 299 l 1
 278 624 l 1
 350 624 l 1
 344 586 l 1
 375 613 412 632 450 632 c 0
 491 632 523 609 534 569 c 0
 543 548 539 525 536 506 c 0
 528 459 l 1
EndSplineSet
EndChar

StartChar: franc
Encoding: 8355 8355 559
Width: 613
Flags: W
LayerCount: 2
Fore
SplineSet
208 0 m 1
 124 0 l 1
 167 244 l 1
 75 244 l 5
 88 315 l 5
 180 315 l 1
 194 399 l 1
 103 399 l 5
 115 471 l 5
 207 471 l 1
 254 740 l 1
 680 740 l 1
 668 668 l 1
 326 668 l 1
 291 471 l 1
 567 471 l 1
 555 399 l 1
 278 399 l 1
 263 315 l 1
 540 315 l 1
 527 244 l 1
 251 244 l 1
 208 0 l 1
EndSplineSet
EndChar

StartChar: lira
Encoding: 8356 8356 560
Width: 613
Flags: W
LayerCount: 2
Fore
SplineSet
626 679 m 1
 562 613 l 1
 554 620 556 630 550 638 c 0
 546 644 518 672 468 672 c 0
 404 672 333 624 316 525 c 0
 312 500 311 475 312 449 c 1
 429 449 l 1
 417 381 l 1
 316 381 l 1
 317 360 318 337 317 315 c 1
 406 315 l 1
 394 248 l 1
 308 248 l 1
 296 196 273 147 240 106 c 1
 251 108 261 109 272 109 c 0
 351 109 392 60 460 60 c 0
 493 60 525 72 553 93 c 1
 574 32 l 1
 544 11 493 -18 441 -18 c 0
 365 -18 325 35 239 35 c 0
 215 35 168 31 85 -9 c 1
 67 58 l 1
 127 84 142 90 166 119 c 0
 196 156 218 200 229 248 c 1
 134 248 l 1
 146 315 l 1
 237 315 l 1
 238 337 236 359 235 381 c 1
 157 381 l 1
 169 449 l 1
 231 449 l 1
 230 474 231 498 236 524 c 0
 259 657 372 739 482 739 c 0
 539 739 590 718 626 679 c 1
EndSplineSet
EndChar

StartChar: peseta
Encoding: 8359 8359 561
Width: 613
VWidth: 0
Flags: W
LayerCount: 2
Fore
SplineSet
396 -12 m 0
 364 -12 338 11 330 47 c 0
 320 92 330 147 338 195 c 0
 354 287 372 379 393 472 c 1
 372 472 l 1
 355 421 328 375 296 350 c 0
 267 327 243 327 217 327 c 2
 154 327 l 1
 96 0 l 1
 31 0 l 1
 161 739 l 1
 286 739 l 2
 313 739 338 739 360 714 c 0
 391 680 399 613 388 542 c 1
 407 542 l 1
 439 687 l 1
 507 702 l 1
 507 700 506 698 506 696 c 0
 504 687 501 681 498 671 c 0
 491 640 470 543 470 543 c 1
 552 543 l 1
 565 551 580 555 594 555 c 0
 631 555 658 525 671 470 c 1
 635 395 l 1
 634 395 633 398 634 405 c 0
 635 409 635 412 634 416 c 0
 629 443 602 491 578 491 c 0
 559 491 538 461 530 417 c 0
 527 399 524 372 534 351 c 0
 545 327 583 314 605 280 c 0
 628 244 627 195 620 157 c 0
 606 75 554 -12 487 -12 c 0
 450 -12 433 -12 396 -12 c 0
213 662 m 1
 166 399 l 1
 221 399 l 2
 234 399 247 401 263 415 c 0
 287 437 305 480 313 527 c 0
 321 575 319 622 302 645 c 0
 291 660 277 662 263 662 c 2
 213 662 l 1
494 472 m 1
 457 472 l 1
 442 401 428 331 416 260 c 0
 402 181 400 161 399 156 c 0
 391 91 404 60 427 60 c 0
 447 60 470 59 499 59 c 0
 523 59 548 94 557 145 c 0
 560 165 562 193 552 214 c 0
 543 233 526 247 508 264 c 0
 496 275 455 309 472 404 c 0
 476 428 484 451 494 472 c 1
EndSplineSet
EndChar

StartChar: afii61248
Encoding: 8453 8453 562
Width: 613
Flags: W
LayerCount: 2
Fore
SplineSet
622 130 m 0
 605 36 535 -17 465 -17 c 0
 458 -17 451 -17 444 -16 c 0
 380 -5 339 56 353 135 c 0
 369 223 442 287 517 287 c 0
 524 287 530 287 537 286 c 0
 596 276 638 219 622 130 c 0
507 230 m 0
 472 230 430 198 419 135 c 0
 417 126 416 119 416 111 c 0
 416 64 441 40 472 40 c 0
 505 40 548 69 559 134 c 0
 561 144 561 154 561 162 c 0
 561 212 535 230 507 230 c 0
140 601 m 0
 155 687 226 751 311 751 c 0
 358 751 395 730 413 695 c 0
 416 688 l 1
 368 641 l 1
 361 647 l 0
 351 655 356 666 356 666 c 1
 353 672 338 694 302 694 c 0
 258 694 215 660 205 602 c 0
 204 594 203 587 203 580 c 0
 203 534 229 506 269 506 c 0
 294 506 336 518 355 536 c 0
 364 545 l 1
 395 499 l 1
 388 493 l 0
 354 463 299 447 259 447 c 0
 251 447 242 448 234 449 c 0
 165 461 126 523 140 601 c 0
EndSplineSet
Refer: 274 8260 N 1 0 0 1 0 0 2
EndChar

StartChar: afii61289
Encoding: 8467 8467 563
Width: 613
Flags: W
LayerCount: 2
Fore
SplineSet
415 75 m 0
 441 75 462 79 492 81 c 1
 476 0 l 1
 470 0 463 0 457 0 c 0
 445 0 412 1 401 1 c 0
 339 1 286 39 253 111 c 1
 215 92 175 82 133 82 c 1
 147 156 l 1
 175 156 203 165 230 180 c 1
 210 263 208 373 228 508 c 0
 253 676 308 796 446 796 c 0
 542 796 570 697 537 510 c 0
 516 393 437 248 329 160 c 1
 348 105 378 75 415 75 c 0
427 723 m 0
 392 723 339 649 319 516 c 0
 303 407 301 315 310 244 c 1
 381 319 437 427 451 507 c 0
 477 656 478 723 427 723 c 0
EndSplineSet
EndChar

StartChar: estimated
Encoding: 8494 8494 565
Width: 613
Flags: W
LayerCount: 2
Fore
SplineSet
317 748 m 0
 405 748 533 685 558 490 c 0
 562 463 564 436 564 405 c 0
 564 387 564 369 563 351 c 1
 185 351 l 1
 185 148 l 1
 231 87 293 68 335 68 c 0
 389 68 466 98 502 154 c 1
 549 100 l 1
 503 26 406 -12 328 -12 c 0
 182 -12 41 116 41 359 c 0
 41 624 187 748 317 748 c 0
185 422 m 1
 420 422 l 1
 420 614 l 1
 389 650 349 672 311 672 c 0
 277 672 225 653 185 597 c 1
 185 422 l 1
EndSplineSet
EndChar

StartChar: uni2070
Encoding: 8304 8304 566
Width: 613
Flags: W
LayerCount: 2
Fore
SplineSet
208 532 m 0
 234 679 348 770 444 770 c 0
 538 770 621 684 593 528 c 0
 565 370 450 296 362 296 c 0
 266 296 182 383 208 532 c 0
280 467 m 1
 508 662 l 1
 490 698 461 714 433 714 c 0
 380 714 303 654 283 541 c 0
 278 514 278 489 280 467 c 1
519 522 m 0
 524 552 526 579 524 601 c 1
 296 409 l 1
 314 373 343 355 374 355 c 0
 421 355 497 398 519 522 c 0
EndSplineSet
EndChar

StartChar: uni2075
Encoding: 8309 8309 567
Width: 613
Flags: W
LayerCount: 2
Fore
SplineSet
239 528 m 1
 301 761 l 1
 608 761 l 1
 598 703 l 1
 357 703 l 1
 330 591 l 1
 362 601 390 606 420 606 c 0
 520 606 593 551 576 453 c 0
 558 351 460 296 358 296 c 0
 287 296 225 322 193 368 c 0
 189 373 l 1
 264 413 l 1
 267 411 l 0
 278 404 272 392 272 392 c 1
 274 388 308 353 367 353 c 0
 427 353 484 389 496 454 c 0
 508 522 460 555 401 555 c 0
 363 555 320 541 289 515 c 0
 286 512 l 1
 239 528 l 1
EndSplineSet
EndChar

StartChar: uni2076
Encoding: 8310 8310 568
Width: 613
Flags: W
LayerCount: 2
Fore
SplineSet
272 657 m 1
 323 738 407 772 478 772 c 0
 526 772 572 757 602 730 c 0
 607 725 l 1
 545 679 l 1
 541 681 l 0
 531 687 532 696 530 698 c 0
 528 700 505 715 468 715 c 0
 429 715 341 698 307 564 c 1
 341 592 385 608 431 608 c 0
 516 608 587 552 570 454 c 0
 553 357 461 297 370 297 c 0
 317 297 267 317 239 359 c 0
 208 404 212 463 221 516 c 0
 229 559 243 613 272 657 c 1
494 451 m 0
 507 525 459 551 415 551 c 0
 375 551 328 528 297 494 c 1
 295 489 295 485 294 480 c 0
 281 407 321 354 383 354 c 0
 430 354 482 385 494 451 c 0
EndSplineSet
EndChar

StartChar: uni2077
Encoding: 8311 8311 569
Width: 613
Flags: W
LayerCount: 2
Fore
SplineSet
264 701 m 1
 275 761 l 1
 617 761 l 1
 611 726 l 1
 610 725 l 0
 559 657 509 588 463 519 c 0
 417 449 374 379 333 308 c 0
 331 304 l 1
 244 304 l 1
 250 313 l 0
 299 393 349 472 403 550 c 0
 437 600 473 651 509 701 c 1
 264 701 l 1
EndSplineSet
EndChar

StartChar: uni2078
Encoding: 8312 8312 570
Width: 613
Flags: W
LayerCount: 2
Fore
SplineSet
267 656 m 0
 279 722 360 773 451 773 c 0
 538 773 600 725 589 660 c 0
 581 616 540 576 487 552 c 1
 543 526 576 480 567 427 c 0
 554 353 463 297 359 297 c 0
 257 297 185 352 198 424 c 0
 207 477 261 525 327 551 c 1
 284 574 259 612 267 656 c 0
489 427 m 0
 496 466 457 505 388 523 c 1
 331 505 286 469 279 431 c 0
 272 391 310 355 372 355 c 0
 433 355 482 389 489 427 c 0
511 651 m 0
 517 684 485 712 435 712 c 0
 386 712 347 685 342 654 c 0
 333 606 409 575 423 570 c 1
 471 590 506 621 511 651 c 0
EndSplineSet
EndChar

StartChar: uni2079
Encoding: 8313 8313 571
Width: 613
Flags: W
LayerCount: 2
Fore
SplineSet
534 405 m 1
 484 331 402 297 329 297 c 0
 279 297 235 312 204 339 c 0
 199 344 l 1
 261 390 l 1
 264 388 l 0
 276 381 274 373 277 371 c 1
 277 371 300 355 341 355 c 0
 382 355 430 371 461 414 c 1
 467 423 485 451 499 507 c 1
 465 482 423 468 379 468 c 0
 292 468 224 525 240 616 c 0
 256 707 346 772 440 772 c 0
 502 772 567 742 586 670 c 0
 595 638 594 599 584 542 c 0
 571 467 548 426 534 405 c 1
316 618 m 0
 305 555 347 525 396 525 c 0
 436 525 480 546 509 576 c 1
 511 584 513 589 514 595 c 0
 527 670 485 715 428 715 c 0
 378 715 327 680 316 618 c 0
EndSplineSet
EndChar

StartChar: arrowleft
Encoding: 8592 8592 576
Width: 613
Flags: W
LayerCount: 2
Fore
SplineSet
169 133 m 1
 30 355 l 1
 34 381 l 1
 251 587 l 1
 280 527 l 1
 139 401 l 1
 591 401 l 1
 577 323 l 1
 124 323 l 1
 220 184 l 1
 169 133 l 1
EndSplineSet
EndChar

StartChar: arrowright
Encoding: 8594 8594 577
Width: 613
Flags: W
LayerCount: 2
Fore
SplineSet
366 133 m 1
 333 184 l 1
 477 323 l 1
 24 323 l 1
 38 401 l 1
 490 401 l 1
 393 527 l 1
 443 587 l 1
 587 381 l 1
 583 355 l 1
 366 133 l 1
EndSplineSet
EndChar

StartChar: arrowboth
Encoding: 8596 8596 578
Width: 613
Flags: W
LayerCount: 2
Fore
SplineSet
366 133 m 1
 333 184 l 1
 477 323 l 1
 124 323 l 1
 220 184 l 1
 169 133 l 1
 30 355 l 1
 34 381 l 1
 251 587 l 1
 280 527 l 1
 139 401 l 1
 490 401 l 1
 393 527 l 1
 443 587 l 1
 587 381 l 1
 583 355 l 1
 366 133 l 1
EndSplineSet
EndChar

StartChar: arrowupdn
Encoding: 8597 8597 579
Width: 613
Flags: W
LayerCount: 2
Fore
SplineSet
512 241 m 1
 241 -40 l 1
 215 -40 l 1
 59 243 l 1
 126 283 l 1
 221 112 l 1
 309 609 l 1
 141 437 l 1
 97 479 l 1
 368 760 l 1
 394 760 l 1
 550 477 l 1
 484 437 l 1
 388 608 l 1
 300 111 l 1
 469 283 l 1
 512 241 l 1
EndSplineSet
EndChar

StartChar: partialdiff
Encoding: 8706 8706 580
Width: 613
Flags: W
LayerCount: 2
Fore
SplineSet
397 481 m 0
 317 481 222 416 197 276 c 0
 173 138 239 59 324 59 c 0
 391 59 490 110 519 275 c 0
 548 440 459 481 397 481 c 0
312 778 m 1
 412 798 l 1
 576 695 648 523 609 300 c 0
 598 236 578 161 528 97 c 0
 472 25 391 -14 312 -14 c 0
 175 -14 76 101 105 264 c 0
 134 427 271 554 403 554 c 0
 458 554 505 532 534 493 c 1
 506 625 423 723 312 778 c 1
EndSplineSet
EndChar

StartChar: radical
Encoding: 8730 8730 586
Width: 613
Flags: W
LayerCount: 2
Fore
SplineSet
310 118 m 1
 675 788 l 1
 739 753 l 1
 332 0 l 1
 246 0 l 1
 193 376 l 1
 65 196 l 1
 92 350 l 1
 180 471 l 1
 261 471 l 1
 310 118 l 1
EndSplineSet
EndChar

StartChar: infinity
Encoding: 8734 8734 587
Width: 613
Flags: W
LayerCount: 2
Fore
SplineSet
359 332 m 1
 328 290 273 252 229 252 c 0
 163 252 117 337 131 416 c 0
 144 492 217 574 282 574 c 0
 343 574 385 534 401 491 c 1
 432 533 487 574 531 574 c 0
 597 574 643 490 629 411 c 0
 616 335 543 252 478 252 c 0
 417 252 375 289 359 332 c 1
481 319 m 0
 514 319 561 371 569 415 c 0
 577 458 548 509 517 509 c 0
 469 509 412 417 405 404 c 1
 418 365 440 319 481 319 c 0
280 508 m 0
 247 508 199 456 191 412 c 0
 183 369 212 318 243 318 c 0
 291 318 349 410 356 423 c 1
 343 462 321 508 280 508 c 0
EndSplineSet
EndChar

StartChar: orthogonal
Encoding: 8735 8735 588
Width: 613
Flags: W
LayerCount: 2
Fore
SplineSet
187 274 m 1
 500 274 l 1
 500 202 l 1
 115 202 l 1
 115 587 l 1
 187 587 l 1
 187 274 l 1
EndSplineSet
EndChar

StartChar: intersection
Encoding: 8745 8745 589
Width: 613
Flags: W
LayerCount: 2
Fore
SplineSet
70 102 m 1
 70 282 l 0
 70 336 71 386 99 438 c 0
 141 516 225 554 310 554 c 0
 397 554 479 515 520 439 c 0
 547 388 549 338 549 286 c 0
 549 102 l 1
 467 102 l 1
 467 287 l 0
 467 324 466 360 449 396 c 0
 422 453 367 483 308 483 c 0
 250 483 194 454 167 397 c 0
 149 359 148 322 148 284 c 0
 148 102 l 1
 70 102 l 1
EndSplineSet
EndChar

StartChar: integral
Encoding: 8747 8747 590
Width: 613
Flags: W
LayerCount: 2
Fore
SplineSet
360 38 m 1
 352 -9 347 -54 316 -99 c 0
 267 -171 204 -207 127 -207 c 0
 60 -207 25 -179 -5 -131 c 1
 64 -57 l 1
 70 -63 67 -71 70 -79 c 0
 73 -86 80 -133 146 -133 c 0
 192 -133 218 -109 246 -65 c 0
 264 -36 270 -7 275 22 c 2
 371 563 l 2
 379 611 389 656 425 701 c 0
 474 762 530 796 606 796 c 0
 675 796 708 769 739 722 c 1
 686 643 l 1
 682 643 677 645 678 653 c 1
 678 658 680 662 677 667 c 0
 661 702 642 729 590 729 c 0
 545 729 521 709 491 669 c 0
 467 636 458 599 452 563 c 0
 451 559 451 552 451 552 c 1
 360 38 l 1
EndSplineSet
EndChar

StartChar: equivalence
Encoding: 8801 8801 593
Width: 613
Flags: W
LayerCount: 2
Fore
SplineSet
103 222 m 25
 590 222 l 25
 577 150 l 25
 90 150 l 25
 103 222 l 25
161 554 m 25
 649 554 l 25
 636 481 l 25
 148 481 l 25
 161 554 l 25
132 388 m 25
 619 388 l 25
 607 315 l 25
 119 315 l 25
 132 388 l 25
EndSplineSet
EndChar

StartChar: SF100000
Encoding: 9472 9472 596
Width: 613
Flags: W
LayerCount: 2
Fore
SplineSet
0 368 m 0
 614 368 l 0
 614 289 l 0
 0 289 l 0
 0 368 l 0
EndSplineSet
EndChar

StartChar: SF110000
Encoding: 9474 9474 597
Width: 613
Flags: W
LayerCount: 2
Fore
SplineSet
347 840 m 0
 347 -184 l 0
 268 -184 l 0
 268 840 l 0
 347 840 l 0
EndSplineSet
EndChar

StartChar: SF010000
Encoding: 9484 9484 598
Width: 613
Flags: W
LayerCount: 2
Fore
SplineSet
268 368 m 5
 614 368 l 5
 614 289 l 5
 347 289 l 5
 347 -184 l 1
 268 -184 l 1
 268 368 l 5
EndSplineSet
EndChar

StartChar: SF030000
Encoding: 9488 9488 599
Width: 613
Flags: W
LayerCount: 2
Fore
SplineSet
347 368 m 5
 347 -184 l 1
 268 -184 l 1
 268 289 l 5
 0 289 l 5
 0 368 l 5
 347 368 l 5
EndSplineSet
EndChar

StartChar: SF020000
Encoding: 9492 9492 600
Width: 613
Flags: W
LayerCount: 2
Fore
SplineSet
268 289 m 5
 268 840 l 1
 347 840 l 1
 347 368 l 5
 614 368 l 5
 614 289 l 5
 268 289 l 5
EndSplineSet
EndChar

StartChar: SF040000
Encoding: 9496 9496 601
Width: 613
Flags: W
LayerCount: 2
Fore
SplineSet
347 289 m 5
 0 289 l 5
 0 368 l 5
 268 368 l 5
 268 840 l 1
 347 840 l 1
 347 289 l 5
EndSplineSet
EndChar

StartChar: SF080000
Encoding: 9500 9500 602
Width: 613
Flags: W
LayerCount: 2
Fore
SplineSet
268 840 m 1
 347 840 l 1
 347 368 l 5
 614 368 l 5
 614 289 l 5
 347 289 l 5
 347 -184 l 1
 268 -184 l 1
 268 840 l 1
EndSplineSet
EndChar

StartChar: SF090000
Encoding: 9508 9508 603
Width: 613
Flags: W
LayerCount: 2
Fore
SplineSet
347 -184 m 1
 268 -184 l 1
 268 289 l 5
 0 289 l 5
 0 368 l 5
 268 368 l 5
 268 840 l 1
 347 840 l 1
 347 -184 l 1
EndSplineSet
EndChar

StartChar: SF060000
Encoding: 9516 9516 604
Width: 613
Flags: W
LayerCount: 2
Fore
SplineSet
614 368 m 5
 614 289 l 5
 347 289 l 5
 347 -184 l 1
 268 -184 l 1
 268 289 l 5
 0 289 l 5
 0 368 l 5
 614 368 l 5
EndSplineSet
EndChar

StartChar: SF070000
Encoding: 9524 9524 605
Width: 613
Flags: W
LayerCount: 2
Fore
SplineSet
0 289 m 5
 0 368 l 5
 268 368 l 5
 268 840 l 1
 347 840 l 1
 347 368 l 5
 614 368 l 5
 614 289 l 5
 0 289 l 5
EndSplineSet
EndChar

StartChar: SF050000
Encoding: 9532 9532 606
Width: 613
Flags: W
LayerCount: 2
Fore
SplineSet
347 289 m 5
 347 -184 l 1
 268 -184 l 1
 268 289 l 5
 0 289 l 5
 0 368 l 5
 268 368 l 5
 268 840 l 1
 347 840 l 1
 347 368 l 5
 614 368 l 5
 614 289 l 5
 347 289 l 5
EndSplineSet
EndChar

StartChar: SF510000
Encoding: 9554 9554 609
Width: 613
Flags: W
LayerCount: 2
Fore
SplineSet
268 471 m 5
 614 471 l 5
 614 392 l 5
 347 392 l 5
 347 266 l 5
 614 266 l 5
 614 187 l 5
 347 187 l 5
 347 -184 l 1
 268 -184 l 1
 268 471 l 5
 268 471 l 5
EndSplineSet
EndChar

StartChar: SF520000
Encoding: 9555 9555 610
Width: 613
Flags: W
LayerCount: 2
Fore
SplineSet
165 368 m 5
 614 368 l 5
 614 289 l 5
 449 289 l 5
 449 -184 l 1
 370 -184 l 1
 370 289 l 5
 244 289 l 5
 244 -184 l 1
 165 -184 l 1
 165 368 l 5
EndSplineSet
EndChar

StartChar: SF390000
Encoding: 9556 9556 611
Width: 613
Flags: W
LayerCount: 2
Fore
SplineSet
244 -184 m 1
 165 -184 l 1
 165 471 l 5
 614 471 l 5
 614 392 l 5
 244 392 l 5
 244 -184 l 1
370 266 m 5
 614 266 l 5
 614 187 l 5
 449 187 l 5
 449 -184 l 1
 370 -184 l 1
 370 266 l 5
EndSplineSet
EndChar

StartChar: SF220000
Encoding: 9557 9557 612
Width: 613
Flags: W
LayerCount: 2
Fore
SplineSet
347 471 m 5
 347 471 l 5
 347 -184 l 1
 268 -184 l 1
 268 187 l 5
 0 187 l 5
 0 266 l 5
 268 266 l 5
 268 392 l 5
 0 392 l 5
 0 471 l 5
 347 471 l 5
EndSplineSet
EndChar

StartChar: SF210000
Encoding: 9558 9558 613
Width: 613
Flags: W
LayerCount: 2
Fore
SplineSet
449 368 m 1
 449 -184 l 1
 370 -184 l 1
 370 289 l 1
 244 289 l 1
 244 -184 l 1
 165 -184 l 1
 165 289 l 1
 0 289 l 1
 0 368 l 1
 449 368 l 1
EndSplineSet
EndChar

StartChar: SF250000
Encoding: 9559 9559 614
Width: 613
Flags: W
LayerCount: 2
Fore
SplineSet
370 -184 m 1
 370 392 l 1
 0 392 l 1
 0 471 l 1
 449 471 l 1
 449 -184 l 1
 370 -184 l 1
244 266 m 1
 244 -184 l 1
 165 -184 l 1
 165 187 l 1
 0 187 l 1
 0 266 l 1
 244 266 l 1
EndSplineSet
EndChar

StartChar: SF500000
Encoding: 9560 9560 615
Width: 613
Flags: W
LayerCount: 2
Fore
SplineSet
268 184 m 5
 268 184 l 5
 268 840 l 1
 347 840 l 1
 347 468 l 5
 614 468 l 5
 614 390 l 5
 347 390 l 5
 347 264 l 5
 614 264 l 5
 614 185 l 5
 268 184 l 5
EndSplineSet
EndChar

StartChar: SF490000
Encoding: 9561 9561 616
Width: 613
Flags: W
LayerCount: 2
Fore
SplineSet
165 287 m 5
 165 840 l 1
 244 840 l 1
 244 366 l 5
 370 366 l 5
 370 840 l 1
 449 840 l 1
 449 366 l 5
 614 366 l 5
 614 287 l 5
 165 287 l 5
EndSplineSet
EndChar

StartChar: SF380000
Encoding: 9562 9562 617
Width: 613
Flags: W
LayerCount: 2
Fore
SplineSet
244 840 m 1
 244 264 l 5
 614 264 l 5
 614 185 l 5
 165 185 l 5
 165 840 l 1
 244 840 l 1
370 390 m 5
 370 840 l 1
 449 840 l 1
 449 468 l 5
 614 468 l 5
 614 390 l 5
 370 390 l 5
EndSplineSet
EndChar

StartChar: SF280000
Encoding: 9563 9563 618
Width: 613
Flags: W
LayerCount: 2
Fore
SplineSet
347 184 m 5
 0 185 l 5
 0 264 l 5
 268 264 l 5
 268 390 l 5
 0 390 l 5
 0 468 l 5
 268 468 l 5
 268 840 l 1
 347 840 l 1
 347 184 l 5
 347 184 l 5
EndSplineSet
EndChar

StartChar: SF270000
Encoding: 9564 9564 619
Width: 613
Flags: W
LayerCount: 2
Fore
SplineSet
449 287 m 1
 0 287 l 1
 0 366 l 1
 165 366 l 1
 165 840 l 1
 244 840 l 1
 244 366 l 1
 370 366 l 1
 370 840 l 1
 449 840 l 1
 449 287 l 1
EndSplineSet
EndChar

StartChar: SF260000
Encoding: 9565 9565 620
Width: 613
Flags: W
LayerCount: 2
Fore
SplineSet
370 840 m 1
 449 840 l 1
 449 185 l 1
 0 185 l 1
 0 264 l 1
 370 264 l 1
 370 840 l 1
244 390 m 1
 0 390 l 1
 0 468 l 1
 165 468 l 1
 165 840 l 1
 244 840 l 1
 244 390 l 1
EndSplineSet
EndChar

StartChar: SF360000
Encoding: 9566 9566 621
Width: 613
Flags: W
LayerCount: 2
Fore
SplineSet
268 840 m 1
 347 840 l 1
 347 471 l 1
 614 471 l 1
 614 392 l 1
 347 392 l 1
 347 266 l 1
 614 266 l 1
 614 187 l 1
 347 187 l 1
 347 -184 l 1
 268 -184 l 1
 268 840 l 1
EndSplineSet
EndChar

StartChar: SF370000
Encoding: 9567 9567 622
Width: 613
Flags: W
LayerCount: 2
Fore
SplineSet
244 -184 m 1
 165 -184 l 1
 165 840 l 1
 244 840 l 1
 244 -184 l 1
370 840 m 1
 449 840 l 1
 449 368 l 1
 614 368 l 1
 614 289 l 1
 449 289 l 1
 449 -184 l 1
 370 -184 l 1
 370 840 l 1
EndSplineSet
EndChar

StartChar: SF420000
Encoding: 9568 9568 623
Width: 613
Flags: W
LayerCount: 2
Fore
SplineSet
244 -184 m 1
 165 -184 l 1
 165 840 l 1
 244 840 l 1
 244 -184 l 1
370 840 m 1
 449 840 l 1
 449 471 l 1
 614 471 l 1
 614 392 l 1
 370 392 l 1
 370 840 l 1
370 266 m 1
 614 266 l 1
 614 187 l 1
 449 187 l 1
 449 -184 l 1
 370 -184 l 1
 370 266 l 1
EndSplineSet
EndChar

StartChar: SF190000
Encoding: 9569 9569 624
Width: 613
Flags: W
LayerCount: 2
Fore
SplineSet
347 840 m 1
 347 -184 l 1
 268 -184 l 1
 268 187 l 1
 0 187 l 1
 0 266 l 1
 268 266 l 1
 268 392 l 1
 0 392 l 1
 0 471 l 1
 268 471 l 1
 268 840 l 1
 347 840 l 1
EndSplineSet
EndChar

StartChar: SF200000
Encoding: 9570 9570 625
Width: 613
Flags: W
LayerCount: 2
Fore
SplineSet
370 -184 m 1
 370 840 l 1
 449 840 l 1
 449 -184 l 1
 370 -184 l 1
244 840 m 1
 244 -184 l 1
 165 -184 l 1
 165 289 l 1
 0 289 l 1
 0 368 l 1
 165 368 l 1
 165 840 l 1
 244 840 l 1
EndSplineSet
EndChar

StartChar: SF230000
Encoding: 9571 9571 626
Width: 613
Flags: W
LayerCount: 2
Fore
SplineSet
370 -184 m 1
 370 840 l 1
 449 840 l 1
 449 -184 l 1
 370 -184 l 1
244 840 m 1
 244 392 l 1
 0 392 l 1
 0 471 l 1
 165 471 l 1
 165 840 l 1
 244 840 l 1
244 266 m 1
 244 -184 l 1
 165 -184 l 1
 165 187 l 1
 0 187 l 1
 0 266 l 1
 244 266 l 1
EndSplineSet
EndChar

StartChar: SF470000
Encoding: 9572 9572 627
Width: 613
Flags: W
LayerCount: 2
Fore
SplineSet
0 471 m 1
 614 471 l 1
 614 392 l 1
 0 392 l 1
 0 471 l 1
0 266 m 1
 614 266 l 1
 614 187 l 1
 347 187 l 1
 347 -184 l 1
 268 -184 l 1
 268 187 l 1
 0 187 l 1
 0 266 l 1
EndSplineSet
EndChar

StartChar: SF480000
Encoding: 9573 9573 628
Width: 613
Flags: W
LayerCount: 2
Fore
SplineSet
0 368 m 1
 614 368 l 1
 614 289 l 1
 449 289 l 1
 449 -184 l 1
 370 -184 l 1
 370 289 l 1
 244 289 l 1
 244 -184 l 1
 165 -184 l 1
 165 289 l 1
 0 289 l 1
 0 368 l 1
EndSplineSet
EndChar

StartChar: SF410000
Encoding: 9574 9574 629
Width: 613
Flags: W
LayerCount: 2
Fore
SplineSet
0 471 m 1
 614 471 l 1
 614 392 l 1
 0 392 l 1
 0 471 l 1
165 187 m 1
 0 187 l 1
 0 266 l 1
 244 266 l 1
 244 -184 l 1
 165 -184 l 1
 165 187 l 1
449 187 m 1
 449 -184 l 1
 370 -184 l 1
 370 266 l 1
 614 266 l 1
 614 187 l 1
 449 187 l 1
EndSplineSet
EndChar

StartChar: SF450000
Encoding: 9575 9575 630
Width: 613
Flags: W
LayerCount: 2
Fore
SplineSet
0 185 m 1
 0 264 l 1
 614 264 l 1
 614 185 l 1
 0 185 l 1
0 390 m 1
 0 468 l 1
 268 468 l 1
 268 840 l 1
 347 840 l 1
 347 468 l 1
 614 468 l 1
 614 390 l 1
 0 390 l 1
EndSplineSet
EndChar

StartChar: SF460000
Encoding: 9576 9576 631
Width: 613
Flags: W
LayerCount: 2
Fore
SplineSet
0 287 m 1
 0 366 l 1
 165 366 l 1
 165 840 l 1
 244 840 l 1
 244 366 l 1
 370 366 l 1
 370 840 l 1
 449 840 l 1
 449 366 l 1
 614 366 l 1
 614 287 l 1
 0 287 l 1
EndSplineSet
EndChar

StartChar: SF400000
Encoding: 9577 9577 632
Width: 613
Flags: W
LayerCount: 2
Fore
SplineSet
0 185 m 1
 0 264 l 1
 614 264 l 1
 614 185 l 1
 0 185 l 1
165 468 m 1
 165 840 l 1
 244 840 l 1
 244 390 l 1
 0 390 l 1
 0 468 l 1
 165 468 l 1
449 468 m 1
 614 468 l 1
 614 390 l 1
 370 390 l 1
 370 840 l 1
 449 840 l 1
 449 468 l 1
EndSplineSet
EndChar

StartChar: SF540000
Encoding: 9578 9578 633
Width: 613
Flags: W
LayerCount: 2
Fore
SplineSet
268 266 m 1
 268 392 l 1
 0 392 l 1
 0 471 l 1
 268 471 l 1
 268 840 l 1
 347 840 l 1
 347 471 l 1
 614 471 l 1
 614 392 l 1
 347 392 l 1
 347 266 l 1
 614 266 l 1
 614 187 l 1
 347 187 l 1
 347 -184 l 1
 268 -184 l 1
 268 187 l 1
 0 187 l 1
 0 266 l 1
 268 266 l 1
EndSplineSet
EndChar

StartChar: SF530000
Encoding: 9579 9579 634
Width: 613
Flags: W
LayerCount: 2
Fore
SplineSet
165 368 m 1
 165 840 l 1
 244 840 l 1
 244 368 l 1
 370 368 l 1
 370 840 l 1
 449 840 l 1
 449 368 l 1
 614 368 l 1
 614 289 l 1
 449 289 l 1
 449 -184 l 1
 370 -184 l 1
 370 289 l 1
 244 289 l 1
 244 -184 l 1
 165 -184 l 1
 165 289 l 1
 0 289 l 1
 0 368 l 1
 165 368 l 1
EndSplineSet
EndChar

StartChar: SF440000
Encoding: 9580 9580 635
Width: 613
Flags: W
LayerCount: 2
Fore
SplineSet
370 392 m 1
 370 840 l 1
 449 840 l 1
 449 471 l 1
 614 471 l 1
 614 392 l 1
 370 392 l 1
370 266 m 1
 614 266 l 1
 614 187 l 1
 449 187 l 1
 449 -184 l 1
 370 -184 l 1
 370 266 l 1
244 266 m 1
 244 -184 l 1
 165 -184 l 1
 165 187 l 1
 0 187 l 1
 0 266 l 1
 244 266 l 1
244 392 m 1
 0 392 l 1
 0 471 l 1
 165 471 l 1
 165 840 l 1
 244 840 l 1
 244 392 l 1
EndSplineSet
EndChar

StartChar: dnblock
Encoding: 9604 9604 636
Width: 613
Flags: W
LayerCount: 2
Fore
SplineSet
0 328 m 29
 614 328 l 29
 614 -184 l 29
 0 -184 l 29
 0 328 l 29
EndSplineSet
EndChar

StartChar: block
Encoding: 9608 9608 637
Width: 613
Flags: W
LayerCount: 2
Fore
SplineSet
0 840 m 25
 614 840 l 25
 614 -184 l 25
 0 -184 l 25
 0 840 l 25
EndSplineSet
EndChar

StartChar: lfblock
Encoding: 9612 9612 638
Width: 613
Flags: W
LayerCount: 2
Fore
SplineSet
0 840 m 25
 307 840 l 25
 307 -184 l 29
 0 -184 l 25
 0 840 l 25
EndSplineSet
EndChar

StartChar: shade
Encoding: 9618 9618 639
Width: 613
Flags: W
LayerCount: 2
Fore
SplineSet
0 840 m 1
 61 840 l 1
 61 788 l 1
 0 788 l 1
 0 840 l 1
123 840 m 1
 184 840 l 1
 184 788 l 1
 123 788 l 1
 123 737 l 1
 61 737 l 1
 61 788 l 1
 123 788 l 1
 123 840 l 1
246 840 m 1
 307 840 l 1
 307 788 l 1
 246 788 l 1
 246 737 l 1
 184 737 l 1
 184 788 l 1
 246 788 l 1
 246 840 l 1
369 840 m 1
 430 840 l 1
 430 788 l 1
 369 788 l 1
 369 737 l 1
 307 737 l 1
 307 788 l 1
 369 788 l 1
 369 840 l 1
492 840 m 1
 553 840 l 1
 553 788 l 1
 492 788 l 1
 492 737 l 1
 430 737 l 1
 430 788 l 1
 492 788 l 1
 492 840 l 1
553 788 m 1
 614 788 l 1
 614 737 l 1
 553 737 l 1
 553 788 l 1
61 737 m 1
 61 686 l 1
 0 686 l 1
 0 737 l 1
 61 737 l 1
61 686 m 1
 123 686 l 1
 123 635 l 1
 61 635 l 1
 61 686 l 1
123 686 m 1
 123 737 l 1
 184 737 l 1
 184 686 l 1
 123 686 l 1
184 686 m 1
 246 686 l 1
 246 635 l 1
 184 635 l 1
 184 686 l 1
246 686 m 1
 246 737 l 1
 307 737 l 1
 307 686 l 1
 246 686 l 1
307 686 m 1
 369 686 l 1
 369 635 l 1
 307 635 l 1
 307 686 l 1
369 686 m 1
 369 737 l 1
 430 737 l 1
 430 686 l 1
 369 686 l 1
430 686 m 1
 492 686 l 1
 492 635 l 1
 430 635 l 1
 430 686 l 1
492 686 m 1
 492 737 l 1
 553 737 l 1
 553 686 l 1
 492 686 l 1
553 686 m 1
 614 686 l 1
 614 635 l 1
 553 635 l 1
 553 686 l 1
61 635 m 1
 61 584 l 1
 0 584 l 1
 0 635 l 1
 61 635 l 1
61 584 m 1
 123 584 l 1
 123 532 l 1
 61 532 l 1
 61 584 l 1
123 584 m 1
 123 635 l 1
 184 635 l 1
 184 584 l 1
 123 584 l 1
184 584 m 1
 246 584 l 1
 246 532 l 1
 184 532 l 1
 184 584 l 1
246 584 m 1
 246 635 l 1
 307 635 l 1
 307 584 l 1
 246 584 l 1
307 584 m 1
 369 584 l 1
 369 532 l 1
 307 532 l 1
 307 584 l 1
369 584 m 1
 369 635 l 1
 430 635 l 1
 430 584 l 1
 369 584 l 1
430 584 m 1
 492 584 l 1
 492 532 l 1
 430 532 l 1
 430 584 l 1
492 584 m 1
 492 635 l 1
 553 635 l 1
 553 584 l 1
 492 584 l 1
553 584 m 1
 614 584 l 1
 614 532 l 1
 553 532 l 1
 553 584 l 1
61 532 m 1
 61 481 l 1
 0 481 l 1
 0 532 l 1
 61 532 l 1
61 481 m 1
 123 481 l 1
 123 430 l 1
 61 430 l 1
 61 481 l 1
123 481 m 1
 123 532 l 1
 184 532 l 1
 184 481 l 1
 123 481 l 1
184 481 m 1
 246 481 l 1
 246 430 l 1
 184 430 l 1
 184 481 l 1
246 481 m 1
 246 532 l 1
 307 532 l 1
 307 481 l 1
 246 481 l 1
307 481 m 1
 369 481 l 1
 369 430 l 1
 307 430 l 1
 307 481 l 1
369 481 m 1
 369 532 l 1
 430 532 l 1
 430 481 l 1
 369 481 l 1
430 481 m 1
 492 481 l 1
 492 430 l 1
 430 430 l 1
 430 481 l 1
492 481 m 1
 492 532 l 1
 553 532 l 1
 553 481 l 1
 492 481 l 1
553 481 m 1
 614 481 l 1
 614 430 l 1
 553 430 l 1
 553 481 l 1
61 430 m 1
 61 379 l 1
 0 379 l 1
 0 430 l 1
 61 430 l 1
61 379 m 1
 123 379 l 1
 123 328 l 1
 61 328 l 1
 61 379 l 1
123 379 m 1
 123 430 l 1
 184 430 l 1
 184 379 l 1
 123 379 l 1
184 379 m 1
 246 379 l 1
 246 328 l 1
 184 328 l 1
 184 379 l 1
246 379 m 1
 246 430 l 1
 307 430 l 1
 307 379 l 1
 246 379 l 1
307 379 m 1
 369 379 l 1
 369 328 l 1
 307 328 l 1
 307 379 l 1
369 379 m 1
 369 430 l 1
 430 430 l 1
 430 379 l 1
 369 379 l 1
430 379 m 1
 492 379 l 1
 492 328 l 1
 430 328 l 1
 430 379 l 1
492 379 m 1
 492 430 l 1
 553 430 l 1
 553 379 l 1
 492 379 l 1
553 379 m 1
 614 379 l 1
 614 328 l 1
 553 328 l 1
 553 379 l 1
61 328 m 1
 61 276 l 1
 0 276 l 1
 0 328 l 1
 61 328 l 1
61 276 m 1
 123 276 l 1
 123 225 l 1
 61 225 l 1
 61 276 l 1
123 276 m 1
 123 328 l 1
 184 328 l 1
 184 276 l 1
 123 276 l 1
184 276 m 1
 246 276 l 1
 246 225 l 1
 184 225 l 1
 184 276 l 1
246 276 m 1
 246 328 l 1
 307 328 l 1
 307 276 l 1
 246 276 l 1
307 276 m 1
 369 276 l 1
 369 225 l 1
 307 225 l 1
 307 276 l 1
369 276 m 1
 369 328 l 1
 430 328 l 1
 430 276 l 1
 369 276 l 1
430 276 m 1
 492 276 l 1
 492 225 l 1
 430 225 l 1
 430 276 l 1
492 276 m 1
 492 328 l 1
 553 328 l 1
 553 276 l 1
 492 276 l 1
553 276 m 1
 614 276 l 1
 614 225 l 1
 553 225 l 1
 553 276 l 1
61 225 m 1
 61 174 l 1
 0 174 l 1
 0 225 l 1
 61 225 l 1
61 174 m 1
 123 174 l 1
 123 123 l 1
 61 123 l 1
 61 174 l 1
123 174 m 1
 123 225 l 1
 184 225 l 1
 184 174 l 1
 123 174 l 1
184 174 m 1
 246 174 l 1
 246 123 l 1
 184 123 l 1
 184 174 l 1
246 174 m 1
 246 225 l 1
 307 225 l 1
 307 174 l 1
 246 174 l 1
307 174 m 1
 369 174 l 1
 369 123 l 1
 307 123 l 1
 307 174 l 1
369 174 m 1
 369 225 l 1
 430 225 l 1
 430 174 l 1
 369 174 l 1
430 174 m 1
 492 174 l 1
 492 123 l 1
 430 123 l 1
 430 174 l 1
492 174 m 1
 492 225 l 1
 553 225 l 1
 553 174 l 1
 492 174 l 1
553 174 m 1
 614 174 l 1
 614 123 l 1
 553 123 l 1
 553 174 l 1
61 123 m 1
 61 72 l 1
 0 72 l 1
 0 123 l 1
 61 123 l 1
61 72 m 1
 123 72 l 1
 123 20 l 1
 61 20 l 1
 61 72 l 1
123 72 m 1
 123 123 l 1
 184 123 l 1
 184 72 l 1
 123 72 l 1
184 72 m 1
 246 72 l 1
 246 20 l 1
 184 20 l 1
 184 72 l 1
246 72 m 1
 246 123 l 1
 307 123 l 1
 307 72 l 1
 246 72 l 1
307 72 m 1
 369 72 l 1
 369 20 l 1
 307 20 l 1
 307 72 l 1
369 72 m 1
 369 123 l 1
 430 123 l 1
 430 72 l 1
 369 72 l 1
430 72 m 1
 492 72 l 1
 492 20 l 1
 430 20 l 1
 430 72 l 1
492 72 m 1
 492 123 l 1
 553 123 l 1
 553 72 l 1
 492 72 l 1
553 72 m 1
 614 72 l 1
 614 20 l 1
 553 20 l 1
 553 72 l 1
61 20 m 1
 61 -31 l 1
 0 -31 l 1
 0 20 l 1
 61 20 l 1
61 -31 m 1
 123 -31 l 1
 123 -82 l 1
 61 -82 l 1
 61 -31 l 1
123 -31 m 1
 123 20 l 1
 184 20 l 1
 184 -31 l 1
 123 -31 l 1
184 -31 m 1
 246 -31 l 1
 246 -82 l 1
 184 -82 l 1
 184 -31 l 1
246 -31 m 1
 246 20 l 1
 307 20 l 1
 307 -31 l 1
 246 -31 l 1
307 -31 m 1
 369 -31 l 1
 369 -82 l 1
 307 -82 l 1
 307 -31 l 1
369 -31 m 1
 369 20 l 1
 430 20 l 1
 430 -31 l 1
 369 -31 l 1
430 -31 m 1
 492 -31 l 1
 492 -82 l 1
 430 -82 l 1
 430 -31 l 1
492 -31 m 1
 492 20 l 1
 553 20 l 1
 553 -31 l 1
 492 -31 l 1
553 -31 m 1
 614 -31 l 1
 614 -82 l 1
 553 -82 l 1
 553 -31 l 1
61 -82 m 1
 61 -133 l 1
 0 -133 l 1
 0 -82 l 1
 61 -82 l 1
61 -133 m 1
 123 -133 l 1
 123 -184 l 1
 61 -184 l 1
 61 -133 l 1
123 -133 m 1
 123 -82 l 1
 184 -82 l 1
 184 -133 l 1
 123 -133 l 1
184 -133 m 1
 246 -133 l 1
 246 -184 l 1
 184 -184 l 1
 184 -133 l 1
246 -133 m 1
 246 -82 l 1
 307 -82 l 1
 307 -133 l 1
 246 -133 l 1
307 -133 m 1
 369 -133 l 1
 369 -184 l 1
 307 -184 l 1
 307 -133 l 1
369 -133 m 1
 369 -82 l 1
 430 -82 l 1
 430 -133 l 1
 369 -133 l 1
430 -133 m 1
 492 -133 l 1
 492 -184 l 1
 430 -184 l 1
 430 -133 l 1
492 -133 m 1
 492 -82 l 1
 553 -82 l 1
 553 -133 l 1
 492 -133 l 1
553 -133 m 1
 614 -133 l 1
 614 -184 l 1
 553 -184 l 1
 553 -133 l 1
EndSplineSet
EndChar

StartChar: dkshade
Encoding: 9619 9619 640
Width: 613
Flags: W
LayerCount: 2
Fore
SplineSet
0 840 m 1
 61 840 l 1
 61 788 l 1
 123 788 l 1
 123 840 l 1
 184 840 l 1
 184 788 l 1
 246 788 l 1
 246 840 l 1
 307 840 l 1
 307 788 l 1
 369 788 l 1
 369 840 l 1
 430 840 l 1
 430 788 l 1
 492 788 l 1
 492 840 l 1
 553 840 l 1
 553 788 l 1
 614 788 l 1
 614 635 l 1
 553 635 l 1
 553 584 l 1
 614 584 l 1
 614 430 l 1
 553 430 l 1
 553 379 l 1
 614 379 l 1
 614 225 l 1
 553 225 l 1
 553 174 l 1
 614 174 l 1
 614 20 l 1
 553 20 l 1
 553 -31 l 1
 614 -31 l 1
 614 -184 l 1
 409 -184 205 -184 0 -184 c 1
 0 -133 l 1
 61 -133 l 1
 61 -82 l 1
 0 -82 l 1
 0 72 l 1
 61 72 l 1
 61 123 l 1
 0 123 l 1
 0 276 l 1
 61 276 l 1
 61 328 l 1
 0 328 l 1
 0 481 l 1
 61 481 l 1
 61 532 l 1
 0 532 l 1
 0 686 l 1
 61 686 l 1
 61 737 l 1
 0 737 l 1
 0 771 0 806 0 840 c 1
123 737 m 1
 123 686 l 1
 184 686 l 1
 184 737 l 1
 123 737 l 1
246 737 m 1
 246 686 l 1
 307 686 l 1
 307 737 l 1
 246 737 l 1
369 737 m 1
 369 686 l 1
 430 686 l 1
 430 737 l 1
 369 737 l 1
492 737 m 1
 492 686 l 1
 553 686 l 1
 553 737 l 1
 492 737 l 1
61 635 m 1
 61 584 l 1
 123 584 l 1
 123 635 l 1
 61 635 l 1
184 635 m 1
 184 584 l 1
 246 584 l 1
 246 635 l 1
 184 635 l 1
307 635 m 1
 307 584 l 1
 369 584 l 1
 369 635 l 1
 307 635 l 1
430 635 m 1
 430 584 l 1
 492 584 l 1
 492 635 l 1
 430 635 l 1
123 532 m 1
 123 481 l 1
 184 481 l 1
 184 532 l 1
 123 532 l 1
246 532 m 1
 246 481 l 1
 307 481 l 1
 307 532 l 1
 246 532 l 1
369 532 m 1
 369 481 l 1
 430 481 l 1
 430 532 l 1
 369 532 l 1
492 532 m 1
 492 481 l 1
 553 481 l 1
 553 532 l 1
 492 532 l 1
61 430 m 1
 61 379 l 1
 123 379 l 1
 123 430 l 1
 61 430 l 1
184 430 m 1
 184 379 l 1
 246 379 l 1
 246 430 l 1
 184 430 l 1
307 430 m 1
 307 379 l 1
 369 379 l 1
 369 430 l 1
 307 430 l 1
430 430 m 1
 430 379 l 1
 492 379 l 1
 492 430 l 1
 430 430 l 1
123 328 m 1
 123 276 l 1
 184 276 l 1
 184 328 l 1
 123 328 l 1
246 328 m 1
 246 276 l 1
 307 276 l 1
 307 328 l 1
 246 328 l 1
369 328 m 1
 369 276 l 1
 430 276 l 1
 430 328 l 1
 369 328 l 1
492 328 m 1
 492 276 l 1
 553 276 l 1
 553 328 l 1
 492 328 l 1
61 225 m 1
 61 174 l 1
 123 174 l 1
 123 225 l 1
 61 225 l 1
184 225 m 1
 184 174 l 1
 246 174 l 1
 246 225 l 1
 184 225 l 1
307 225 m 1
 307 174 l 1
 369 174 l 1
 369 225 l 1
 307 225 l 1
430 225 m 1
 430 174 l 1
 492 174 l 1
 492 225 l 1
 430 225 l 1
123 123 m 1
 123 72 l 1
 184 72 l 1
 184 123 l 1
 123 123 l 1
246 123 m 1
 246 72 l 1
 307 72 l 1
 307 123 l 1
 246 123 l 1
369 123 m 1
 369 72 l 1
 430 72 l 1
 430 123 l 1
 369 123 l 1
492 123 m 1
 492 72 l 1
 553 72 l 1
 553 123 l 1
 492 123 l 1
61 20 m 1
 61 -31 l 1
 123 -31 l 1
 123 20 l 1
 61 20 l 1
184 20 m 1
 184 -31 l 1
 246 -31 l 1
 246 20 l 1
 184 20 l 1
307 20 m 1
 307 -31 l 1
 369 -31 l 1
 369 20 l 1
 307 20 l 1
430 20 m 1
 430 -31 l 1
 492 -31 l 1
 492 20 l 1
 430 20 l 1
123 -82 m 1
 123 -133 l 1
 184 -133 l 1
 184 -82 l 1
 123 -82 l 1
246 -82 m 1
 246 -133 l 1
 307 -133 l 1
 307 -82 l 1
 246 -82 l 1
369 -82 m 1
 369 -133 l 1
 430 -133 l 1
 430 -82 l 1
 369 -82 l 1
492 -82 m 1
 492 -133 l 1
 553 -133 l 1
 553 -82 l 1
 492 -82 l 1
EndSplineSet
EndChar

StartChar: filledbox
Encoding: 9632 9632 641
Width: 613
Flags: W
LayerCount: 2
Fore
SplineSet
82 553 m 25
 532 553 l 29
 532 102 l 29
 82 102 l 25
 82 553 l 25
EndSplineSet
EndChar

StartChar: H22073
Encoding: 9633 9633 642
Width: 613
Flags: W
LayerCount: 2
Fore
SplineSet
82 553 m 25
 532 553 l 25
 532 102 l 25
 82 102 l 25
 82 553 l 25
154 481 m 25
 154 174 l 25
 461 174 l 25
 461 481 l 25
 154 481 l 25
EndSplineSet
EndChar

StartChar: H18543
Encoding: 9642 9642 643
Width: 613
Flags: W
LayerCount: 2
Fore
SplineSet
143 492 m 25
 471 492 l 25
 471 164 l 25
 143 164 l 25
 143 492 l 25
EndSplineSet
EndChar

StartChar: H18551
Encoding: 9643 9643 644
Width: 613
Flags: W
LayerCount: 2
Fore
SplineSet
143 492 m 25
 471 492 l 25
 471 164 l 25
 143 164 l 25
 143 492 l 25
215 420 m 25
 215 236 l 29
 399 236 l 29
 399 420 l 25
 215 420 l 25
EndSplineSet
EndChar

StartChar: triagup
Encoding: 9650 9650 645
Width: 613
Flags: W
LayerCount: 2
Fore
SplineSet
307 553 m 1
 532 102 l 1
 82 102 l 1
 307 553 l 1
EndSplineSet
EndChar

StartChar: triagdn
Encoding: 9660 9660 646
Width: 613
Flags: W
LayerCount: 2
Fore
SplineSet
82 553 m 1
 532 553 l 1
 307 102 l 1
 82 553 l 1
EndSplineSet
EndChar

StartChar: lozenge
Encoding: 9674 9674 647
Width: 613
Flags: W
LayerCount: 2
Fore
SplineSet
307 655 m 25
 532 328 l 25
 307 0 l 25
 82 328 l 25
 307 655 l 25
307 563 m 25
 154 328 l 25
 307 92 l 25
 461 328 l 25
 307 563 l 25
EndSplineSet
EndChar

StartChar: circle
Encoding: 9675 9675 648
Width: 613
Flags: W
LayerCount: 2
Fore
SplineSet
123 328 m 0
 123 226 205 143 307 143 c 0
 409 143 492 226 492 328 c 0
 492 430 409 512 307 512 c 0
 205 512 123 430 123 328 c 0
41 328 m 0
 41 475 160 594 307 594 c 0
 454 594 573 475 573 328 c 0
 573 181 454 61 307 61 c 0
 160 61 41 181 41 328 c 0
EndSplineSet
EndChar

StartChar: H18533
Encoding: 9679 9679 649
Width: 613
Flags: W
LayerCount: 2
Fore
SplineSet
41 328 m 0
 41 475 160 594 307 594 c 0
 454 594 573 475 573 328 c 0
 573 181 454 61 307 61 c 0
 160 61 41 181 41 328 c 0
EndSplineSet
EndChar

StartChar: openbullet
Encoding: 9702 9702 650
Width: 613
Flags: W
LayerCount: 2
Fore
SplineSet
314 430 m 0
 269 430 233 395 233 352 c 0
 233 309 269 273 314 273 c 0
 359 273 394 309 394 352 c 0
 394 395 359 430 314 430 c 0
314 502 m 0
 397 502 466 435 466 352 c 0
 466 269 397 202 314 202 c 0
 231 202 162 269 162 352 c 0
 162 435 231 502 314 502 c 0
EndSplineSet
EndChar

StartChar: female
Encoding: 9792 9792 651
Width: 613
Flags: W
LayerCount: 2
Fore
SplineSet
188 535 m 0
 209 653 321 748 439 748 c 0
 557 748 635 653 614 535 c 0
 596 431 507 344 406 325 c 1
 388 225 l 1
 591 225 l 1
 578 153 l 1
 375 153 l 1
 348 0 l 1
 273 0 l 1
 300 153 l 1
 90 153 l 1
 103 225 l 1
 313 225 l 1
 331 324 l 1
 232 340 169 429 188 535 c 0
254 535 m 0
 240 454 294 387 375 387 c 0
 456 387 535 454 549 535 c 0
 563 616 508 682 427 682 c 0
 346 682 268 616 254 535 c 0
EndSplineSet
EndChar

StartChar: male
Encoding: 9794 9794 652
Width: 613
Flags: W
LayerCount: 2
Fore
SplineSet
164 479 m 1
 436 760 l 1
 462 760 l 1
 618 477 l 1
 551 437 l 1
 455 608 l 1
 420 409 l 1
 515 390 573 304 555 200 c 0
 534 82 423 -13 305 -13 c 0
 187 -13 108 82 129 200 c 0
 147 305 238 391 341 409 c 1
 377 609 l 1
 208 437 l 1
 164 479 l 1
195 200 m 0
 181 119 235 52 316 52 c 0
 397 52 476 119 490 200 c 0
 504 281 449 347 368 347 c 0
 287 347 209 281 195 200 c 0
EndSplineSet
EndChar

StartChar: spade
Encoding: 9824 9824 653
Width: 613
Flags: W
LayerCount: 2
Fore
SplineSet
26 391 m 0
 26 565 289 753 289 753 c 1
 298 753 l 1
 298 753 560 565 560 391 c 0
 560 323 559 313 531 263 c 0
 511 227 470 207 428 207 c 0
 427 207 427 207 426 207 c 0
 408 207 368 229 335 260 c 1
 335 68 l 1
 488 68 l 1
 488 -1 l 1
 106 -1 l 1
 106 69 l 1
 252 69 l 1
 252 262 l 1
 219 231 178 207 160 207 c 0
 159 207 159 207 158 207 c 0
 116 207 73 227 53 263 c 0
 25 313 26 323 26 391 c 0
EndSplineSet
EndChar

StartChar: club
Encoding: 9827 9827 654
Width: 613
Flags: W
LayerCount: 2
Fore
SplineSet
561 358 m 0
 561 263 499 208 430 208 c 0
 394 208 360 224 335 250 c 1
 335 68 l 1
 488 68 l 1
 488 -1 l 1
 106 -1 l 1
 106 69 l 1
 252 69 l 1
 252 246 l 1
 228 221 196 208 162 208 c 0
 89 208 25 269 25 357 c 0
 25 446 89 510 163 510 c 0
 170 510 178 509 185 508 c 1
 169 532 161 561 161 595 c 0
 161 684 224 748 298 748 c 0
 364 748 428 695 428 596 c 0
 428 560 419 531 405 507 c 1
 414 509 423 510 432 510 c 0
 498 510 561 457 561 358 c 0
EndSplineSet
EndChar

StartChar: heart
Encoding: 9829 9829 655
Width: 613
Flags: W
LayerCount: 2
Fore
SplineSet
560 472 m 8
 560 261 297 0 297 0 c 0
 288 0 l 0
 288 0 26 261 26 472 c 16
 26 540 26 594 47 645 c 0
 65 689 95 753 158 753 c 0
 159 753 159 753 160 753 c 0
 246 753 272 690 293 622 c 1
 315 688 340 753 426 753 c 0
 427 753 427 753 428 753 c 0
 500 753 529 690 543 645 c 0
 558 596 560 540 560 472 c 8
EndSplineSet
EndChar

StartChar: diamond
Encoding: 9830 9830 656
Width: 613
Flags: W
LayerCount: 2
Fore
SplineSet
534 376 m 5
 298 -1 l 1
 289 -1 l 1
 65 376 l 5
 289 753 l 1
 298 753 l 1
 534 376 l 5
EndSplineSet
EndChar

StartChar: musicalnote
Encoding: 9834 9834 657
Width: 613
Flags: W
LayerCount: 2
Fore
SplineSet
327 104 m 0
 299 28 219 -16 147 -16 c 0
 85 -16 41 17 41 67 c 0
 41 78 43 90 48 103 c 0
 74 174 159 225 236 225 c 0
 241 225 247 225 252 224 c 1
 252 670 l 1
 252 739 l 1
 289 740 l 1
 298 740 l 1
 298 740 552 562 552 395 c 0
 552 309 500 250 426 220 c 1
 426 294 l 1
 451 318 466 352 466 395 c 0
 466 472 384 553 335 594 c 1
 335 146 l 2
 335 133 333 120 327 104 c 0
EndSplineSet
EndChar

StartChar: afii10146
Encoding: 1122 1122 662
Width: 613
Flags: W
LayerCount: 2
Fore
SplineSet
254 73 m 1
 318 73 l 2
 350 73 382 74 416 88 c 0
 471 111 509 160 518 213 c 0
 527 266 507 319 457 345 c 0
 423 363 386 364 349 364 c 2
 306 364 l 1
 254 73 l 1
339 554 m 1
 318 433 l 1
 342 433 l 2
 424 433 489 433 542 392 c 0
 595 351 618 291 603 205 c 0
 590 129 533 56 447 22 c 0
 392 0 341 0 291 0 c 2
 160 0 l 1
 257 554 l 1
 145 554 l 1
 156 617 l 1
 269 617 l 1
 290 739 l 1
 383 739 l 1
 383 738 383 737 383 736 c 0
 382 730 376 726 373 723 c 0
 368 719 368 716 367 712 c 2
 351 617 l 1
 557 617 l 1
 546 554 l 1
 339 554 l 1
EndSplineSet
EndChar

StartChar: afii10194
Encoding: 1123 1123 663
Width: 613
Flags: W
LayerCount: 2
Fore
SplineSet
371 98 m 1
 371 80 425 63 463 63 c 0
 503 63 537 123 543 155 c 0
 549 187 546 239 507 250 c 0
 481 258 452 258 424 258 c 2
 399 258 l 1
 371 98 l 1
430 434 m 2
 411 328 l 1
 441 328 l 2
 533 328 563 320 588 294 c 0
 623 257 633 212 622 149 c 0
 612 93 581 49 539 20 c 0
 527 12 502 0 428 0 c 0
 354 0 342 21 276 35 c 1
 337 377 l 2
 338 385 339 393 341 402 c 0
 344 417 346 434 344 449 c 0
 340 479 320 489 301 489 c 0
 279 489 254 475 228 439 c 0
 208 410 202 387 197 361 c 2
 133 0 l 1
 55 0 l 1
 122 381 l 2
 136 458 129 516 116 542 c 1
 208 554 l 1
 210 549 213 522 211 478 c 1
 243 517 284 555 340 555 c 0
 389 555 400 549 420 526 c 0
 435 508 439 484 430 434 c 2
EndSplineSet
EndChar

StartChar: afii10195
Encoding: 1139 1139 665
Width: 613
Flags: W
LayerCount: 2
Fore
SplineSet
604 269 m 4
 572 89 438 -14 310 -14 c 4
 173 -14 76 102 105 267 c 4
 135 434 275 554 413 554 c 4
 536 554 637 456 604 269 c 4
394 481 m 4
 311 481 220 407 197 274 c 4
 173 140 237 59 323 59 c 4
 402 59 493 129 517 265 c 4
 543 414 472 481 394 481 c 4
464 259 m 1
 248 259 l 1
 260 325 l 1
 476 325 l 1
 464 259 l 1
EndSplineSet
EndChar

StartChar: acute.cap.pl
Encoding: 65550 -1 668
Width: 613
Flags: W
HStem: 642 159
VStem: 271 116
LayerCount: 2
Fore
SplineSet
435 801 m 4
 525 781 l 4
 440 642 l 4
 387 654 l 4
 435 801 l 4
EndSplineSet
EndChar

StartChar: acute.pl
Encoding: 65551 -1 669
Width: 613
Flags: W
HStem: 634 212
VStem: 271 124
LayerCount: 2
Fore
SplineSet
456 846 m 0
 540 826 l 0
 451 634 l 0
 385 646 l 0
 456 846 l 0
EndSplineSet
EndChar

StartChar: uni2574
Encoding: 9588 9588 684
Width: 613
VWidth: 1046
Flags: MW
LayerCount: 2
Fore
SplineSet
346 289 m 1
 0 289 l 1
 0 367 l 1
 346 367 l 1
 346 289 l 1
EndSplineSet
EndChar

StartChar: uni2575
Encoding: 9589 9589 685
Width: 613
VWidth: 1046
Flags: MW
LayerCount: 2
Fore
SplineSet
346 289 m 1
 267 289 l 1
 267 838 l 1
 346 838 l 1
 346 289 l 1
EndSplineSet
EndChar

StartChar: uni2576
Encoding: 9590 9590 686
Width: 613
VWidth: 1046
Flags: MW
LayerCount: 2
Fore
SplineSet
267 289 m 1
 267 367 l 1
 613 367 l 1
 613 289 l 1
 267 289 l 1
EndSplineSet
EndChar

StartChar: uni2577
Encoding: 9591 9591 687
Width: 613
VWidth: 1046
Flags: MW
LayerCount: 2
Fore
SplineSet
346 367 m 1
 346 -184 l 1
 267 -184 l 1
 267 367 l 1
 346 367 l 1
EndSplineSet
EndChar

StartChar: uni2501
Encoding: 9473 9473 688
Width: 613
VWidth: 1046
Flags: MW
LayerCount: 2
Fore
SplineSet
0 408 m 1
 613 408 l 1
 613 248 l 1
 0 248 l 1
 0 408 l 1
EndSplineSet
EndChar

StartChar: uni2503
Encoding: 9475 9475 689
Width: 613
VWidth: 1046
Flags: MW
LayerCount: 2
Fore
SplineSet
387 838 m 1
 387 -184 l 1
 226 -184 l 1
 226 838 l 1
 387 838 l 1
EndSplineSet
EndChar

StartChar: uni250D
Encoding: 9485 9485 690
Width: 613
VWidth: 1046
Flags: MW
LayerCount: 2
Fore
SplineSet
267 -184 m 1
 267 408 l 1
 613 408 l 1
 613 248 l 1
 346 248 l 1
 346 -184 l 1
 267 -184 l 1
EndSplineSet
EndChar

StartChar: uni250E
Encoding: 9486 9486 691
Width: 613
VWidth: 1046
Flags: MW
LayerCount: 2
Fore
SplineSet
226 367 m 1
 613 367 l 1
 613 289 l 1
 387 289 l 1
 387 -184 l 1
 226 -184 l 1
 226 367 l 1
EndSplineSet
EndChar

StartChar: uni250F
Encoding: 9487 9487 692
Width: 613
VWidth: 1046
Flags: MW
LayerCount: 2
Fore
SplineSet
226 -184 m 1
 226 408 l 1
 613 408 l 1
 613 248 l 1
 387 248 l 1
 387 -184 l 1
 226 -184 l 1
EndSplineSet
EndChar

StartChar: uni2511
Encoding: 9489 9489 693
Width: 613
VWidth: 1046
Flags: MW
LayerCount: 2
Fore
SplineSet
267 248 m 1
 0 248 l 1
 0 408 l 1
 346 408 l 1
 346 -184 l 1
 267 -184 l 1
 267 248 l 1
EndSplineSet
EndChar

StartChar: uni2512
Encoding: 9490 9490 694
Width: 613
VWidth: 1046
Flags: MW
LayerCount: 2
Fore
SplineSet
387 367 m 1
 387 -184 l 1
 226 -184 l 1
 226 289 l 1
 0 289 l 1
 0 367 l 1
 387 367 l 1
EndSplineSet
EndChar

StartChar: uni2513
Encoding: 9491 9491 695
Width: 613
VWidth: 1046
Flags: MW
LayerCount: 2
Fore
SplineSet
226 248 m 1
 0 248 l 1
 0 408 l 1
 387 408 l 1
 387 -184 l 1
 226 -184 l 1
 226 248 l 1
EndSplineSet
EndChar

StartChar: uni2515
Encoding: 9493 9493 696
Width: 613
VWidth: 1046
Flags: MW
LayerCount: 2
Fore
SplineSet
346 408 m 1
 613 408 l 1
 613 248 l 1
 267 248 l 1
 267 838 l 1
 346 838 l 1
 346 408 l 1
EndSplineSet
EndChar

StartChar: uni2516
Encoding: 9494 9494 697
Width: 613
VWidth: 1046
Flags: MW
LayerCount: 2
Fore
SplineSet
613 289 m 1
 226 289 l 1
 226 838 l 1
 387 838 l 1
 387 367 l 1
 613 367 l 1
 613 289 l 1
EndSplineSet
EndChar

StartChar: uni2517
Encoding: 9495 9495 698
Width: 613
VWidth: 1046
Flags: MW
LayerCount: 2
Fore
SplineSet
613 248 m 1
 226 248 l 1
 226 838 l 1
 387 838 l 1
 387 408 l 1
 613 408 l 1
 613 248 l 1
EndSplineSet
EndChar

StartChar: uni2519
Encoding: 9497 9497 699
Width: 613
VWidth: 1046
Flags: MW
LayerCount: 2
Fore
SplineSet
346 248 m 1
 0 248 l 1
 0 408 l 1
 267 408 l 1
 267 838 l 1
 346 838 l 1
 346 248 l 1
EndSplineSet
EndChar

StartChar: uni251A
Encoding: 9498 9498 700
Width: 613
VWidth: 1046
Flags: MW
LayerCount: 2
Fore
SplineSet
226 367 m 1
 226 838 l 1
 387 838 l 1
 387 289 l 1
 0 289 l 1
 0 367 l 1
 226 367 l 1
EndSplineSet
EndChar

StartChar: uni251B
Encoding: 9499 9499 701
Width: 613
VWidth: 1046
Flags: MW
LayerCount: 2
Fore
SplineSet
387 248 m 1
 0 248 l 1
 0 408 l 1
 226 408 l 1
 226 838 l 1
 387 838 l 1
 387 248 l 1
EndSplineSet
EndChar

StartChar: uni2578
Encoding: 9592 9592 702
Width: 613
VWidth: 1046
Flags: MW
LayerCount: 2
Fore
SplineSet
346 248 m 1
 0 248 l 1
 0 408 l 1
 346 408 l 1
 346 248 l 1
EndSplineSet
EndChar

StartChar: uni2579
Encoding: 9593 9593 703
Width: 613
VWidth: 1046
Flags: MW
LayerCount: 2
Fore
SplineSet
387 289 m 1
 226 289 l 1
 226 838 l 1
 387 838 l 1
 387 289 l 1
EndSplineSet
EndChar

StartChar: uni257A
Encoding: 9594 9594 704
Width: 613
VWidth: 1046
Flags: MW
LayerCount: 2
Fore
SplineSet
267 248 m 1
 267 408 l 1
 613 408 l 1
 613 248 l 1
 267 248 l 1
EndSplineSet
EndChar

StartChar: uni257B
Encoding: 9595 9595 705
Width: 613
VWidth: 1046
Flags: MW
LayerCount: 2
Fore
SplineSet
387 367 m 1
 387 -184 l 1
 226 -184 l 1
 226 367 l 1
 387 367 l 1
EndSplineSet
EndChar

StartChar: uni251D
Encoding: 9501 9501 706
Width: 613
VWidth: 1046
Flags: MW
LayerCount: 2
Fore
SplineSet
346 408 m 1
 613 408 l 1
 613 248 l 1
 346 248 l 1
 346 -184 l 1
 267 -184 l 1
 267 838 l 1
 346 838 l 1
 346 408 l 1
EndSplineSet
EndChar

StartChar: uni251E
Encoding: 9502 9502 707
Width: 613
VWidth: 1046
Flags: MW
LayerCount: 2
Fore
SplineSet
613 289 m 1
 524 289 435 289 346 289 c 1
 346 -184 l 1
 267 -184 l 1
 267 289 l 1
 226 289 l 1
 226 838 l 1
 387 838 l 1
 387 367 l 1
 613 367 l 1
 613 289 l 1
EndSplineSet
EndChar

StartChar: uni251F
Encoding: 9503 9503 708
Width: 613
VWidth: 1046
Flags: MW
LayerCount: 2
Fore
SplineSet
267 367 m 1
 267 838 l 1
 346 838 l 1
 346 367 l 1
 435 367 524 367 613 367 c 1
 613 289 l 1
 387 289 l 1
 387 -184 l 1
 226 -184 l 1
 226 367 l 1
 267 367 l 1
EndSplineSet
EndChar

StartChar: uni2520
Encoding: 9504 9504 709
Width: 613
VWidth: 1046
Flags: MW
LayerCount: 2
Fore
SplineSet
226 -184 m 1
 226 838 l 1
 387 838 l 1
 387 367 l 1
 613 367 l 1
 613 289 l 1
 387 289 l 1
 387 -184 l 1
 226 -184 l 1
EndSplineSet
EndChar

StartChar: uni2521
Encoding: 9505 9505 710
Width: 613
VWidth: 1046
Flags: MW
LayerCount: 2
Fore
SplineSet
346 248 m 1
 346 -184 l 1
 267 -184 l 1
 267 248 l 1
 226 248 l 1
 226 838 l 1
 387 838 l 1
 387 408 l 1
 613 408 l 1
 613 248 l 1
 346 248 l 1
EndSplineSet
EndChar

StartChar: uni2522
Encoding: 9506 9506 711
Width: 613
VWidth: 1046
Flags: MW
LayerCount: 2
Fore
SplineSet
226 -184 m 1
 226 408 l 1
 267 408 l 1
 267 838 l 1
 346 838 l 1
 346 408 l 1
 613 408 l 1
 613 248 l 1
 387 248 l 1
 387 -184 l 1
 226 -184 l 1
EndSplineSet
EndChar

StartChar: uni2523
Encoding: 9507 9507 712
Width: 613
VWidth: 1046
Flags: MW
LayerCount: 2
Fore
SplineSet
387 408 m 1
 613 408 l 1
 613 248 l 1
 387 248 l 1
 387 -184 l 1
 226 -184 l 1
 226 838 l 1
 387 838 l 1
 387 408 l 1
EndSplineSet
EndChar

StartChar: uni2525
Encoding: 9509 9509 713
Width: 613
VWidth: 1046
Flags: MW
LayerCount: 2
Fore
SplineSet
346 838 m 1
 346 -184 l 1
 267 -184 l 1
 267 248 l 1
 0 248 l 1
 0 408 l 1
 267 408 l 1
 267 838 l 1
 346 838 l 1
EndSplineSet
EndChar

StartChar: uni2526
Encoding: 9510 9510 714
Width: 613
VWidth: 1046
Flags: MW
LayerCount: 2
Fore
SplineSet
226 367 m 1
 226 838 l 1
 387 838 l 1
 387 289 l 1
 346 289 l 1
 346 -184 l 1
 267 -184 l 1
 267 289 l 1
 178 289 89 289 0 289 c 1
 0 367 l 1
 226 367 l 1
EndSplineSet
EndChar

StartChar: uni2527
Encoding: 9511 9511 715
Width: 613
VWidth: 1046
Flags: MW
LayerCount: 2
Fore
SplineSet
387 367 m 1
 387 -184 l 1
 226 -184 l 1
 226 289 l 1
 0 289 l 1
 0 367 l 1
 89 367 178 367 267 367 c 1
 267 838 l 1
 346 838 l 1
 346 367 l 1
 387 367 l 1
EndSplineSet
EndChar

StartChar: uni2528
Encoding: 9512 9512 716
Width: 613
VWidth: 1046
Flags: MW
LayerCount: 2
Fore
SplineSet
226 289 m 1
 0 289 l 1
 0 367 l 1
 226 367 l 1
 226 838 l 1
 387 838 l 1
 387 -184 l 1
 226 -184 l 1
 226 289 l 1
EndSplineSet
EndChar

StartChar: uni2529
Encoding: 9513 9513 717
Width: 613
VWidth: 1046
Flags: MW
LayerCount: 2
Fore
SplineSet
346 248 m 1
 346 -184 l 1
 267 -184 l 1
 267 248 l 1
 0 248 l 1
 0 408 l 1
 226 408 l 1
 226 838 l 1
 387 838 l 1
 387 248 l 1
 346 248 l 1
EndSplineSet
EndChar

StartChar: uni252A
Encoding: 9514 9514 718
Width: 613
VWidth: 1046
Flags: MW
LayerCount: 2
Fore
SplineSet
226 248 m 1
 0 248 l 1
 0 408 l 1
 267 408 l 1
 267 838 l 1
 346 838 l 1
 346 408 l 1
 387 408 l 1
 387 -184 l 1
 226 -184 l 1
 226 248 l 1
EndSplineSet
EndChar

StartChar: uni252B
Encoding: 9515 9515 719
Width: 613
VWidth: 1046
Flags: MW
LayerCount: 2
Fore
SplineSet
226 408 m 1
 226 838 l 1
 387 838 l 1
 387 -184 l 1
 226 -184 l 1
 226 248 l 1
 0 248 l 1
 0 408 l 1
 226 408 l 1
EndSplineSet
EndChar

StartChar: uni252D
Encoding: 9517 9517 720
Width: 613
VWidth: 1046
Flags: MW
LayerCount: 2
Fore
SplineSet
267 248 m 1
 0 248 l 1
 0 408 l 1
 346 408 l 1
 346 367 l 1
 613 367 l 1
 613 289 l 1
 346 289 l 1
 346 131 346 -26 346 -184 c 1
 267 -184 l 1
 267 248 l 1
EndSplineSet
EndChar

StartChar: uni252E
Encoding: 9518 9518 721
Width: 613
VWidth: 1046
Flags: MW
LayerCount: 2
Fore
SplineSet
267 -184 m 1
 267 -26 267 131 267 289 c 1
 0 289 l 1
 0 367 l 1
 267 367 l 1
 267 408 l 1
 613 408 l 1
 613 248 l 1
 346 248 l 1
 346 -184 l 1
 267 -184 l 1
EndSplineSet
EndChar

StartChar: uni252F
Encoding: 9519 9519 722
Width: 613
VWidth: 1046
Flags: MW
LayerCount: 2
Fore
SplineSet
0 408 m 1
 613 408 l 1
 613 248 l 1
 346 248 l 1
 346 -184 l 1
 267 -184 l 1
 267 248 l 1
 0 248 l 1
 0 408 l 1
EndSplineSet
EndChar

StartChar: uni2530
Encoding: 9520 9520 723
Width: 613
VWidth: 1046
Flags: MW
LayerCount: 2
Fore
SplineSet
0 367 m 1
 613 367 l 1
 613 289 l 1
 387 289 l 1
 387 -184 l 1
 226 -184 l 1
 226 289 l 1
 0 289 l 1
 0 367 l 1
EndSplineSet
EndChar

StartChar: uni2531
Encoding: 9521 9521 724
Width: 613
VWidth: 1046
Flags: MW
LayerCount: 2
Fore
SplineSet
226 248 m 1
 0 248 l 1
 0 408 l 1
 387 408 l 1
 387 367 l 1
 613 367 l 1
 613 289 l 1
 387 289 l 1
 387 -184 l 1
 226 -184 l 1
 226 248 l 1
EndSplineSet
EndChar

StartChar: uni2532
Encoding: 9522 9522 725
Width: 613
VWidth: 1046
Flags: MW
LayerCount: 2
Fore
SplineSet
226 289 m 1
 0 289 l 1
 0 367 l 1
 226 367 l 1
 226 408 l 1
 613 408 l 1
 613 248 l 1
 387 248 l 1
 387 -184 l 1
 226 -184 l 1
 226 289 l 1
EndSplineSet
EndChar

StartChar: uni2533
Encoding: 9523 9523 726
Width: 613
VWidth: 1046
Flags: MW
LayerCount: 2
Fore
SplineSet
0 408 m 1
 613 408 l 1
 613 248 l 1
 387 248 l 1
 387 -184 l 1
 226 -184 l 1
 226 248 l 1
 0 248 l 1
 0 408 l 1
EndSplineSet
EndChar

StartChar: uni2535
Encoding: 9525 9525 727
Width: 613
VWidth: 1046
Flags: MW
LayerCount: 2
Fore
SplineSet
346 248 m 1
 0 248 l 1
 0 408 l 1
 267 408 l 1
 267 838 l 1
 346 838 l 1
 346 681 346 524 346 367 c 1
 613 367 l 1
 613 289 l 1
 346 289 l 1
 346 248 l 1
EndSplineSet
EndChar

StartChar: uni2536
Encoding: 9526 9526 728
Width: 613
VWidth: 1046
Flags: MW
LayerCount: 2
Fore
SplineSet
346 408 m 1
 613 408 l 1
 613 248 l 1
 267 248 l 1
 267 289 l 1
 0 289 l 1
 0 367 l 1
 267 367 l 1
 267 524 267 681 267 838 c 1
 346 838 l 1
 346 408 l 1
EndSplineSet
EndChar

StartChar: uni2537
Encoding: 9527 9527 729
Width: 613
VWidth: 1046
Flags: MW
LayerCount: 2
Fore
SplineSet
613 248 m 1
 0 248 l 1
 0 408 l 1
 267 408 l 1
 267 838 l 1
 346 838 l 1
 346 408 l 1
 613 408 l 1
 613 248 l 1
EndSplineSet
EndChar

StartChar: uni2538
Encoding: 9528 9528 730
Width: 613
VWidth: 1046
Flags: MW
LayerCount: 2
Fore
SplineSet
226 367 m 1
 226 838 l 1
 387 838 l 1
 387 367 l 1
 613 367 l 1
 613 289 l 1
 0 289 l 1
 0 367 l 1
 226 367 l 1
EndSplineSet
EndChar

StartChar: uni2539
Encoding: 9529 9529 731
Width: 613
VWidth: 1046
Flags: MW
LayerCount: 2
Fore
SplineSet
387 248 m 1
 0 248 l 1
 0 408 l 1
 226 408 l 1
 226 838 l 1
 387 838 l 1
 387 367 l 1
 613 367 l 1
 613 289 l 1
 387 289 l 1
 387 248 l 1
EndSplineSet
EndChar

StartChar: uni253A
Encoding: 9530 9530 732
Width: 613
VWidth: 1046
Flags: MW
LayerCount: 2
Fore
SplineSet
613 248 m 1
 226 248 l 1
 226 289 l 1
 0 289 l 1
 0 367 l 1
 226 367 l 1
 226 838 l 1
 387 838 l 1
 387 408 l 1
 613 408 l 1
 613 248 l 1
EndSplineSet
EndChar

StartChar: uni253B
Encoding: 9531 9531 733
Width: 613
VWidth: 1046
Flags: MW
LayerCount: 2
Fore
SplineSet
226 408 m 1
 226 838 l 1
 387 838 l 1
 387 408 l 1
 613 408 l 1
 613 248 l 1
 0 248 l 1
 0 408 l 1
 226 408 l 1
EndSplineSet
EndChar

StartChar: uni253D
Encoding: 9533 9533 734
Width: 613
VWidth: 1046
Flags: MW
LayerCount: 2
Fore
SplineSet
346 838 m 1
 346 681 346 524 346 367 c 1
 613 367 l 1
 613 289 l 1
 346 289 l 1
 346 131 346 -26 346 -184 c 1
 267 -184 l 1
 267 248 l 1
 0 248 l 1
 0 408 l 1
 267 408 l 1
 267 838 l 1
 346 838 l 1
EndSplineSet
EndChar

StartChar: uni253E
Encoding: 9534 9534 735
Width: 613
VWidth: 1046
Flags: MW
LayerCount: 2
Fore
SplineSet
346 408 m 1
 613 408 l 1
 613 248 l 1
 346 248 l 1
 346 -184 l 1
 267 -184 l 1
 267 -26 267 131 267 289 c 1
 0 289 l 1
 0 367 l 1
 267 367 l 1
 267 524 267 681 267 838 c 1
 346 838 l 1
 346 408 l 1
EndSplineSet
EndChar

StartChar: uni253F
Encoding: 9535 9535 736
Width: 613
VWidth: 1046
Flags: MW
LayerCount: 2
Fore
SplineSet
346 408 m 1
 613 408 l 1
 613 248 l 1
 346 248 l 1
 346 -184 l 1
 267 -184 l 1
 267 838 l 1
 346 838 l 1
 346 408 l 1
EndSplineSet
EndChar

StartChar: uni2540
Encoding: 9536 9536 737
Width: 613
VWidth: 1046
Flags: MW
LayerCount: 2
Fore
SplineSet
226 367 m 1
 226 838 l 1
 387 838 l 1
 387 367 l 1
 613 367 l 1
 613 289 l 1
 524 289 435 289 346 289 c 1
 346 -184 l 1
 267 -184 l 1
 267 289 l 1
 178 289 89 289 0 289 c 1
 0 367 l 1
 226 367 l 1
EndSplineSet
EndChar

StartChar: uni2541
Encoding: 9537 9537 738
Width: 613
VWidth: 1046
Flags: MW
LayerCount: 2
Fore
SplineSet
267 367 m 1
 267 838 l 1
 346 838 l 1
 346 367 l 1
 435 367 524 367 613 367 c 1
 613 289 l 1
 387 289 l 1
 387 -184 l 1
 226 -184 l 1
 226 289 l 1
 0 289 l 1
 0 367 l 1
 89 367 178 367 267 367 c 1
EndSplineSet
EndChar

StartChar: uni2542
Encoding: 9538 9538 739
Width: 613
VWidth: 1046
Flags: MW
LayerCount: 2
Fore
SplineSet
226 289 m 1
 0 289 l 1
 0 367 l 1
 226 367 l 1
 226 838 l 1
 387 838 l 1
 387 367 l 1
 613 367 l 1
 613 289 l 1
 387 289 l 1
 387 -184 l 1
 226 -184 l 1
 226 289 l 1
EndSplineSet
EndChar

StartChar: uni2543
Encoding: 9539 9539 740
Width: 613
VWidth: 1046
Flags: MW
LayerCount: 2
Fore
SplineSet
226 408 m 1
 226 838 l 1
 387 838 l 1
 387 367 l 1
 613 367 l 1
 613 289 l 1
 524 289 435 289 346 289 c 1
 346 131 346 -26 346 -184 c 1
 267 -184 l 1
 267 248 l 1
 0 248 l 1
 0 408 l 1
 226 408 l 1
EndSplineSet
EndChar

StartChar: uni2544
Encoding: 9540 9540 741
Width: 613
VWidth: 1046
Flags: MW
LayerCount: 2
Fore
SplineSet
226 367 m 1
 226 838 l 1
 387 838 l 1
 387 408 l 1
 613 408 l 1
 613 248 l 1
 346 248 l 1
 346 -184 l 1
 267 -184 l 1
 267 -26 267 131 267 289 c 1
 178 289 89 289 0 289 c 1
 0 367 l 1
 226 367 l 1
EndSplineSet
EndChar

StartChar: uni2545
Encoding: 9541 9541 742
Width: 613
VWidth: 1046
Flags: MW
LayerCount: 2
Fore
SplineSet
346 838 m 1
 346 681 346 524 346 367 c 1
 435 367 524 367 613 367 c 1
 613 289 l 1
 387 289 l 1
 387 -184 l 1
 226 -184 l 1
 226 248 l 1
 0 248 l 1
 0 408 l 1
 267 408 l 1
 267 838 l 1
 346 838 l 1
EndSplineSet
EndChar

StartChar: uni2546
Encoding: 9542 9542 743
Width: 613
VWidth: 1046
Flags: MW
LayerCount: 2
Fore
SplineSet
346 408 m 1
 613 408 l 1
 613 248 l 1
 387 248 l 1
 387 -184 l 1
 226 -184 l 1
 226 289 l 1
 0 289 l 1
 0 367 l 1
 89 367 178 367 267 367 c 1
 267 524 267 681 267 838 c 1
 346 838 l 1
 346 408 l 1
EndSplineSet
EndChar

StartChar: uni2547
Encoding: 9543 9543 744
Width: 613
VWidth: 1046
Flags: MW
LayerCount: 2
Fore
SplineSet
226 408 m 1
 226 838 l 1
 387 838 l 1
 387 408 l 1
 613 408 l 1
 613 248 l 1
 346 248 l 1
 346 -184 l 1
 267 -184 l 1
 267 248 l 1
 0 248 l 1
 0 408 l 1
 226 408 l 1
EndSplineSet
EndChar

StartChar: uni2548
Encoding: 9544 9544 745
Width: 613
VWidth: 1046
Flags: MW
LayerCount: 2
Fore
SplineSet
346 408 m 1
 613 408 l 1
 613 248 l 1
 387 248 l 1
 387 -184 l 1
 226 -184 l 1
 226 248 l 1
 0 248 l 1
 0 408 l 1
 267 408 l 1
 267 838 l 1
 346 838 l 1
 346 408 l 1
EndSplineSet
EndChar

StartChar: uni2549
Encoding: 9545 9545 746
Width: 613
VWidth: 1046
Flags: MW
LayerCount: 2
Fore
SplineSet
226 408 m 1
 226 838 l 1
 387 838 l 1
 387 367 l 1
 613 367 l 1
 613 289 l 1
 387 289 l 1
 387 -184 l 1
 226 -184 l 1
 226 248 l 1
 0 248 l 1
 0 408 l 1
 226 408 l 1
EndSplineSet
EndChar

StartChar: uni254A
Encoding: 9546 9546 747
Width: 613
VWidth: 1046
Flags: MW
LayerCount: 2
Fore
SplineSet
387 408 m 1
 613 408 l 1
 613 248 l 1
 387 248 l 1
 387 -184 l 1
 226 -184 l 1
 226 289 l 1
 0 289 l 1
 0 367 l 1
 226 367 l 1
 226 838 l 1
 387 838 l 1
 387 408 l 1
EndSplineSet
EndChar

StartChar: uni254B
Encoding: 9547 9547 748
Width: 613
VWidth: 1046
Flags: MW
LayerCount: 2
Fore
SplineSet
226 408 m 1
 226 838 l 1
 387 838 l 1
 387 408 l 1
 613 408 l 1
 613 248 l 1
 387 248 l 1
 387 -184 l 1
 226 -184 l 1
 226 248 l 1
 0 248 l 1
 0 408 l 1
 226 408 l 1
EndSplineSet
EndChar

StartChar: uni254C
Encoding: 9548 9548 749
Width: 613
VWidth: 1046
Flags: MW
LayerCount: 2
Fore
SplineSet
562 289 m 1
 358 289 l 1
 358 367 l 1
 562 367 l 1
 562 289 l 1
255 289 m 1
 51 289 l 1
 51 367 l 1
 255 367 l 1
 255 289 l 1
EndSplineSet
EndChar

StartChar: uni254D
Encoding: 9549 9549 750
Width: 613
VWidth: 1046
Flags: MW
LayerCount: 2
Fore
SplineSet
562 248 m 1
 358 248 l 1
 358 408 l 1
 562 408 l 1
 562 248 l 1
255 248 m 1
 51 248 l 1
 51 408 l 1
 255 408 l 1
 255 248 l 1
EndSplineSet
EndChar

StartChar: uni254E
Encoding: 9550 9550 751
Width: 613
VWidth: 1046
Flags: MW
LayerCount: 2
Fore
SplineSet
346 276 m 0
 346 -133 l 0
 267 -133 l 0
 267 276 l 0
 346 276 l 0
346 787 m 0
 346 378 l 0
 267 378 l 0
 267 787 l 0
 346 787 l 0
EndSplineSet
EndChar

StartChar: uni254F
Encoding: 9551 9551 752
Width: 613
VWidth: 1046
Flags: MW
LayerCount: 2
Fore
SplineSet
387 276 m 1
 387 -133 l 1
 226 -133 l 1
 226 276 l 1
 387 276 l 1
387 787 m 1
 387 378 l 1
 226 378 l 1
 226 787 l 1
 387 787 l 1
EndSplineSet
EndChar

StartChar: uni2504
Encoding: 9476 9476 753
Width: 613
VWidth: 1046
Flags: MW
LayerCount: 2
Fore
SplineSet
450 367 m 0
 572 367 l 0
 572 289 l 0
 450 289 l 0
 450 367 l 0
245 367 m 0
 368 367 l 0
 368 289 l 0
 245 289 l 0
 245 367 l 0
41 367 m 0
 163 367 l 0
 163 289 l 0
 41 289 l 0
 41 367 l 0
EndSplineSet
EndChar

StartChar: uni2505
Encoding: 9477 9477 754
Width: 613
VWidth: 1046
Flags: MW
LayerCount: 2
Fore
SplineSet
450 408 m 1
 572 408 l 1
 572 248 l 1
 450 248 l 1
 450 408 l 1
245 408 m 1
 368 408 l 1
 368 248 l 1
 245 248 l 1
 245 408 l 1
41 408 m 1
 163 408 l 1
 163 248 l 1
 41 248 l 1
 41 408 l 1
EndSplineSet
EndChar

StartChar: uni2506
Encoding: 9478 9478 755
Width: 613
VWidth: 1046
Flags: MW
LayerCount: 2
Fore
SplineSet
346 106 m 0
 346 -133 l 0
 267 -133 l 0
 267 106 l 0
 346 106 l 0
346 446 m 0
 346 208 l 0
 267 208 l 0
 267 446 l 0
 346 446 l 0
346 787 m 0
 346 548 l 0
 267 548 l 0
 267 787 l 0
 346 787 l 0
EndSplineSet
EndChar

StartChar: uni2507
Encoding: 9479 9479 756
Width: 613
VWidth: 1046
Flags: MW
LayerCount: 2
Fore
SplineSet
387 106 m 1
 387 -133 l 1
 226 -133 l 1
 226 106 l 1
 387 106 l 1
387 446 m 1
 387 208 l 1
 226 208 l 1
 226 446 l 1
 387 446 l 1
387 787 m 1
 387 548 l 1
 226 548 l 1
 226 787 l 1
 387 787 l 1
EndSplineSet
EndChar

StartChar: uni2508
Encoding: 9480 9480 757
Width: 613
VWidth: 1046
Flags: MW
LayerCount: 2
Fore
SplineSet
582 289 m 1
 490 289 l 1
 490 367 l 1
 582 367 l 1
 582 289 l 1
429 289 m 1
 337 289 l 1
 337 367 l 1
 429 367 l 1
 429 289 l 1
276 289 m 1
 184 289 l 1
 184 367 l 1
 276 367 l 1
 276 289 l 1
123 289 m 1
 31 289 l 1
 31 367 l 1
 123 367 l 1
 123 289 l 1
EndSplineSet
EndChar

StartChar: uni2509
Encoding: 9481 9481 758
Width: 613
VWidth: 1046
Flags: MW
LayerCount: 2
Fore
SplineSet
582 248 m 1
 490 248 l 1
 490 408 l 1
 582 408 l 1
 582 248 l 1
429 248 m 1
 337 248 l 1
 337 408 l 1
 429 408 l 1
 429 248 l 1
276 248 m 1
 184 248 l 1
 184 408 l 1
 276 408 l 1
 276 248 l 1
123 248 m 1
 31 248 l 1
 31 408 l 1
 123 408 l 1
 123 248 l 1
EndSplineSet
EndChar

StartChar: uni250A
Encoding: 9482 9482 759
Width: 613
VWidth: 1046
Flags: MW
LayerCount: 2
Fore
SplineSet
346 20 m 0
 346 -133 l 0
 267 -133 l 0
 267 20 l 0
 346 20 l 0
346 276 m 0
 346 123 l 0
 267 123 l 0
 267 276 l 0
 346 276 l 0
346 531 m 0
 346 378 l 0
 267 378 l 0
 267 531 l 0
 346 531 l 0
346 787 m 0
 346 633 l 0
 267 633 l 0
 267 787 l 0
 346 787 l 0
EndSplineSet
EndChar

StartChar: uni250B
Encoding: 9483 9483 760
Width: 613
VWidth: 1046
Flags: MW
LayerCount: 2
Fore
SplineSet
387 20 m 1
 387 -133 l 1
 226 -133 l 1
 226 20 l 1
 387 20 l 1
387 276 m 1
 387 123 l 1
 226 123 l 1
 226 276 l 1
 387 276 l 1
387 531 m 1
 387 378 l 1
 226 378 l 1
 226 531 l 1
 387 531 l 1
387 787 m 1
 387 633 l 1
 226 633 l 1
 226 787 l 1
 387 787 l 1
EndSplineSet
EndChar

StartChar: uni257C
Encoding: 9596 9596 761
Width: 613
VWidth: 1046
Flags: MW
LayerCount: 2
Fore
SplineSet
267 367 m 1
 267 408 l 1
 613 408 l 1
 613 248 l 1
 267 248 l 1
 267 289 l 1
 0 289 l 1
 0 367 l 1
 267 367 l 1
EndSplineSet
EndChar

StartChar: uni257D
Encoding: 9597 9597 762
Width: 613
VWidth: 1046
Flags: MW
LayerCount: 2
Fore
SplineSet
387 367 m 1
 387 -184 l 1
 226 -184 l 1
 226 367 l 1
 267 367 l 1
 267 838 l 1
 346 838 l 1
 346 367 l 1
 387 367 l 1
EndSplineSet
EndChar

StartChar: uni257E
Encoding: 9598 9598 763
Width: 613
VWidth: 1046
Flags: MW
LayerCount: 2
Fore
SplineSet
346 248 m 1
 0 248 l 1
 0 408 l 1
 346 408 l 1
 346 367 l 1
 613 367 l 1
 613 289 l 1
 346 289 l 1
 346 248 l 1
EndSplineSet
EndChar

StartChar: uni257F
Encoding: 9599 9599 764
Width: 613
VWidth: 1046
Flags: MW
LayerCount: 2
Fore
SplineSet
267 289 m 1
 226 289 l 1
 226 838 l 1
 387 838 l 1
 387 289 l 1
 346 289 l 1
 346 -184 l 1
 267 -184 l 1
 267 289 l 1
EndSplineSet
EndChar

StartChar: uni256D
Encoding: 9581 9581 765
Width: 613
VWidth: 1046
Flags: MW
LayerCount: 2
Fore
SplineSet
267 -82 m 0
 267 165 376 367 511 367 c 0
 613 367 l 1
 613 289 l 1
 511 289 l 0
 419 289 346 122 346 -82 c 0
 346 -184 l 1
 267 -184 l 1
 267 -82 l 0
EndSplineSet
EndChar

StartChar: uni256E
Encoding: 9582 9582 766
Width: 613
VWidth: 1046
Flags: MW
LayerCount: 2
Fore
SplineSet
0 289 m 1
 0 367 l 1
 102 367 l 0
 237 367 346 165 346 -82 c 0
 346 -184 l 1
 267 -184 l 1
 267 -82 l 0
 267 122 194 289 102 289 c 0
 0 289 l 1
EndSplineSet
EndChar

StartChar: uni256F
Encoding: 9583 9583 767
Width: 613
VWidth: 1046
Flags: MW
LayerCount: 2
Fore
SplineSet
0 287 m 1
 0 365 l 1
 102 365 l 0
 194 365 267 532 267 736 c 0
 267 838 l 1
 346 838 l 1
 346 736 l 0
 346 489 237 287 102 287 c 0
 0 287 l 1
EndSplineSet
EndChar

StartChar: uni2570
Encoding: 9584 9584 768
Width: 613
VWidth: 1046
Flags: MW
LayerCount: 2
Fore
SplineSet
267 736 m 0
 267 838 l 1
 346 838 l 1
 346 736 l 0
 346 532 419 365 511 365 c 0
 613 365 l 1
 613 287 l 1
 511 287 l 0
 376 287 267 489 267 736 c 0
EndSplineSet
EndChar

StartChar: uni2571
Encoding: 9585 9585 769
Width: 613
VWidth: 1046
Flags: MW
LayerCount: 2
Fore
SplineSet
657 838 m 0
 44 -184 l 0
 -44 -184 l 0
 569 838 l 0
 657 838 l 0
EndSplineSet
EndChar

StartChar: uni2572
Encoding: 9586 9586 770
Width: 613
VWidth: 1046
Flags: MW
LayerCount: 2
Fore
SplineSet
-44 838 m 0
 44 838 l 0
 657 -184 l 0
 569 -184 l 0
 -44 838 l 0
EndSplineSet
EndChar

StartChar: uni2573
Encoding: 9587 9587 771
Width: 613
VWidth: 1046
Flags: MW
LayerCount: 2
Fore
SplineSet
-44 838 m 1
 44 838 l 1
 306 401 l 1
 569 838 l 1
 657 838 l 1
 351 327 l 1
 657 -184 l 1
 569 -184 l 1
 306 253 l 1
 44 -184 l 1
 -44 -184 l 1
 262 327 l 1
 -44 838 l 1
EndSplineSet
EndChar

StartChar: uni2581
Encoding: 9601 9601 772
Width: 613
VWidth: 1046
Flags: MW
LayerCount: 2
Fore
SplineSet
0 -56 m 29
 613 -56 l 29
 613 -184 l 25
 0 -184 l 25
 0 -56 l 29
EndSplineSet
EndChar

StartChar: uni2582
Encoding: 9602 9602 773
Width: 613
VWidth: 1046
Flags: MW
LayerCount: 2
Fore
SplineSet
0 72 m 29
 613 72 l 29
 613 -184 l 25
 0 -184 l 25
 0 72 l 29
EndSplineSet
EndChar

StartChar: uni2583
Encoding: 9603 9603 774
Width: 613
VWidth: 1046
Flags: MW
LayerCount: 2
Fore
SplineSet
0 199 m 25
 613 199 l 25
 613 -184 l 25
 0 -184 l 25
 0 199 l 25
EndSplineSet
EndChar

StartChar: uni2585
Encoding: 9605 9605 775
Width: 613
VWidth: 1046
Flags: MW
LayerCount: 2
Fore
SplineSet
0 455 m 29
 613 455 l 29
 613 -184 l 25
 0 -184 l 25
 0 455 l 29
EndSplineSet
EndChar

StartChar: uni2586
Encoding: 9606 9606 776
Width: 613
VWidth: 1046
Flags: MW
LayerCount: 2
Fore
SplineSet
0 582 m 29
 613 582 l 29
 613 -184 l 25
 0 -184 l 25
 0 582 l 29
EndSplineSet
EndChar

StartChar: uni2587
Encoding: 9607 9607 777
Width: 613
VWidth: 1046
Flags: MW
LayerCount: 2
Fore
SplineSet
0 710 m 29
 613 710 l 29
 613 -184 l 25
 0 -184 l 25
 0 710 l 29
EndSplineSet
EndChar

StartChar: uni2589
Encoding: 9609 9609 778
Width: 613
VWidth: 1046
Flags: MW
LayerCount: 2
Fore
SplineSet
0 838 m 25
 536 838 l 29
 536 -184 l 29
 0 -184 l 25
 0 838 l 25
EndSplineSet
EndChar

StartChar: uni258A
Encoding: 9610 9610 779
Width: 613
VWidth: 1046
Flags: MW
LayerCount: 2
Fore
SplineSet
0 838 m 25
 460 838 l 29
 460 -184 l 29
 0 -184 l 25
 0 838 l 25
EndSplineSet
EndChar

StartChar: uni258B
Encoding: 9611 9611 780
Width: 613
VWidth: 1046
Flags: MW
LayerCount: 2
Fore
SplineSet
0 838 m 25
 383 838 l 29
 383 -184 l 29
 0 -184 l 25
 0 838 l 25
EndSplineSet
EndChar

StartChar: uni258D
Encoding: 9613 9613 781
Width: 613
VWidth: 1046
Flags: MW
LayerCount: 2
Fore
SplineSet
0 838 m 25
 230 838 l 29
 230 -184 l 29
 0 -184 l 25
 0 838 l 25
EndSplineSet
EndChar

StartChar: uni258E
Encoding: 9614 9614 782
Width: 613
VWidth: 1046
Flags: MW
LayerCount: 2
Fore
SplineSet
0 838 m 25
 153 838 l 29
 153 -184 l 29
 0 -184 l 25
 0 838 l 25
EndSplineSet
EndChar

StartChar: uni258F
Encoding: 9615 9615 783
Width: 613
VWidth: 1046
Flags: MW
LayerCount: 2
Fore
SplineSet
0 838 m 25
 77 838 l 25
 77 -184 l 25
 0 -184 l 25
 0 838 l 25
EndSplineSet
EndChar

StartChar: upblock
Encoding: 9600 9600 784
Width: 613
VWidth: 1046
Flags: MW
LayerCount: 2
Fore
SplineSet
0 838 m 29
 613 838 l 29
 613 327 l 29
 0 327 l 29
 0 838 l 29
EndSplineSet
EndChar

StartChar: rtblock
Encoding: 9616 9616 785
Width: 613
VWidth: 1046
Flags: MW
LayerCount: 2
Fore
SplineSet
306 838 m 25
 613 838 l 25
 613 -184 l 25
 306 -184 l 25
 306 838 l 25
EndSplineSet
EndChar

StartChar: ltshade
Encoding: 9617 9617 786
Width: 613
VWidth: 1046
Flags: MW
LayerCount: 2
Fore
SplineSet
613 -82 m 1
 613 -133 l 1
 552 -133 l 1
 552 -82 l 1
 613 -82 l 1
613 123 m 1
 613 72 l 1
 552 72 l 1
 552 123 l 1
 613 123 l 1
613 327 m 1
 613 276 l 1
 552 276 l 1
 552 327 l 1
 613 327 l 1
613 531 m 1
 613 480 l 1
 552 480 l 1
 552 531 l 1
 613 531 l 1
613 736 m 1
 613 685 l 1
 552 685 l 1
 552 736 l 1
 613 736 l 1
61 20 m 1
 61 -31 l 1
 0 -31 l 1
 0 20 l 1
 61 20 l 1
61 225 m 1
 61 174 l 1
 0 174 l 1
 0 225 l 1
 61 225 l 1
61 429 m 1
 61 378 l 1
 0 378 l 1
 0 429 l 1
 61 429 l 1
61 633 m 1
 61 582 l 1
 0 582 l 1
 0 633 l 1
 61 633 l 1
0 838 m 1
 61 838 l 1
 61 787 l 1
 0 787 l 1
 0 838 l 1
552 838 m 1
 552 787 l 1
 490 787 l 1
 490 838 l 1
 552 838 l 1
429 838 m 1
 429 787 l 1
 368 787 l 1
 368 838 l 1
 429 838 l 1
306 838 m 1
 306 787 l 1
 245 787 l 1
 245 838 l 1
 306 838 l 1
184 838 m 1
 184 787 l 1
 123 787 l 1
 123 838 l 1
 184 838 l 1
490 736 m 1
 490 685 l 1
 429 685 l 1
 429 736 l 1
 490 736 l 1
368 736 m 1
 368 685 l 1
 306 685 l 1
 306 736 l 1
 368 736 l 1
245 736 m 1
 245 685 l 1
 184 685 l 1
 184 736 l 1
 245 736 l 1
123 736 m 1
 123 685 l 1
 61 685 l 1
 61 736 l 1
 123 736 l 1
552 633 m 1
 552 582 l 1
 490 582 l 1
 490 633 l 1
 552 633 l 1
429 633 m 1
 429 582 l 1
 368 582 l 1
 368 633 l 1
 429 633 l 1
306 633 m 1
 306 582 l 1
 245 582 l 1
 245 633 l 1
 306 633 l 1
184 633 m 1
 184 582 l 1
 123 582 l 1
 123 633 l 1
 184 633 l 1
490 531 m 1
 490 480 l 1
 429 480 l 1
 429 531 l 1
 490 531 l 1
368 531 m 1
 368 480 l 1
 306 480 l 1
 306 531 l 1
 368 531 l 1
245 531 m 1
 245 480 l 1
 184 480 l 1
 184 531 l 1
 245 531 l 1
123 531 m 1
 123 480 l 1
 61 480 l 1
 61 531 l 1
 123 531 l 1
552 429 m 1
 552 378 l 1
 490 378 l 1
 490 429 l 1
 552 429 l 1
429 429 m 1
 429 378 l 1
 368 378 l 1
 368 429 l 1
 429 429 l 1
306 429 m 1
 306 378 l 1
 245 378 l 1
 245 429 l 1
 306 429 l 1
184 429 m 1
 184 378 l 1
 123 378 l 1
 123 429 l 1
 184 429 l 1
490 327 m 1
 490 276 l 1
 429 276 l 1
 429 327 l 1
 490 327 l 1
368 327 m 1
 368 276 l 1
 306 276 l 1
 306 327 l 1
 368 327 l 1
245 327 m 1
 245 276 l 1
 184 276 l 1
 184 327 l 1
 245 327 l 1
123 327 m 1
 123 276 l 1
 61 276 l 1
 61 327 l 1
 123 327 l 1
552 225 m 1
 552 174 l 1
 490 174 l 1
 490 225 l 1
 552 225 l 1
429 225 m 1
 429 174 l 1
 368 174 l 1
 368 225 l 1
 429 225 l 1
306 225 m 1
 306 174 l 1
 245 174 l 1
 245 225 l 1
 306 225 l 1
184 225 m 1
 184 174 l 1
 123 174 l 1
 123 225 l 1
 184 225 l 1
490 123 m 1
 490 72 l 1
 429 72 l 1
 429 123 l 1
 490 123 l 1
368 123 m 1
 368 72 l 1
 306 72 l 1
 306 123 l 1
 368 123 l 1
245 123 m 1
 245 72 l 1
 184 72 l 1
 184 123 l 1
 245 123 l 1
123 123 m 1
 123 72 l 1
 61 72 l 1
 61 123 l 1
 123 123 l 1
552 20 m 1
 552 -31 l 1
 490 -31 l 1
 490 20 l 1
 552 20 l 1
429 20 m 1
 429 -31 l 1
 368 -31 l 1
 368 20 l 1
 429 20 l 1
306 20 m 1
 306 -31 l 1
 245 -31 l 1
 245 20 l 1
 306 20 l 1
184 20 m 1
 184 -31 l 1
 123 -31 l 1
 123 20 l 1
 184 20 l 1
490 -82 m 1
 490 -133 l 1
 429 -133 l 1
 429 -82 l 1
 490 -82 l 1
368 -82 m 1
 368 -133 l 1
 306 -133 l 1
 306 -82 l 1
 368 -82 l 1
245 -82 m 1
 245 -133 l 1
 184 -133 l 1
 184 -82 l 1
 245 -82 l 1
123 -82 m 1
 123 -133 l 1
 61 -133 l 1
 61 -82 l 1
 123 -82 l 1
EndSplineSet
EndChar

StartChar: uni2594
Encoding: 9620 9620 787
Width: 613
VWidth: 1046
Flags: MW
LayerCount: 2
Fore
SplineSet
0 838 m 25
 613 838 l 25
 613 710 l 25
 0 710 l 25
 0 838 l 25
EndSplineSet
EndChar

StartChar: uni2595
Encoding: 9621 9621 788
Width: 613
VWidth: 1046
Flags: MW
LayerCount: 2
Fore
SplineSet
536 838 m 25
 613 838 l 25
 613 -184 l 25
 536 -184 l 25
 536 838 l 25
EndSplineSet
EndChar

StartChar: uni2596
Encoding: 9622 9622 789
Width: 613
VWidth: 1046
Flags: MW
LayerCount: 2
Fore
SplineSet
0 327 m 25
 306 327 l 25
 306 -184 l 25
 0 -184 l 25
 0 327 l 25
EndSplineSet
EndChar

StartChar: uni2597
Encoding: 9623 9623 790
Width: 613
VWidth: 1046
Flags: MW
LayerCount: 2
Fore
SplineSet
306 327 m 25
 613 327 l 25
 613 -184 l 25
 306 -184 l 25
 306 327 l 25
EndSplineSet
EndChar

